0xProto-Italic.ufo
<glyph name="exclam" format="2">
  <advance width="620"/>
  <unicode hex="0021"/>
  <outline>
    <contour>
      <point x="253" y="-27" type="curve" smooth="yes"/>
      <point x="294" y="-27"/>
      <point x="329" y="8"/>
      <point x="329" y="49" type="curve" smooth="yes"/>
      <point x="329" y="90"/>
      <point x="294" y="125"/>
      <point x="253" y="125" type="curve" smooth="yes"/>
      <point x="212" y="125"/>
      <point x="177" y="90"/>
      <point x="177" y="49" type="curve" smooth="yes"/>
      <point x="177" y="8"/>
      <point x="212" y="-27"/>
    </contour>
    <contour>
      <point x="271" y="725" type="line"/>
      <point x="253" y="560"/>
      <point x="243" y="375"/>
      <point x="226" y="210" type="curve"/>
      <point x="320" y="210" type="line"/>
      <point x="353" y="375"/>
      <point x="403" y="560"/>
      <point x="435" y="725" type="curve"/>
    </contour>
  </outline>
</glyph>
<glyph name="quotedbl" format="2">
  <advance width="620"/>
  <unicode hex="0022"/>
  <outline>
    <contour>
      <point x="209" y="710" type="line"/>
      <point x="204" y="438" type="line"/>
      <point x="259" y="438" type="line"/>
      <point x="338" y="710" type="line"/>
    </contour>
    <contour>
      <point x="417" y="710" type="line"/>
      <point x="412" y="438" type="line"/>
      <point x="467" y="438" type="line"/>
      <point x="546" y="710" type="line"/>
    </contour>
  </outline>
</glyph>
<glyph name="numbersign" format="2">
  <advance width="620"/>
  <unicode hex="0023"/>
  <outline>
    <contour>
      <point x="516" y="244" type="line"/>
      <point x="54" y="244" type="line"/>
      <point x="40" y="156" type="line"/>
      <point x="502" y="156" type="line"/>
    </contour>
    <contour>
      <point x="605" y="550" type="line"/>
      <point x="147" y="550" type="line"/>
      <point x="133" y="462" type="line"/>
      <point x="591" y="462" type="line"/>
    </contour>
    <contour>
      <point x="142" y="0" type="line"/>
      <point x="407" y="710" type="line"/>
      <point x="317" y="710" type="line"/>
      <point x="52" y="0" type="line"/>
    </contour>
    <contour>
      <point x="336" y="0" type="line"/>
      <point x="601" y="710" type="line"/>
      <point x="511" y="710" type="line"/>
      <point x="246" y="0" type="line"/>
    </contour>
  </outline>
</glyph>
<glyph name="dollar" format="2">
  <advance width="620"/>
  <unicode hex="0024"/>
  <outline>
    <contour>
      <point x="432" y="764" type="line"/>
      <point x="362" y="764" type="line"/>
      <point x="232" y="-61" type="line"/>
      <point x="302" y="-61" type="line"/>
    </contour>
    <contour>
      <point x="312" y="316" type="curve"/>
      <point x="325" y="398" type="line"/>
      <point x="255" y="427"/>
      <point x="194" y="456"/>
      <point x="204" y="511" type="curve" smooth="yes"/>
      <point x="215" y="572"/>
      <point x="289" y="600"/>
      <point x="379" y="598" type="curve" smooth="yes"/>
      <point x="456" y="596"/>
      <point x="511" y="553"/>
      <point x="503" y="498" type="curve"/>
      <point x="589" y="498" type="line"/>
      <point x="609" y="624"/>
      <point x="493" y="683"/>
      <point x="392" y="684" type="curve" smooth="yes"/>
      <point x="240" y="685"/>
      <point x="128" y="631"/>
      <point x="109" y="522" type="curve" smooth="yes"/>
      <point x="90" y="413"/>
      <point x="194" y="361"/>
    </contour>
    <contour>
      <point x="346" y="394" type="curve"/>
      <point x="333" y="310" type="line"/>
      <point x="403" y="288"/>
      <point x="467" y="253"/>
      <point x="457" y="194" type="curve" smooth="yes"/>
      <point x="447" y="136"/>
      <point x="380" y="108"/>
      <point x="286" y="108" type="curve" smooth="yes"/>
      <point x="210" y="108"/>
      <point x="134" y="149"/>
      <point x="145" y="217" type="curve"/>
      <point x="47" y="217" type="line"/>
      <point x="26" y="86"/>
      <point x="174" y="22"/>
      <point x="269" y="22" type="curve" smooth="yes"/>
      <point x="429" y="22"/>
      <point x="534" y="80"/>
      <point x="551" y="185" type="curve" smooth="yes"/>
      <point x="570" y="304"/>
      <point x="457" y="351"/>
    </contour>
  </outline>
</glyph>
<glyph name="percent" format="2">
  <advance width="620"/>
  <unicode hex="0025"/>
  <outline>
    <contour>
      <point x="193" y="404" type="curve" smooth="yes"/>
      <point x="292" y="404"/>
      <point x="351" y="467"/>
      <point x="365" y="562" type="curve" smooth="yes"/>
      <point x="379" y="657"/>
      <point x="335" y="725"/>
      <point x="242" y="725" type="curve" smooth="yes"/>
      <point x="145" y="725"/>
      <point x="85" y="661"/>
      <point x="71" y="566" type="curve" smooth="yes"/>
      <point x="57" y="471"/>
      <point x="100" y="404"/>
    </contour>
    <contour>
      <point x="203" y="470" type="curve" smooth="yes"/>
      <point x="150" y="470"/>
      <point x="142" y="515"/>
      <point x="149" y="564" type="curve" smooth="yes"/>
      <point x="156" y="614"/>
      <point x="179" y="658"/>
      <point x="232" y="658" type="curve" smooth="yes"/>
      <point x="284" y="658"/>
      <point x="293" y="614"/>
      <point x="286" y="564" type="curve" smooth="yes"/>
      <point x="279" y="515"/>
      <point x="255" y="470"/>
    </contour>
    <contour>
      <point x="450" y="306" type="curve" smooth="yes"/>
      <point x="353" y="306"/>
      <point x="293" y="243"/>
      <point x="279" y="148" type="curve" smooth="yes"/>
      <point x="265" y="53"/>
      <point x="308" y="-15"/>
      <point x="401" y="-15" type="curve" smooth="yes"/>
      <point x="500" y="-15"/>
      <point x="559" y="49"/>
      <point x="573" y="144" type="curve" smooth="yes"/>
      <point x="587" y="239"/>
      <point x="543" y="306"/>
    </contour>
    <contour>
      <point x="440" y="240" type="curve" smooth="yes"/>
      <point x="492" y="240"/>
      <point x="501" y="195"/>
      <point x="494" y="146" type="curve" smooth="yes"/>
      <point x="487" y="96"/>
      <point x="463" y="52"/>
      <point x="411" y="52" type="curve" smooth="yes"/>
      <point x="358" y="52"/>
      <point x="350" y="96"/>
      <point x="357" y="146" type="curve" smooth="yes"/>
      <point x="364" y="195"/>
      <point x="387" y="240"/>
    </contour>
    <contour>
      <point x="634" y="710" type="line"/>
      <point x="558" y="710" type="line"/>
      <point x="16" y="10" type="line"/>
      <point x="15" y="0" type="line"/>
      <point x="91" y="0" type="line"/>
      <point x="633" y="700" type="line"/>
    </contour>
  </outline>
</glyph>
<glyph name="ampersand" format="2">
  <advance width="620"/>
  <unicode hex="0026"/>
  <outline>
    <contour>
      <point x="148" y="565" type="curve" smooth="yes"/>
      <point x="140" y="512"/>
      <point x="164" y="458"/>
      <point x="188" y="421" type="curve" smooth="yes"/>
      <point x="467" y="-16" type="line"/>
      <point x="545" y="33" type="line"/>
      <point x="282" y="442" type="line" smooth="yes"/>
      <point x="258" y="479"/>
      <point x="239" y="517"/>
      <point x="245" y="557" type="curve" smooth="yes"/>
      <point x="253" y="609"/>
      <point x="294" y="637"/>
      <point x="344" y="637" type="curve" smooth="yes"/>
      <point x="408" y="637"/>
      <point x="426" y="587"/>
      <point x="420" y="550" type="curve"/>
      <point x="516" y="550" type="line"/>
      <point x="530" y="640"/>
      <point x="474" y="725"/>
      <point x="361" y="725" type="curve" smooth="yes"/>
      <point x="232" y="725"/>
      <point x="162" y="654"/>
    </contour>
    <contour>
      <point x="498" y="403" type="line"/>
      <point x="395" y="189" type="line" smooth="yes"/>
      <point x="363" y="122"/>
      <point x="304" y="73"/>
      <point x="229" y="72" type="curve" smooth="yes"/>
      <point x="143" y="71"/>
      <point x="106" y="128"/>
      <point x="114" y="191" type="curve" smooth="yes"/>
      <point x="125" y="277"/>
      <point x="229" y="348"/>
      <point x="313" y="348" type="curve"/>
      <point x="278" y="410" type="line"/>
      <point x="162" y="410"/>
      <point x="36" y="321"/>
      <point x="17" y="194" type="curve" smooth="yes"/>
      <point x="-1" y="76"/>
      <point x="75" y="-16"/>
      <point x="216" y="-16" type="curve" smooth="yes"/>
      <point x="343" y="-16"/>
      <point x="417" y="55"/>
      <point x="454" y="128" type="curve" smooth="yes"/>
      <point x="589" y="393" type="line"/>
      <point x="591" y="403" type="line"/>
    </contour>
  </outline>
</glyph>
<glyph name="quotesingle" format="2">
  <advance width="620"/>
  <unicode hex="0027"/>
  <outline>
    <contour>
      <point x="314" y="710" type="line"/>
      <point x="309" y="438" type="line"/>
      <point x="364" y="438" type="line"/>
      <point x="443" y="710" type="line"/>
    </contour>
  </outline>
</glyph>
<glyph name="parenleft" format="2">
  <advance width="620"/>
  <unicode hex="0028"/>
  <outline>
    <contour>
      <point x="348" y="-132" type="curve"/>
      <point x="405" y="-45" type="line"/>
      <point x="272" y="30"/>
      <point x="207" y="165"/>
      <point x="231" y="317" type="curve" smooth="yes"/>
      <point x="252" y="449"/>
      <point x="365" y="588"/>
      <point x="527" y="679" type="curve"/>
      <point x="480" y="766" type="line"/>
      <point x="285" y="663"/>
      <point x="154" y="496"/>
      <point x="127" y="317" type="curve" smooth="yes"/>
      <point x="97" y="121"/>
      <point x="185" y="-40"/>
    </contour>
  </outline>
</glyph>
<glyph name="parenright" format="2">
  <advance width="620"/>
  <unicode hex="0029"/>
  <outline>
    <contour>
      <point x="286" y="766" type="curve"/>
      <point x="229" y="679" type="line"/>
      <point x="362" y="604"/>
      <point x="427" y="469"/>
      <point x="403" y="317" type="curve" smooth="yes"/>
      <point x="382" y="185"/>
      <point x="269" y="46"/>
      <point x="107" y="-45" type="curve"/>
      <point x="154" y="-132" type="line"/>
      <point x="349" y="-29"/>
      <point x="480" y="138"/>
      <point x="507" y="317" type="curve" smooth="yes"/>
      <point x="537" y="513"/>
      <point x="449" y="674"/>
    </contour>
  </outline>
</glyph>
<glyph name="asterisk" format="2">
  <advance width="620"/>
  <unicode hex="002A"/>
  <outline>
    <contour>
      <point x="294" y="533" type="line"/>
      <point x="280" y="291" type="line"/>
      <point x="335" y="290" type="line"/>
      <point x="395" y="533" type="line"/>
    </contour>
    <contour>
      <point x="539" y="408" type="line"/>
      <point x="304" y="315" type="line"/>
      <point x="314" y="263" type="line"/>
      <point x="554" y="314" type="line"/>
    </contour>
    <contour>
      <point x="114" y="410" type="line"/>
      <point x="69" y="316" type="line"/>
      <point x="295" y="262" type="line"/>
      <point x="321" y="316" type="line"/>
    </contour>
    <contour>
      <point x="100" y="121" type="line"/>
      <point x="176" y="62" type="line"/>
      <point x="332" y="273" type="line"/>
      <point x="288" y="308" type="line"/>
    </contour>
    <contour>
      <point x="467" y="116" type="line"/>
      <point x="332" y="307" type="line"/>
      <point x="286" y="276" type="line"/>
      <point x="380" y="59" type="line"/>
    </contour>
  </outline>
</glyph>
<glyph name="plus" format="2">
  <advance width="620"/>
  <unicode hex="002B"/>
  <outline>
    <contour>
      <point x="557" y="350" type="line"/>
      <point x="87" y="350" type="line"/>
      <point x="73" y="264" type="line"/>
      <point x="543" y="264" type="line"/>
    </contour>
    <contour>
      <point x="321" y="56" type="line"/>
      <point x="399" y="558" type="line"/>
      <point x="309" y="558" type="line"/>
      <point x="231" y="56" type="line"/>
    </contour>
  </outline>
</glyph>
<glyph name="comma" format="2">
  <advance width="620"/>
  <unicode hex="002C"/>
  <outline>
    <contour>
      <point x="212" y="46" type="line"/>
      <point x="101" y="-193" type="line"/>
      <point x="162" y="-193" type="line"/>
      <point x="328" y="28" type="line"/>
    </contour>
    <contour>
      <point x="271" y="0" type="curve" smooth="yes"/>
      <point x="311" y="0"/>
      <point x="344" y="34"/>
      <point x="344" y="76" type="curve" smooth="yes"/>
      <point x="344" y="116"/>
      <point x="311" y="151"/>
      <point x="271" y="151" type="curve" smooth="yes"/>
      <point x="228" y="151"/>
      <point x="194" y="116"/>
      <point x="194" y="76" type="curve" smooth="yes"/>
      <point x="194" y="34"/>
      <point x="228" y="0"/>
    </contour>
  </outline>
</glyph>
<glyph name="hyphen" format="2">
  <advance width="620"/>
  <unicode hex="002D"/>
  <outline>
    <contour>
      <point x="526" y="350" type="line"/>
      <point x="116" y="350" type="line"/>
      <point x="103" y="264" type="line"/>
      <point x="513" y="264" type="line"/>
    </contour>
  </outline>
</glyph>
<glyph name="period" format="2">
  <advance width="620"/>
  <unicode hex="002E"/>
  <outline>
    <contour>
      <point x="277" y="-19" type="curve" smooth="yes"/>
      <point x="323" y="-19"/>
      <point x="360" y="18"/>
      <point x="360" y="64" type="curve" smooth="yes"/>
      <point x="360" y="110"/>
      <point x="323" y="147"/>
      <point x="277" y="147" type="curve" smooth="yes"/>
      <point x="231" y="147"/>
      <point x="194" y="110"/>
      <point x="194" y="64" type="curve" smooth="yes"/>
      <point x="194" y="18"/>
      <point x="231" y="-19"/>
    </contour>
  </outline>
</glyph>
<glyph name="slash" format="2">
  <advance width="620"/>
  <unicode hex="002F"/>
  <outline>
    <contour>
      <point x="463" y="750" type="line"/>
      <point x="63" y="-110" type="line"/>
      <point x="62" y="-120" type="line"/>
      <point x="167" y="-120" type="line"/>
      <point x="567" y="740" type="line"/>
      <point x="568" y="750" type="line"/>
    </contour>
  </outline>
</glyph>
<glyph name="zero" format="2">
  <advance width="620"/>
  <unicode hex="0030"/>
  <outline>
    <contour>
      <point x="269" y="-16" type="curve" smooth="yes"/>
      <point x="475" y="-16"/>
      <point x="543" y="125"/>
      <point x="578" y="343" type="curve" smooth="yes"/>
      <point x="612" y="555"/>
      <point x="571" y="726"/>
      <point x="384" y="726" type="curve" smooth="yes"/>
      <point x="178" y="726"/>
      <point x="103" y="585"/>
      <point x="68" y="367" type="curve" smooth="yes"/>
      <point x="34" y="155"/>
      <point x="82" y="-16"/>
    </contour>
    <contour>
      <point x="281" y="73" type="curve" smooth="yes"/>
      <point x="135" y="73"/>
      <point x="140" y="199"/>
      <point x="165" y="360" type="curve" smooth="yes"/>
      <point x="190" y="520"/>
      <point x="233" y="637"/>
      <point x="369" y="637" type="curve" smooth="yes"/>
      <point x="515" y="637"/>
      <point x="506" y="512"/>
      <point x="481" y="352" type="curve" smooth="yes"/>
      <point x="456" y="191"/>
      <point x="413" y="73"/>
    </contour>
    <contour>
      <point x="96" y="100" type="line"/>
      <point x="183" y="100" type="line"/>
      <point x="556" y="610" type="line"/>
      <point x="469" y="609" type="line"/>
    </contour>
  </outline>
</glyph>
<glyph name="one" format="2">
  <advance width="620"/>
  <unicode hex="0031"/>
  <outline>
    <contour>
      <point x="327" y="640" type="line"/>
      <point x="217" y="0" type="line"/>
      <point x="318" y="0" type="line"/>
      <point x="438" y="710" type="line"/>
      <point x="350" y="710" type="line"/>
    </contour>
    <contour>
      <point x="509" y="88" type="line"/>
      <point x="61" y="88" type="line"/>
      <point x="47" y="0" type="line"/>
      <point x="495" y="0" type="line"/>
    </contour>
    <contour>
      <point x="350" y="710" type="line"/>
      <point x="303" y="642"/>
      <point x="218" y="611"/>
      <point x="134" y="594" type="curve"/>
      <point x="159" y="497" type="line"/>
      <point x="258" y="513"/>
      <point x="348" y="563"/>
      <point x="404" y="636" type="curve"/>
    </contour>
  </outline>
</glyph>
<glyph name="two" format="2">
  <advance width="620"/>
  <unicode hex="0032"/>
  <outline>
    <contour>
      <point x="54" y="89" type="line"/>
      <point x="40" y="0" type="line"/>
      <point x="509" y="0" type="line"/>
      <point x="523" y="89" type="line"/>
    </contour>
    <contour>
      <point x="119" y="651" type="curve"/>
      <point x="164" y="571" type="line"/>
      <point x="223" y="604"/>
      <point x="288" y="634"/>
      <point x="345" y="634" type="curve" smooth="yes"/>
      <point x="428" y="634"/>
      <point x="479" y="584"/>
      <point x="464" y="507" type="curve" smooth="yes"/>
      <point x="446" y="412"/>
      <point x="350" y="343"/>
      <point x="252" y="259" type="curve" smooth="yes"/>
      <point x="54" y="89" type="line"/>
      <point x="197" y="89" type="line"/>
      <point x="375" y="244" type="line" smooth="yes"/>
      <point x="455" y="314"/>
      <point x="548" y="399"/>
      <point x="565" y="494" type="curve" smooth="yes"/>
      <point x="590" y="633"/>
      <point x="498" y="724"/>
      <point x="362" y="724" type="curve" smooth="yes"/>
      <point x="267" y="724"/>
      <point x="185" y="689"/>
    </contour>
  </outline>
</glyph>
<glyph name="three" format="2">
  <advance width="620"/>
  <unicode hex="0033"/>
  <outline>
    <contour>
      <point x="519" y="164" type="curve" smooth="yes"/>
      <point x="499" y="56"/>
      <point x="403" y="-16"/>
      <point x="257" y="-16" type="curve" smooth="yes"/>
      <point x="177" y="-16"/>
      <point x="110" y="14"/>
      <point x="39" y="68" type="curve"/>
      <point x="95" y="137" type="line"/>
      <point x="135" y="105"/>
      <point x="202" y="71"/>
      <point x="268" y="71" type="curve" smooth="yes"/>
      <point x="338" y="71"/>
      <point x="408" y="110"/>
      <point x="420" y="178" type="curve" smooth="yes"/>
      <point x="434" y="256"/>
      <point x="379" y="319"/>
      <point x="273" y="319" type="curve" smooth="yes"/>
      <point x="265" y="319"/>
      <point x="251" y="319"/>
      <point x="228" y="319" type="curve"/>
      <point x="244" y="406" type="line"/>
      <point x="269" y="406"/>
      <point x="270" y="407"/>
      <point x="290" y="406" type="curve" smooth="yes"/>
      <point x="376" y="402"/>
      <point x="437" y="457"/>
      <point x="446" y="513" type="curve" smooth="yes"/>
      <point x="457" y="583"/>
      <point x="414" y="637"/>
      <point x="336" y="637" type="curve" smooth="yes"/>
      <point x="284" y="637"/>
      <point x="230" y="616"/>
      <point x="178" y="582" type="curve"/>
      <point x="125" y="650" type="line"/>
      <point x="190" y="697"/>
      <point x="261" y="724"/>
      <point x="344" y="724" type="curve" smooth="yes"/>
      <point x="480" y="724"/>
      <point x="562" y="624"/>
      <point x="544" y="511" type="curve" smooth="yes"/>
      <point x="533" y="441"/>
      <point x="483" y="391"/>
      <point x="414" y="361" type="curve"/>
      <point x="480" y="337"/>
      <point x="535" y="253"/>
    </contour>
  </outline>
</glyph>
<glyph name="four" format="2">
  <advance width="620"/>
  <unicode hex="0034"/>
  <outline>
    <contour>
      <point x="391" y="505" type="line"/>
      <point x="297" y="0" type="line"/>
      <point x="397" y="0" type="line"/>
      <point x="491" y="505" type="line"/>
    </contour>
    <contour>
      <point x="287" y="710" type="line"/>
      <point x="199" y="544"/>
      <point x="120" y="407"/>
      <point x="59" y="246" type="curve"/>
      <point x="166" y="246" type="line"/>
      <point x="229" y="400"/>
      <point x="306" y="537"/>
      <point x="392" y="700" type="curve"/>
      <point x="391" y="710" type="line"/>
    </contour>
    <contour>
      <point x="541" y="246" type="line"/>
      <point x="60" y="246" type="line"/>
      <point x="45" y="157" type="line"/>
      <point x="527" y="157" type="line"/>
    </contour>
  </outline>
</glyph>
<glyph name="five" format="2">
  <advance width="620"/>
  <unicode hex="0035"/>
  <outline>
    <contour>
      <point x="202" y="328" type="line"/>
      <point x="238" y="348"/>
      <point x="273" y="363"/>
      <point x="323" y="363" type="curve" smooth="yes"/>
      <point x="417" y="363"/>
      <point x="446" y="280"/>
      <point x="432" y="197" type="curve" smooth="yes"/>
      <point x="418" y="114"/>
      <point x="359" y="76"/>
      <point x="284" y="76" type="curve" smooth="yes"/>
      <point x="228" y="76"/>
      <point x="169" y="105"/>
      <point x="124" y="148" type="curve"/>
      <point x="58" y="83" type="line"/>
      <point x="117" y="28"/>
      <point x="197" y="-16"/>
      <point x="282" y="-16" type="curve" smooth="yes"/>
      <point x="402" y="-16"/>
      <point x="509" y="49"/>
      <point x="532" y="191" type="curve" smooth="yes"/>
      <point x="552" y="314"/>
      <point x="487" y="448"/>
      <point x="352" y="448" type="curve" smooth="yes"/>
      <point x="292" y="448"/>
      <point x="239" y="426"/>
      <point x="202" y="398" type="curve"/>
    </contour>
    <contour>
      <point x="180" y="710" type="line"/>
      <point x="180" y="622" type="line"/>
      <point x="543" y="622" type="line"/>
      <point x="557" y="710" type="line"/>
    </contour>
    <contour>
      <point x="268" y="710" type="line"/>
      <point x="180" y="710" type="line"/>
      <point x="114" y="328" type="line"/>
      <point x="202" y="328" type="line"/>
    </contour>
  </outline>
</glyph>
<glyph name="six" format="2">
  <advance width="620"/>
  <unicode hex="0036"/>
  <outline>
    <contour>
      <point x="68" y="267" type="curve" smooth="yes"/>
      <point x="36" y="69"/>
      <point x="156" y="-16"/>
      <point x="271" y="-16" type="curve" smooth="yes"/>
      <point x="395" y="-16"/>
      <point x="498" y="59"/>
      <point x="521" y="184" type="curve" smooth="yes"/>
      <point x="544" y="309"/>
      <point x="472" y="427"/>
      <point x="338" y="427" type="curve" smooth="yes"/>
      <point x="280" y="427"/>
      <point x="238" y="410"/>
      <point x="208" y="386" type="curve"/>
      <point x="255" y="469"/>
      <point x="329" y="556"/>
      <point x="451" y="651" type="curve"/>
      <point x="391" y="726" type="line"/>
      <point x="237" y="610"/>
      <point x="96" y="443"/>
    </contour>
    <contour>
      <point x="309" y="339" type="curve" smooth="yes"/>
      <point x="409" y="339"/>
      <point x="439" y="264"/>
      <point x="426" y="187" type="curve" smooth="yes"/>
      <point x="415" y="121"/>
      <point x="356" y="72"/>
      <point x="283" y="72" type="curve" smooth="yes"/>
      <point x="203" y="72"/>
      <point x="152" y="132"/>
      <point x="165" y="216" type="curve" smooth="yes"/>
      <point x="176" y="287"/>
      <point x="237" y="339"/>
    </contour>
  </outline>
</glyph>
<glyph name="seven" format="2">
  <advance width="620"/>
  <unicode hex="0037"/>
  <outline>
    <contour>
      <point x="135" y="710" type="line"/>
      <point x="125" y="646" type="line"/>
      <point x="599" y="646" type="line"/>
      <point x="609" y="710" type="line"/>
    </contour>
    <contour>
      <point x="599" y="646" type="curve"/>
      <point x="489" y="646" type="line"/>
      <point x="349" y="386"/>
      <point x="266" y="211"/>
      <point x="210" y="0" type="curve"/>
      <point x="317" y="0" type="line"/>
      <point x="373" y="211"/>
      <point x="459" y="390"/>
    </contour>
    <contour>
      <point x="223" y="646" type="line"/>
      <point x="125" y="646" type="line"/>
      <point x="100" y="486" type="line"/>
      <point x="198" y="486" type="line"/>
    </contour>
    <contour>
      <point x="222" y="710" type="line"/>
      <point x="208" y="622" type="line"/>
      <point x="490" y="622" type="line"/>
      <point x="504" y="710" type="line"/>
    </contour>
  </outline>
</glyph>
<glyph name="eight" format="2">
  <advance width="620"/>
  <unicode hex="0038"/>
  <outline>
    <contour>
      <point x="277" y="-16" type="curve" smooth="yes"/>
      <point x="402" y="-16"/>
      <point x="526" y="33"/>
      <point x="551" y="182" type="curve" smooth="yes"/>
      <point x="566" y="274"/>
      <point x="493" y="340"/>
      <point x="441" y="362" type="curve"/>
      <point x="508" y="394"/>
      <point x="559" y="443"/>
      <point x="574" y="534" type="curve" smooth="yes"/>
      <point x="588" y="621"/>
      <point x="521" y="725"/>
      <point x="382" y="725" type="curve" smooth="yes"/>
      <point x="224" y="725"/>
      <point x="148" y="625"/>
      <point x="134" y="538" type="curve" smooth="yes"/>
      <point x="120" y="450"/>
      <point x="164" y="399"/>
      <point x="212" y="369" type="curve"/>
      <point x="140" y="346"/>
      <point x="74" y="289"/>
      <point x="61" y="203" type="curve" smooth="yes"/>
      <point x="41" y="70"/>
      <point x="152" y="-16"/>
    </contour>
    <contour>
      <point x="159" y="201" type="curve" smooth="yes"/>
      <point x="170" y="270"/>
      <point x="234" y="318"/>
      <point x="320" y="318" type="curve" smooth="yes"/>
      <point x="403" y="318"/>
      <point x="458" y="259"/>
      <point x="448" y="189" type="curve" smooth="yes"/>
      <point x="437" y="108"/>
      <point x="372" y="72"/>
      <point x="286" y="72" type="curve" smooth="yes"/>
      <point x="205" y="72"/>
      <point x="147" y="124"/>
    </contour>
    <contour>
      <point x="230" y="527" type="curve" smooth="yes"/>
      <point x="237" y="575"/>
      <point x="281" y="637"/>
      <point x="369" y="637" type="curve" smooth="yes"/>
      <point x="459" y="637"/>
      <point x="484" y="575"/>
      <point x="476" y="527" type="curve" smooth="yes"/>
      <point x="465" y="458"/>
      <point x="410" y="413"/>
      <point x="335" y="413" type="curve" smooth="yes"/>
      <point x="264" y="413"/>
      <point x="220" y="459"/>
    </contour>
  </outline>
</glyph>
<glyph name="nine" format="2">
  <advance width="620"/>
  <unicode hex="0039"/>
  <outline>
    <contour>
      <point x="97" y="517" type="curve" smooth="yes"/>
      <point x="77" y="390"/>
      <point x="153" y="279"/>
      <point x="279" y="279" type="curve" smooth="yes"/>
      <point x="347" y="279"/>
      <point x="405" y="308"/>
      <point x="434" y="346" type="curve"/>
      <point x="391" y="243"/>
      <point x="267" y="135"/>
      <point x="150" y="63" type="curve"/>
      <point x="201" y="-16" type="line"/>
      <point x="371" y="93"/>
      <point x="517" y="228"/>
      <point x="552" y="425" type="curve" smooth="yes"/>
      <point x="577" y="569"/>
      <point x="532" y="726"/>
      <point x="353" y="726" type="curve" smooth="yes"/>
      <point x="200" y="726"/>
      <point x="114" y="622"/>
    </contour>
    <contour>
      <point x="301" y="363" type="curve" smooth="yes"/>
      <point x="210" y="363"/>
      <point x="179" y="444"/>
      <point x="192" y="512" type="curve" smooth="yes"/>
      <point x="207" y="589"/>
      <point x="269" y="640"/>
      <point x="338" y="640" type="curve" smooth="yes"/>
      <point x="432" y="640"/>
      <point x="467" y="559"/>
      <point x="454" y="486" type="curve" smooth="yes"/>
      <point x="442" y="416"/>
      <point x="375" y="363"/>
    </contour>
  </outline>
</glyph>
<glyph name="colon" format="2">
  <advance width="620"/>
  <unicode hex="003A"/>
  <outline>
    <contour>
      <point x="282" y="0" type="curve" smooth="yes"/>
      <point x="323" y="0"/>
      <point x="357" y="34"/>
      <point x="357" y="75" type="curve" smooth="yes"/>
      <point x="357" y="116"/>
      <point x="323" y="150"/>
      <point x="282" y="150" type="curve" smooth="yes"/>
      <point x="241" y="150"/>
      <point x="207" y="116"/>
      <point x="207" y="75" type="curve" smooth="yes"/>
      <point x="207" y="34"/>
      <point x="241" y="0"/>
    </contour>
    <contour>
      <point x="337" y="397" type="curve" smooth="yes"/>
      <point x="378" y="397"/>
      <point x="412" y="431"/>
      <point x="412" y="472" type="curve" smooth="yes"/>
      <point x="412" y="513"/>
      <point x="378" y="547"/>
      <point x="337" y="547" type="curve" smooth="yes"/>
      <point x="296" y="547"/>
      <point x="262" y="513"/>
      <point x="262" y="472" type="curve" smooth="yes"/>
      <point x="262" y="431"/>
      <point x="296" y="397"/>
    </contour>
  </outline>
</glyph>
<glyph name="semicolon" format="2">
  <advance width="620"/>
  <unicode hex="003B"/>
  <outline>
    <contour>
      <point x="338" y="400" type="curve" smooth="yes"/>
      <point x="379" y="400"/>
      <point x="413" y="434"/>
      <point x="413" y="475" type="curve" smooth="yes"/>
      <point x="413" y="516"/>
      <point x="379" y="550"/>
      <point x="338" y="550" type="curve" smooth="yes"/>
      <point x="297" y="550"/>
      <point x="263" y="516"/>
      <point x="263" y="475" type="curve" smooth="yes"/>
      <point x="263" y="434"/>
      <point x="297" y="400"/>
    </contour>
    <contour>
      <point x="284" y="0" type="curve" smooth="yes"/>
      <point x="324" y="0"/>
      <point x="357" y="34"/>
      <point x="357" y="76" type="curve" smooth="yes"/>
      <point x="357" y="116"/>
      <point x="324" y="151"/>
      <point x="284" y="151" type="curve" smooth="yes"/>
      <point x="241" y="151"/>
      <point x="207" y="116"/>
      <point x="207" y="76" type="curve" smooth="yes"/>
      <point x="207" y="34"/>
      <point x="241" y="0"/>
    </contour>
    <contour>
      <point x="225" y="28" type="line"/>
      <point x="114" y="-193" type="line"/>
      <point x="175" y="-193" type="line"/>
      <point x="341" y="28" type="line"/>
    </contour>
  </outline>
</glyph>
<glyph name="less" format="2">
  <advance width="620"/>
  <unicode hex="003C"/>
  <outline>
    <contour>
      <point x="468" y="16" type="line"/>
      <point x="482" y="105" type="line"/>
      <point x="133" y="321" type="line"/>
      <point x="101" y="356" type="line"/>
      <point x="86" y="256" type="line"/>
      <point x="458" y="16" type="line"/>
    </contour>
    <contour>
      <point x="560" y="602" type="line"/>
      <point x="550" y="602" type="line"/>
      <point x="101" y="356" type="line"/>
      <point x="101" y="264" type="line"/>
      <point x="543" y="497" type="line"/>
    </contour>
  </outline>
</glyph>
<glyph name="equal" format="2">
  <advance width="620"/>
  <unicode hex="003D"/>
  <outline>
    <contour>
      <point x="536" y="250" type="line"/>
      <point x="66" y="250" type="line"/>
      <point x="52" y="164" type="line"/>
      <point x="522" y="164" type="line"/>
    </contour>
    <contour>
      <point x="568" y="452" type="line"/>
      <point x="98" y="452" type="line"/>
      <point x="84" y="366" type="line"/>
      <point x="554" y="366" type="line"/>
    </contour>
  </outline>
</glyph>
<glyph name="question" format="2">
  <advance width="620"/>
  <unicode hex="003F"/>
  <outline>
    <contour>
      <point x="248" y="210" type="line"/>
      <point x="347" y="210" type="line"/>
      <point x="355" y="248" type="line" smooth="yes"/>
      <point x="377" y="352"/>
      <point x="587" y="360"/>
      <point x="612" y="516" type="curve" smooth="yes"/>
      <point x="629" y="622"/>
      <point x="534" y="726"/>
      <point x="366" y="726" type="curve" smooth="yes"/>
      <point x="258" y="726"/>
      <point x="161" y="681"/>
      <point x="102" y="630" type="curve"/>
      <point x="161" y="554" type="line"/>
      <point x="213" y="597"/>
      <point x="284" y="629"/>
      <point x="357" y="629" type="curve" smooth="yes"/>
      <point x="457" y="629"/>
      <point x="520" y="573"/>
      <point x="508" y="516" type="curve" smooth="yes"/>
      <point x="491" y="432"/>
      <point x="280" y="402"/>
      <point x="256" y="258" type="curve" smooth="yes"/>
    </contour>
    <contour>
      <point x="287" y="-27" type="curve" smooth="yes"/>
      <point x="328" y="-27"/>
      <point x="363" y="8"/>
      <point x="363" y="49" type="curve" smooth="yes"/>
      <point x="363" y="90"/>
      <point x="328" y="125"/>
      <point x="287" y="125" type="curve" smooth="yes"/>
      <point x="246" y="125"/>
      <point x="211" y="90"/>
      <point x="211" y="49" type="curve" smooth="yes"/>
      <point x="211" y="8"/>
      <point x="246" y="-27"/>
    </contour>
  </outline>
</glyph>
<glyph name="at" format="2">
  <advance width="620"/>
  <unicode hex="0040"/>
  <outline>
    <contour>
      <point x="149" y="-14" type="curve" smooth="yes"/>
      <point x="263" y="-14"/>
      <point x="339" y="99"/>
      <point x="357" y="222" type="curve" smooth="yes"/>
      <point x="377" y="357"/>
      <point x="361" y="494"/>
      <point x="252" y="494" type="curve" smooth="yes"/>
      <point x="133" y="494"/>
      <point x="55" y="361"/>
      <point x="27" y="236" type="curve" smooth="yes"/>
      <point x="2" y="124"/>
      <point x="28" y="-14"/>
    </contour>
    <contour>
      <point x="168" y="71" type="curve" smooth="yes"/>
      <point x="95" y="71"/>
      <point x="85" y="146"/>
      <point x="104" y="232" type="curve" smooth="yes"/>
      <point x="122" y="313"/>
      <point x="169" y="408"/>
      <point x="240" y="408" type="curve" smooth="yes"/>
      <point x="329" y="408"/>
      <point x="334" y="297"/>
      <point x="321" y="220" type="curve" smooth="yes"/>
      <point x="308" y="143"/>
      <point x="238" y="71"/>
    </contour>
    <contour>
      <point x="346" y="143" type="line"/>
      <point x="416" y="491" type="line"/>
      <point x="348" y="492" type="line"/>
      <point x="330" y="452" type="line"/>
      <point x="254" y="48" type="line"/>
      <point x="297" y="84" type="line"/>
    </contour>
    <contour>
      <point x="346" y="143" type="curve"/>
      <point x="273" y="71" type="line"/>
      <point x="278" y="31"/>
      <point x="307" y="-16"/>
      <point x="372" y="-16" type="curve" smooth="yes"/>
      <point x="508" y="-16"/>
      <point x="563" y="182"/>
      <point x="584" y="323" type="curve" smooth="yes"/>
      <point x="615" y="529"/>
      <point x="564" y="726"/>
      <point x="356" y="726" type="curve" smooth="yes"/>
      <point x="272" y="726"/>
      <point x="173" y="689"/>
      <point x="86" y="628" type="curve"/>
      <point x="132" y="553" type="line"/>
      <point x="198" y="597"/>
      <point x="273" y="637"/>
      <point x="345" y="636" type="curve" smooth="yes"/>
      <point x="496" y="634"/>
      <point x="521" y="485"/>
      <point x="493" y="322" type="curve" smooth="yes"/>
      <point x="463" y="149"/>
      <point x="426" y="68"/>
      <point x="381" y="68" type="curve" smooth="yes"/>
      <point x="357" y="68"/>
      <point x="338" y="88"/>
    </contour>
  </outline>
</glyph>
<glyph name="A" format="2">
  <advance width="620"/>
  <unicode hex="0041"/>
  <anchor x="260" y="0" name="bottom"/>
  <anchor x="535" y="0" name="ogonek"/>
  <anchor x="355" y="710" name="top"/>
  <outline>
    <contour>
      <point x="-6" y="6" type="curve"/>
      <point x="-6" y="0" type="line"/>
      <point x="94" y="0" type="line"/>
      <point x="200" y="291"/>
      <point x="297" y="518"/>
      <point x="404" y="710" type="curve"/>
      <point x="304" y="710" type="line"/>
      <point x="197" y="518"/>
      <point x="100" y="297"/>
    </contour>
    <contour>
      <point x="535" y="0" type="line"/>
      <point x="503" y="302"/>
      <point x="460" y="500"/>
      <point x="412" y="710" type="curve"/>
      <point x="318" y="710" type="line"/>
      <point x="366" y="500"/>
      <point x="402" y="302"/>
      <point x="434" y="0" type="curve"/>
    </contour>
    <contour>
      <point x="145" y="258" type="line"/>
      <point x="145" y="170" type="line"/>
      <point x="445" y="170" type="line"/>
      <point x="445" y="258" type="line"/>
    </contour>
  </outline>
</glyph>
<glyph name="B" format="2">
  <advance width="620"/>
  <unicode hex="0042"/>
  <anchor x="263" y="0" name="bottom"/>
  <anchor x="310" y="355" name="center"/>
  <anchor x="355" y="710" name="top"/>
  <outline>
    <contour>
      <point x="148" y="710" type="line"/>
      <point x="34" y="0" type="line"/>
      <point x="132" y="0" type="line"/>
      <point x="246" y="710" type="line"/>
    </contour>
    <contour>
      <point x="176" y="413" type="curve"/>
      <point x="166" y="349" type="line"/>
      <point x="233" y="349"/>
      <point x="263" y="349"/>
      <point x="316" y="349" type="curve" smooth="yes"/>
      <point x="452" y="349"/>
      <point x="550" y="404"/>
      <point x="569" y="524" type="curve" smooth="yes"/>
      <point x="585" y="624"/>
      <point x="501" y="710"/>
      <point x="357" y="710" type="curve" smooth="yes"/>
      <point x="317" y="710"/>
      <point x="299" y="710"/>
      <point x="209" y="710" type="curve"/>
      <point x="195" y="622" type="line"/>
      <point x="288" y="622"/>
      <point x="303" y="622"/>
      <point x="345" y="622" type="curve" smooth="yes"/>
      <point x="441" y="622"/>
      <point x="480" y="571"/>
      <point x="472" y="517" type="curve" smooth="yes"/>
      <point x="462" y="451"/>
      <point x="416" y="413"/>
      <point x="326" y="413" type="curve" smooth="yes"/>
      <point x="273" y="413"/>
      <point x="244" y="413"/>
    </contour>
    <contour>
      <point x="131" y="88" type="curve"/>
      <point x="116" y="0" type="line"/>
      <point x="183" y="0"/>
      <point x="223" y="0"/>
      <point x="276" y="0" type="curve" smooth="yes"/>
      <point x="427" y="0"/>
      <point x="535" y="47"/>
      <point x="558" y="186" type="curve" smooth="yes"/>
      <point x="573" y="278"/>
      <point x="498" y="386"/>
      <point x="325" y="386" type="curve" smooth="yes"/>
      <point x="285" y="386"/>
      <point x="245" y="386"/>
      <point x="171" y="386" type="curve"/>
      <point x="162" y="325" type="line"/>
      <point x="237" y="325"/>
      <point x="274" y="325"/>
      <point x="316" y="325" type="curve" smooth="yes"/>
      <point x="420" y="325"/>
      <point x="473" y="275"/>
      <point x="460" y="196" type="curve" smooth="yes"/>
      <point x="448" y="123"/>
      <point x="394" y="88"/>
      <point x="285" y="88" type="curve" smooth="yes"/>
      <point x="232" y="88"/>
      <point x="199" y="88"/>
    </contour>
  </outline>
</glyph>
<glyph name="C" format="2">
  <advance width="620"/>
  <unicode hex="0043"/>
  <anchor x="310" y="0" name="bottom"/>
  <anchor x="345" y="726" name="top"/>
  <outline>
    <contour>
      <point x="308" y="-16" type="curve" smooth="yes"/>
      <point x="398" y="-16"/>
      <point x="482" y="11"/>
      <point x="566" y="65" type="curve"/>
      <point x="521" y="143" type="line"/>
      <point x="460" y="106"/>
      <point x="397" y="77"/>
      <point x="320" y="77" type="curve" smooth="yes"/>
      <point x="169" y="77"/>
      <point x="116" y="195"/>
      <point x="141" y="370" type="curve" smooth="yes"/>
      <point x="164" y="533"/>
      <point x="237" y="633"/>
      <point x="348" y="633" type="curve" smooth="yes"/>
      <point x="432" y="633"/>
      <point x="464" y="587"/>
      <point x="490" y="526" type="curve"/>
      <point x="571" y="563" type="line"/>
      <point x="536" y="661"/>
      <point x="458" y="726"/>
      <point x="355" y="726" type="curve" smooth="yes"/>
      <point x="192" y="726"/>
      <point x="80" y="621"/>
      <point x="41" y="380" type="curve" smooth="yes"/>
      <point x="4" y="154"/>
      <point x="104" y="-16"/>
    </contour>
  </outline>
</glyph>
<glyph name="D" format="2">
  <advance width="620"/>
  <unicode hex="0044"/>
  <anchor x="237" y="0" name="bottom"/>
  <anchor x="324" y="710" name="top"/>
  <outline>
    <contour>
      <point x="127" y="710" type="line"/>
      <point x="12" y="0" type="line"/>
      <point x="110" y="0" type="line"/>
      <point x="225" y="710" type="line"/>
    </contour>
    <contour>
      <point x="124" y="89" type="curve"/>
      <point x="109" y="0" type="line"/>
      <point x="133" y="0"/>
      <point x="184" y="0"/>
      <point x="208" y="0" type="curve" smooth="yes"/>
      <point x="413" y="0"/>
      <point x="548" y="117"/>
      <point x="587" y="355" type="curve" smooth="yes"/>
      <point x="622" y="567"/>
      <point x="509" y="709"/>
      <point x="330" y="710" type="curve" smooth="yes"/>
      <point x="295" y="710"/>
      <point x="263" y="710"/>
      <point x="224" y="710" type="curve"/>
      <point x="210" y="621" type="line"/>
      <point x="251" y="621"/>
      <point x="279" y="621"/>
      <point x="311" y="621" type="curve" smooth="yes"/>
      <point x="460" y="621"/>
      <point x="510" y="499"/>
      <point x="488" y="354" type="curve" smooth="yes"/>
      <point x="468" y="221"/>
      <point x="388" y="89"/>
      <point x="206" y="89" type="curve" smooth="yes"/>
      <point x="186" y="89"/>
      <point x="150" y="89"/>
    </contour>
  </outline>
</glyph>
<glyph name="E" format="2">
  <advance width="620"/>
  <unicode hex="0045"/>
  <anchor x="283" y="0" name="bottom"/>
  <anchor x="517" y="0" name="ogonek"/>
  <anchor x="367" y="710" name="top"/>
  <outline>
    <contour>
      <point x="524" y="414" type="line"/>
      <point x="131" y="414" type="line"/>
      <point x="131" y="326" type="line"/>
      <point x="509" y="326" type="line"/>
    </contour>
    <contour>
      <point x="583" y="710" type="line"/>
      <point x="199" y="710" type="line"/>
      <point x="199" y="622" type="line"/>
      <point x="566" y="622" type="line"/>
    </contour>
    <contour>
      <point x="528" y="88" type="line"/>
      <point x="131" y="88" type="line"/>
      <point x="116" y="0" type="line"/>
      <point x="513" y="0" type="line"/>
    </contour>
    <contour>
      <point x="161" y="710" type="line"/>
      <point x="49" y="0" type="line"/>
      <point x="149" y="0" type="line"/>
      <point x="261" y="710" type="line"/>
    </contour>
  </outline>
</glyph>
<glyph name="F" format="2">
  <advance width="620"/>
  <unicode hex="0046"/>
  <anchor x="277" y="0" name="bottom"/>
  <anchor x="380" y="710" name="top"/>
  <outline>
    <contour>
      <point x="157" y="710" type="line"/>
      <point x="43" y="0" type="line"/>
      <point x="143" y="0" type="line"/>
      <point x="257" y="710" type="line"/>
    </contour>
    <contour>
      <point x="526" y="403" type="line"/>
      <point x="182" y="403" type="line"/>
      <point x="182" y="315" type="line"/>
      <point x="511" y="315" type="line"/>
    </contour>
    <contour>
      <point x="614" y="710" type="line"/>
      <point x="183" y="710" type="line"/>
      <point x="183" y="622" type="line"/>
      <point x="599" y="622" type="line"/>
    </contour>
  </outline>
</glyph>
<glyph name="G" format="2">
  <advance width="620"/>
  <unicode hex="0047"/>
  <anchor x="309" y="0" name="bottom"/>
  <anchor x="350" y="710" name="top"/>
  <outline>
    <contour>
      <point x="348" y="319" type="line"/>
      <point x="335" y="232" type="line"/>
      <point x="475" y="232" type="line"/>
      <point x="449" y="64" type="line"/>
      <point x="546" y="64" type="line"/>
      <point x="583" y="319" type="line"/>
    </contour>
    <contour>
      <point x="298" y="-16" type="curve" smooth="yes"/>
      <point x="384" y="-16"/>
      <point x="469" y="7"/>
      <point x="546" y="64" type="curve"/>
      <point x="523" y="146" type="line"/>
      <point x="462" y="104"/>
      <point x="387" y="75"/>
      <point x="311" y="75" type="curve" smooth="yes"/>
      <point x="170" y="75"/>
      <point x="117" y="202"/>
      <point x="142" y="377" type="curve" smooth="yes"/>
      <point x="165" y="536"/>
      <point x="250" y="635"/>
      <point x="373" y="635" type="curve" smooth="yes"/>
      <point x="439" y="635"/>
      <point x="485" y="614"/>
      <point x="540" y="578" type="curve"/>
      <point x="589" y="650" type="line"/>
      <point x="543" y="687"/>
      <point x="473" y="727"/>
      <point x="372" y="726" type="curve" smooth="yes"/>
      <point x="199" y="724"/>
      <point x="80" y="610"/>
      <point x="42" y="379" type="curve" smooth="yes"/>
      <point x="6" y="160"/>
      <point x="102" y="-16"/>
    </contour>
  </outline>
</glyph>
<glyph name="H" format="2">
  <advance width="620"/>
  <unicode hex="0048"/>
  <anchor x="265" y="0" name="bottom"/>
  <anchor x="372" y="710" name="top"/>
  <outline>
    <contour>
      <point x="536" y="415" type="line"/>
      <point x="162" y="415" type="line"/>
      <point x="154" y="325" type="line"/>
      <point x="528" y="325" type="line"/>
    </contour>
    <contour>
      <point x="146" y="710" type="line"/>
      <point x="33" y="0" type="line"/>
      <point x="134" y="0" type="line"/>
      <point x="247" y="710" type="line"/>
    </contour>
    <contour>
      <point x="511" y="710" type="line"/>
      <point x="398" y="0" type="line"/>
      <point x="499" y="0" type="line"/>
      <point x="612" y="710" type="line"/>
    </contour>
  </outline>
</glyph>
<glyph name="I" format="2">
  <advance width="620"/>
  <unicode hex="0049"/>
  <anchor x="259" y="0" name="bottom"/>
  <anchor x="486" y="0" name="ogonek"/>
  <anchor x="376" y="710" name="top"/>
  <outline>
    <contour>
      <point x="217" y="0" type="line"/>
      <point x="317" y="0" type="line"/>
      <point x="428" y="710" type="line"/>
      <point x="328" y="710" type="line"/>
    </contour>
    <contour>
      <point x="580" y="622" type="line"/>
      <point x="594" y="710" type="line"/>
      <point x="162" y="710" type="line"/>
      <point x="148" y="622" type="line"/>
    </contour>
    <contour>
      <point x="486" y="0" type="line"/>
      <point x="500" y="88" type="line"/>
      <point x="60" y="88" type="line"/>
      <point x="49" y="0" type="line"/>
    </contour>
  </outline>
</glyph>
<glyph name="J" format="2">
  <advance width="620"/>
  <unicode hex="004A"/>
  <anchor x="271" y="-16" name="bottom"/>
  <anchor x="418" y="710" name="top"/>
  <outline>
    <contour>
      <point x="588" y="710" type="line"/>
      <point x="490" y="710" type="line"/>
      <point x="412" y="215" type="line" smooth="yes"/>
      <point x="395" y="109"/>
      <point x="338" y="73"/>
      <point x="262" y="73" type="curve" smooth="yes"/>
      <point x="209" y="73"/>
      <point x="142" y="107"/>
      <point x="95" y="145" type="curve"/>
      <point x="36" y="74" type="line"/>
      <point x="114" y="13"/>
      <point x="188" y="-16"/>
      <point x="274" y="-16" type="curve" smooth="yes"/>
      <point x="367" y="-16"/>
      <point x="481" y="20"/>
      <point x="507" y="202" type="curve" smooth="yes"/>
    </contour>
    <contour>
      <point x="240" y="710" type="line"/>
      <point x="240" y="622" type="line"/>
      <point x="573" y="622" type="line"/>
      <point x="588" y="710" type="line"/>
    </contour>
  </outline>
</glyph>
<glyph name="K" format="2">
  <advance width="620"/>
  <unicode hex="004B"/>
  <anchor x="250" y="0" name="bottom"/>
  <anchor x="335" y="710" name="top"/>
  <outline>
    <contour>
      <point x="121" y="0" type="line"/>
      <point x="233" y="710" type="line"/>
      <point x="133" y="710" type="line"/>
      <point x="21" y="0" type="line"/>
    </contour>
    <contour>
      <point x="95" y="161" type="line"/>
      <point x="584" y="700" type="line"/>
      <point x="584" y="710" type="line"/>
      <point x="469" y="710" type="line"/>
      <point x="117" y="325" type="line"/>
    </contour>
    <contour>
      <point x="266" y="405" type="curve"/>
      <point x="182" y="345" type="line"/>
      <point x="261" y="215"/>
      <point x="358" y="87"/>
      <point x="435" y="0" type="curve"/>
      <point x="561" y="0" type="line"/>
      <point x="561" y="10" type="line"/>
      <point x="455" y="121"/>
      <point x="344" y="266"/>
    </contour>
  </outline>
</glyph>
<glyph name="L" format="2">
  <advance width="620"/>
  <unicode hex="004C"/>
  <anchor x="260" y="0" name="bottom"/>
  <anchor x="207" y="355" name="center"/>
  <anchor x="208" y="710" name="top"/>
  <anchor x="264" y="710" name="topright"/>
  <outline>
    <contour>
      <point x="166" y="710" type="line"/>
      <point x="54" y="0" type="line"/>
      <point x="152" y="0" type="line"/>
      <point x="264" y="710" type="line"/>
    </contour>
    <contour>
      <point x="508" y="88" type="line"/>
      <point x="86" y="88" type="line"/>
      <point x="70" y="0" type="line"/>
      <point x="492" y="0" type="line"/>
    </contour>
  </outline>
</glyph>
<glyph name="M" format="2">
  <advance width="620"/>
  <unicode hex="004D"/>
  <anchor x="260" y="0" name="bottom"/>
  <anchor x="350" y="710" name="top"/>
  <outline>
    <contour>
      <point x="262" y="260" type="curve"/>
      <point x="347" y="260" type="line"/>
      <point x="435" y="413"/>
      <point x="530" y="557"/>
      <point x="652" y="710" type="curve"/>
      <point x="536" y="710" type="line"/>
      <point x="435" y="570"/>
      <point x="339" y="418"/>
    </contour>
    <contour>
      <point x="100" y="710" type="line"/>
      <point x="-12" y="0" type="line"/>
      <point x="88" y="0" type="line"/>
      <point x="200" y="710" type="line"/>
    </contour>
    <contour>
      <point x="557" y="710" type="line"/>
      <point x="445" y="0" type="line"/>
      <point x="545" y="0" type="line"/>
      <point x="657" y="710" type="line"/>
    </contour>
    <contour>
      <point x="340" y="260" type="line"/>
      <point x="309" y="422"/>
      <point x="266" y="570"/>
      <point x="210" y="710" type="curve"/>
      <point x="108" y="710" type="line"/>
      <point x="179" y="565"/>
      <point x="220" y="420"/>
      <point x="262" y="260" type="curve"/>
    </contour>
  </outline>
</glyph>
<glyph name="N" format="2">
  <advance width="620"/>
  <unicode hex="004E"/>
  <anchor x="260" y="0" name="bottom"/>
  <anchor x="380" y="710" name="top"/>
  <outline>
    <contour>
      <point x="519" y="0" type="line"/>
      <point x="244" y="710" type="line"/>
      <point x="132" y="710" type="line"/>
      <point x="409" y="0" type="line"/>
    </contour>
    <contour>
      <point x="123" y="710" type="line"/>
      <point x="10" y="0" type="line"/>
      <point x="110" y="0" type="line"/>
      <point x="223" y="710" type="line"/>
    </contour>
    <contour>
      <point x="535" y="710" type="line"/>
      <point x="422" y="0" type="line"/>
      <point x="522" y="0" type="line"/>
      <point x="635" y="710" type="line"/>
    </contour>
  </outline>
</glyph>
<glyph name="O" format="2">
  <advance width="620"/>
  <unicode hex="004F"/>
  <anchor x="247" y="0" name="bottom"/>
  <anchor x="360" y="0" name="ogonek"/>
  <anchor x="350" y="710" name="top"/>
  <anchor x="506" y="668" name="topright"/>
  <outline>
    <contour>
      <point x="645" y="466" type="curve"/>
      <point x="603" y="537" type="line"/>
      <point x="539" y="498"/>
      <point x="474" y="476"/>
      <point x="426" y="476" type="curve" smooth="yes"/>
      <point x="349" y="476"/>
      <point x="311" y="526"/>
      <point x="316" y="585" type="curve" smooth="yes"/>
      <point x="319" y="619"/>
      <point x="349" y="642"/>
      <point x="385" y="641" type="curve" smooth="yes"/>
      <point x="482" y="638"/>
      <point x="496" y="497"/>
      <point x="472" y="345" type="curve" smooth="yes"/>
      <point x="439" y="140"/>
      <point x="371" y="73"/>
      <point x="267" y="73" type="curve" smooth="yes"/>
      <point x="130" y="73"/>
      <point x="108" y="205"/>
      <point x="131" y="366" type="curve" smooth="yes"/>
      <point x="155" y="533"/>
      <point x="221" y="648"/>
      <point x="339" y="648" type="curve"/>
      <point x="347" y="721" type="line"/>
      <point x="166" y="721"/>
      <point x="69" y="599"/>
      <point x="34" y="369" type="curve" smooth="yes"/>
      <point x="-4" y="120"/>
      <point x="81" y="-16"/>
      <point x="260" y="-16" type="curve" smooth="yes"/>
      <point x="465" y="-16"/>
      <point x="538" y="138"/>
      <point x="570" y="341" type="curve" smooth="yes"/>
      <point x="599" y="523"/>
      <point x="552" y="734"/>
      <point x="391" y="734" type="curve" smooth="yes"/>
      <point x="268" y="734"/>
      <point x="235" y="656"/>
      <point x="228" y="595" type="curve" smooth="yes"/>
      <point x="216" y="496"/>
      <point x="279" y="395"/>
      <point x="410" y="395" type="curve" smooth="yes"/>
      <point x="492" y="395"/>
      <point x="560" y="412"/>
    </contour>
  </outline>
</glyph>
<glyph name="P" format="2">
  <advance width="620"/>
  <unicode hex="0050"/>
  <anchor x="235" y="0" name="bottom"/>
  <anchor x="335" y="710" name="top"/>
  <outline>
    <contour>
      <point x="130" y="710" type="line"/>
      <point x="20" y="0" type="line"/>
      <point x="118" y="0" type="line"/>
      <point x="228" y="710" type="line"/>
    </contour>
    <contour>
      <point x="137" y="348" type="curve"/>
      <point x="137" y="259" type="line"/>
      <point x="204" y="259"/>
      <point x="258" y="259"/>
      <point x="311" y="259" type="curve" smooth="yes"/>
      <point x="492" y="259"/>
      <point x="582" y="347"/>
      <point x="602" y="479" type="curve" smooth="yes"/>
      <point x="623" y="621"/>
      <point x="529" y="710"/>
      <point x="352" y="710" type="curve" smooth="yes"/>
      <point x="312" y="710"/>
      <point x="261" y="710"/>
      <point x="187" y="710" type="curve"/>
      <point x="187" y="622" type="line"/>
      <point x="262" y="622"/>
      <point x="317" y="622"/>
      <point x="359" y="622" type="curve" smooth="yes"/>
      <point x="501" y="622"/>
      <point x="517" y="555"/>
      <point x="506" y="479" type="curve" smooth="yes"/>
      <point x="491" y="376"/>
      <point x="407" y="348"/>
      <point x="311" y="348" type="curve" smooth="yes"/>
      <point x="258" y="348"/>
      <point x="205" y="348"/>
    </contour>
  </outline>
</glyph>
<glyph name="Q" format="2">
  <advance width="620"/>
  <unicode hex="0051"/>
  <anchor x="266" y="0" name="bottom"/>
  <anchor x="346" y="710" name="top"/>
  <outline>
    <contour>
      <point x="542" y="-44" type="curve"/>
      <point x="559" y="38" type="line"/>
      <point x="497" y="50"/>
      <point x="477" y="89"/>
      <point x="458" y="116" type="curve" smooth="yes"/>
      <point x="403" y="193"/>
      <point x="350" y="266"/>
      <point x="261" y="266" type="curve" smooth="yes"/>
      <point x="203" y="266"/>
      <point x="131" y="235"/>
      <point x="79" y="192" type="curve"/>
      <point x="124" y="124" type="line"/>
      <point x="165" y="160"/>
      <point x="210" y="185"/>
      <point x="253" y="185" type="curve" smooth="yes"/>
      <point x="318" y="185"/>
      <point x="359" y="94"/>
      <point x="417" y="24" type="curve" smooth="yes"/>
      <point x="447" y="-12"/>
      <point x="489" y="-37"/>
    </contour>
    <contour>
      <point x="278" y="-16" type="curve" smooth="yes"/>
      <point x="455" y="-16"/>
      <point x="539" y="79"/>
      <point x="583" y="352" type="curve" smooth="yes"/>
      <point x="621" y="588"/>
      <point x="522" y="726"/>
      <point x="352" y="726" type="curve" smooth="yes"/>
      <point x="150" y="726"/>
      <point x="71" y="571"/>
      <point x="41" y="363" type="curve" smooth="yes"/>
      <point x="8" y="136"/>
      <point x="113" y="-16"/>
    </contour>
    <contour>
      <point x="283" y="73" type="curve" smooth="yes"/>
      <point x="156" y="73"/>
      <point x="117" y="202"/>
      <point x="140" y="363" type="curve" smooth="yes"/>
      <point x="164" y="530"/>
      <point x="226" y="637"/>
      <point x="346" y="637" type="curve" smooth="yes"/>
      <point x="471" y="637"/>
      <point x="507" y="538"/>
      <point x="484" y="352" type="curve" smooth="yes"/>
      <point x="462" y="172"/>
      <point x="409" y="73"/>
    </contour>
    <contour>
      <point x="278" y="-16" type="curve" smooth="yes"/>
      <point x="455" y="-16"/>
      <point x="539" y="79"/>
      <point x="583" y="352" type="curve" smooth="yes"/>
      <point x="621" y="588"/>
      <point x="531" y="726"/>
      <point x="352" y="726" type="curve" smooth="yes"/>
      <point x="150" y="726"/>
      <point x="71" y="571"/>
      <point x="41" y="363" type="curve" smooth="yes"/>
      <point x="8" y="136"/>
      <point x="103" y="-16"/>
    </contour>
    <contour>
      <point x="283" y="73" type="curve" smooth="yes"/>
      <point x="156" y="73"/>
      <point x="117" y="202"/>
      <point x="140" y="363" type="curve" smooth="yes"/>
      <point x="164" y="530"/>
      <point x="224" y="637"/>
      <point x="344" y="637" type="curve" smooth="yes"/>
      <point x="470" y="637"/>
      <point x="507" y="538"/>
      <point x="484" y="352" type="curve" smooth="yes"/>
      <point x="462" y="172"/>
      <point x="415" y="73"/>
    </contour>
  </outline>
</glyph>
<glyph name="R" format="2">
  <advance width="620"/>
  <unicode hex="0052"/>
  <anchor x="270" y="0" name="bottom"/>
  <anchor x="330" y="710" name="top"/>
  <outline>
    <contour>
      <point x="135" y="710" type="line"/>
      <point x="23" y="0" type="line"/>
      <point x="123" y="0" type="line"/>
      <point x="235" y="710" type="line"/>
    </contour>
    <contour>
      <point x="142" y="370" type="curve"/>
      <point x="142" y="282" type="line"/>
      <point x="189" y="282"/>
      <point x="275" y="282"/>
      <point x="328" y="282" type="curve" smooth="yes"/>
      <point x="491" y="282"/>
      <point x="572" y="358"/>
      <point x="593" y="491" type="curve" smooth="yes"/>
      <point x="615" y="630"/>
      <point x="531" y="710"/>
      <point x="368" y="710" type="curve" smooth="yes"/>
      <point x="328" y="710"/>
      <point x="266" y="710"/>
      <point x="212" y="710" type="curve"/>
      <point x="212" y="622" type="line"/>
      <point x="267" y="622"/>
      <point x="326" y="622"/>
      <point x="368" y="622" type="curve" smooth="yes"/>
      <point x="468" y="622"/>
      <point x="509" y="578"/>
      <point x="497" y="491" type="curve" smooth="yes"/>
      <point x="487" y="419"/>
      <point x="428" y="370"/>
      <point x="328" y="370" type="curve" smooth="yes"/>
      <point x="275" y="370"/>
      <point x="190" y="370"/>
    </contour>
    <contour>
      <point x="361" y="330" type="curve"/>
      <point x="259" y="330" type="line"/>
      <point x="310" y="200"/>
      <point x="382" y="80"/>
      <point x="437" y="0" type="curve"/>
      <point x="556" y="0" type="line"/>
      <point x="556" y="10" type="line"/>
      <point x="475" y="107"/>
      <point x="413" y="208"/>
    </contour>
  </outline>
</glyph>
<glyph name="S" format="2">
  <advance width="620"/>
  <unicode hex="0053"/>
  <anchor x="293" y="0" name="bottom"/>
  <anchor x="350" y="710" name="top"/>
  <outline>
    <contour>
      <point x="106" y="197" type="curve"/>
      <point x="28" y="136" type="line"/>
      <point x="98" y="41"/>
      <point x="201" y="-16"/>
      <point x="309" y="-16" type="curve" smooth="yes"/>
      <point x="430" y="-16"/>
      <point x="542" y="39"/>
      <point x="559" y="150" type="curve" smooth="yes"/>
      <point x="589" y="350"/>
      <point x="194" y="423"/>
      <point x="215" y="552" type="curve" smooth="yes"/>
      <point x="224" y="608"/>
      <point x="282" y="634"/>
      <point x="354" y="634" type="curve" smooth="yes"/>
      <point x="419" y="634"/>
      <point x="483" y="596"/>
      <point x="527" y="547" type="curve"/>
      <point x="591" y="609" type="line"/>
      <point x="542" y="670"/>
      <point x="453" y="726"/>
      <point x="361" y="726" type="curve" smooth="yes"/>
      <point x="236" y="726"/>
      <point x="133" y="670"/>
      <point x="115" y="559" type="curve" smooth="yes"/>
      <point x="83" y="359"/>
      <point x="475" y="291"/>
      <point x="459" y="166" type="curve" smooth="yes"/>
      <point x="451" y="102"/>
      <point x="369" y="79"/>
      <point x="315" y="79" type="curve" smooth="yes"/>
      <point x="239" y="79"/>
      <point x="161" y="124"/>
    </contour>
  </outline>
</glyph>
<glyph name="T" format="2">
  <advance width="620"/>
  <unicode hex="0054"/>
  <anchor x="263" y="0" name="bottom"/>
  <anchor x="377" y="710" name="top"/>
  <outline>
    <contour>
      <point x="217" y="0" type="line"/>
      <point x="315" y="0" type="line"/>
      <point x="428" y="710" type="line"/>
      <point x="330" y="710" type="line"/>
    </contour>
    <contour>
      <point x="624" y="622" type="line"/>
      <point x="639" y="710" type="line"/>
      <point x="119" y="710" type="line"/>
      <point x="104" y="622" type="line"/>
    </contour>
  </outline>
</glyph>
<glyph name="U" format="2">
  <advance width="620"/>
  <unicode hex="0055"/>
  <anchor x="264" y="0" name="bottom"/>
  <anchor x="370" y="0" name="ogonek"/>
  <anchor x="373" y="710" name="top"/>
  <anchor x="623" y="710" name="topright"/>
  <outline>
    <contour>
      <point x="533" y="710" type="line"/>
      <point x="467" y="277" type="line" smooth="yes"/>
      <point x="446" y="138"/>
      <point x="367" y="83"/>
      <point x="282" y="83" type="curve" smooth="yes"/>
      <point x="200" y="83"/>
      <point x="137" y="147"/>
      <point x="157" y="277" type="curve" smooth="yes"/>
      <point x="223" y="710" type="line"/>
      <point x="124" y="710" type="line"/>
      <point x="59" y="282" type="line" smooth="yes"/>
      <point x="27" y="71"/>
      <point x="160" y="-15"/>
      <point x="277" y="-15" type="curve" smooth="yes"/>
      <point x="401" y="-15"/>
      <point x="530" y="41"/>
      <point x="566" y="277" type="curve" smooth="yes"/>
      <point x="632" y="710" type="line"/>
    </contour>
  </outline>
</glyph>
<glyph name="V" format="2">
  <advance width="620"/>
  <unicode hex="0056"/>
  <anchor x="254" y="0" name="bottom"/>
  <anchor x="366" y="710" name="top"/>
  <outline>
    <contour>
      <point x="104" y="710" type="line"/>
      <point x="124" y="406"/>
      <point x="158" y="170"/>
      <point x="214" y="0" type="curve"/>
      <point x="309" y="0" type="line"/>
      <point x="254" y="170"/>
      <point x="225" y="406"/>
      <point x="205" y="710" type="curve"/>
    </contour>
    <contour>
      <point x="649" y="710" type="curve"/>
      <point x="547" y="710" type="line"/>
      <point x="431" y="406"/>
      <point x="329" y="170"/>
      <point x="225" y="0" type="curve"/>
      <point x="322" y="0" type="line"/>
      <point x="429" y="170"/>
      <point x="533" y="406"/>
    </contour>
  </outline>
</glyph>
<glyph name="W" format="2">
  <advance width="620"/>
  <unicode hex="0057"/>
  <anchor x="278" y="0" name="bottom"/>
  <anchor x="370" y="710" name="top"/>
  <outline>
    <contour>
      <point x="90" y="710" type="line"/>
      <point x="53" y="395"/>
      <point x="54" y="159"/>
      <point x="70" y="0" type="curve"/>
      <point x="162" y="0" type="line"/>
      <point x="148" y="159"/>
      <point x="149" y="395"/>
      <point x="189" y="710" type="curve"/>
    </contour>
    <contour>
      <point x="379" y="473" type="line"/>
      <point x="292" y="473" type="line"/>
      <point x="107" y="0" type="line"/>
      <point x="204" y="0" type="line"/>
    </contour>
    <contour>
      <point x="298" y="473" type="line"/>
      <point x="352" y="0" type="line"/>
      <point x="449" y="0" type="line"/>
      <point x="385" y="473" type="line"/>
    </contour>
    <contour>
      <point x="650" y="710" type="curve"/>
      <point x="551" y="710" type="line"/>
      <point x="515" y="396"/>
      <point x="456" y="159"/>
      <point x="394" y="0" type="curve"/>
      <point x="486" y="0" type="line"/>
      <point x="550" y="159"/>
      <point x="611" y="396"/>
    </contour>
  </outline>
</glyph>
<glyph name="X" format="2">
  <advance width="620"/>
  <unicode hex="0058"/>
  <anchor x="250" y="0" name="bottom"/>
  <anchor x="370" y="710" name="top"/>
  <outline>
    <contour>
      <point x="637" y="710" type="line"/>
      <point x="525" y="710" type="line"/>
      <point x="264" y="343" type="line"/>
      <point x="376" y="343" type="line"/>
      <point x="637" y="700" type="line"/>
    </contour>
    <contour>
      <point x="126" y="710" type="line"/>
      <point x="126" y="700" type="line"/>
      <point x="270" y="343" type="line"/>
      <point x="373" y="343" type="line"/>
      <point x="229" y="710" type="line"/>
    </contour>
    <contour>
      <point x="2" y="0" type="line"/>
      <point x="114" y="0" type="line"/>
      <point x="380" y="367" type="line"/>
      <point x="268" y="367" type="line"/>
      <point x="2" y="10" type="line"/>
    </contour>
    <contour>
      <point x="519" y="0" type="line"/>
      <point x="519" y="10" type="line"/>
      <point x="372" y="367" type="line"/>
      <point x="269" y="367" type="line"/>
      <point x="416" y="0" type="line"/>
    </contour>
  </outline>
</glyph>
<glyph name="Y" format="2">
  <advance width="620"/>
  <unicode hex="0059"/>
  <anchor x="250" y="0" name="bottom"/>
  <anchor x="354" y="710" name="top"/>
  <anchor x="96" y="710" name="topleft"/>
  <outline>
    <contour>
      <point x="95" y="710" type="line"/>
      <point x="95" y="700" type="line"/>
      <point x="254" y="283" type="line"/>
      <point x="345" y="283" type="line"/>
      <point x="199" y="710" type="line"/>
    </contour>
    <contour>
      <point x="638" y="710" type="line"/>
      <point x="530" y="710" type="line"/>
      <point x="275" y="331" type="line"/>
      <point x="348" y="280" type="line"/>
      <point x="638" y="700" type="line"/>
    </contour>
    <contour>
      <point x="253" y="292" type="line"/>
      <point x="208" y="0" type="line"/>
      <point x="308" y="0" type="line"/>
      <point x="353" y="292" type="line"/>
    </contour>
  </outline>
</glyph>
<glyph name="Z" format="2">
  <advance width="620"/>
  <unicode hex="005A"/>
  <anchor x="274" y="0" name="bottom"/>
  <anchor x="354" y="710" name="top"/>
  <outline>
    <contour>
      <point x="125" y="710" type="line"/>
      <point x="111" y="622" type="line"/>
      <point x="582" y="622" type="line"/>
      <point x="596" y="710" type="line"/>
    </contour>
    <contour>
      <point x="29" y="103" type="line"/>
      <point x="149" y="90" type="line"/>
      <point x="582" y="622" type="line"/>
      <point x="455" y="622" type="line"/>
    </contour>
    <contour>
      <point x="29" y="102" type="curve"/>
      <point x="16" y="16" type="line"/>
      <point x="22" y="16" type="line"/>
      <point x="171" y="33"/>
      <point x="266" y="-16"/>
      <point x="352" y="-16" type="curve" smooth="yes"/>
      <point x="437" y="-16"/>
      <point x="500" y="6"/>
      <point x="570" y="50" type="curve"/>
      <point x="530" y="125" type="line"/>
      <point x="471" y="93"/>
      <point x="414" y="74"/>
      <point x="351" y="74" type="curve" smooth="yes"/>
      <point x="256" y="74"/>
      <point x="189" y="124"/>
    </contour>
  </outline>
</glyph>
<glyph name="bracketleft" format="2">
  <advance width="620"/>
  <unicode hex="005B"/>
  <outline>
    <contour>
      <point x="259" y="750" type="line"/>
      <point x="123" y="-120" type="line"/>
      <point x="221" y="-120" type="line"/>
      <point x="357" y="750" type="line"/>
    </contour>
    <contour>
      <point x="543" y="750" type="line"/>
      <point x="286" y="750" type="line"/>
      <point x="273" y="664" type="line"/>
      <point x="530" y="664" type="line"/>
    </contour>
    <contour>
      <point x="418" y="-34" type="line"/>
      <point x="163" y="-34" type="line"/>
      <point x="150" y="-120" type="line"/>
      <point x="405" y="-120" type="line"/>
    </contour>
  </outline>
</glyph>
<glyph name="backslash" format="2">
  <advance width="620"/>
  <unicode hex="005C"/>
  <outline>
    <contour>
      <point x="302" y="750" type="line"/>
      <point x="204" y="750" type="line"/>
      <point x="203" y="740" type="line"/>
      <point x="333" y="-120" type="line"/>
      <point x="431" y="-120" type="line"/>
      <point x="432" y="-110" type="line"/>
    </contour>
  </outline>
</glyph>
<glyph name="bracketright" format="2">
  <advance width="620"/>
  <unicode hex="005D"/>
  <outline>
    <contour>
      <point x="374" y="-120" type="line"/>
      <point x="510" y="750" type="line"/>
      <point x="412" y="750" type="line"/>
      <point x="276" y="-120" type="line"/>
    </contour>
    <contour>
      <point x="90" y="-120" type="line"/>
      <point x="347" y="-120" type="line"/>
      <point x="360" y="-34" type="line"/>
      <point x="103" y="-34" type="line"/>
    </contour>
    <contour>
      <point x="215" y="664" type="line"/>
      <point x="470" y="664" type="line"/>
      <point x="483" y="750" type="line"/>
      <point x="228" y="750" type="line"/>
    </contour>
  </outline>
</glyph>
<glyph name="asciicircum" format="2">
  <advance width="620"/>
  <unicode hex="005E"/>
  <outline>
    <contour>
      <point x="98" y="420" type="line"/>
      <point x="193" y="420" type="line"/>
      <point x="409" y="750" type="line"/>
      <point x="319" y="750" type="line"/>
      <point x="98" y="430" type="line"/>
    </contour>
    <contour>
      <point x="534" y="420" type="line"/>
      <point x="534" y="430" type="line"/>
      <point x="410" y="750" type="line"/>
      <point x="332" y="750" type="line"/>
      <point x="445" y="420" type="line"/>
    </contour>
  </outline>
</glyph>
<glyph name="underscore" format="2">
  <advance width="620"/>
  <unicode hex="005F"/>
  <outline>
    <contour>
      <point x="510" y="0" type="line"/>
      <point x="24" y="0" type="line"/>
      <point x="10" y="-86" type="line"/>
      <point x="496" y="-86" type="line"/>
    </contour>
  </outline>
</glyph>
<glyph name="a" format="2">
  <advance width="620"/>
  <unicode hex="0061"/>
  <anchor x="261" y="0" name="bottom"/>
  <anchor x="544" y="-8" name="ogonek"/>
  <anchor x="346" y="550" name="top"/>
  <outline>
    <contour>
      <point x="476" y="136" type="curve" smooth="yes"/>
      <point x="527" y="445" type="line"/>
      <point x="509" y="501"/>
      <point x="441" y="566"/>
      <point x="352" y="566" type="curve" smooth="yes"/>
      <point x="212" y="566"/>
      <point x="88" y="461"/>
      <point x="60" y="292" type="curve" smooth="yes"/>
      <point x="39" y="167"/>
      <point x="65" y="-16"/>
      <point x="254" y="-16" type="curve" smooth="yes"/>
      <point x="303" y="-16"/>
      <point x="362" y="6"/>
      <point x="398" y="45" type="curve"/>
      <point x="419" y="3"/>
      <point x="486" y="-11"/>
      <point x="545" y="-8" type="curve"/>
      <point x="558" y="75" type="line"/>
      <point x="485" y="77"/>
      <point x="470" y="100"/>
    </contour>
    <contour>
      <point x="151" y="264" type="curve" smooth="yes"/>
      <point x="171" y="383"/>
      <point x="250" y="473"/>
      <point x="336" y="475" type="curve" smooth="yes"/>
      <point x="381" y="476"/>
      <point x="414" y="452"/>
      <point x="427" y="428" type="curve"/>
      <point x="383" y="145" type="line"/>
      <point x="360" y="100"/>
      <point x="311" y="74"/>
      <point x="260" y="74" type="curve" smooth="yes"/>
      <point x="157" y="74"/>
      <point x="138" y="184"/>
    </contour>
  </outline>
</glyph>
<glyph name="b" format="2">
  <advance width="620"/>
  <unicode hex="0062"/>
  <anchor x="270" y="0" name="bottom"/>
  <anchor x="400" y="750" name="top"/>
  <outline>
    <contour>
      <point x="324" y="-16" type="curve" smooth="yes"/>
      <point x="465" y="-16"/>
      <point x="540" y="106"/>
      <point x="563" y="255" type="curve" smooth="yes"/>
      <point x="585" y="400"/>
      <point x="520" y="558"/>
      <point x="379" y="558" type="curve" smooth="yes"/>
      <point x="236" y="558"/>
      <point x="158" y="406"/>
      <point x="141" y="278" type="curve" smooth="yes"/>
      <point x="122" y="138"/>
      <point x="192" y="-16"/>
    </contour>
    <contour>
      <point x="313" y="72" type="curve" smooth="yes"/>
      <point x="226" y="72"/>
      <point x="176" y="188"/>
      <point x="189" y="278" type="curve" smooth="yes"/>
      <point x="201" y="359"/>
      <point x="262" y="470"/>
      <point x="362" y="470" type="curve" smooth="yes"/>
      <point x="453" y="470"/>
      <point x="483" y="362"/>
      <point x="467" y="257" type="curve" smooth="yes"/>
      <point x="452" y="158"/>
      <point x="403" y="72"/>
    </contour>
    <contour>
      <point x="184" y="703" type="line"/>
      <point x="73" y="0" type="line"/>
      <point x="171" y="0" type="line"/>
      <point x="284" y="727" type="line"/>
    </contour>
    <contour>
      <point x="284" y="727" type="curve"/>
      <point x="240" y="750" type="line"/>
      <point x="211" y="726"/>
      <point x="174" y="708"/>
      <point x="96" y="708" type="curve"/>
      <point x="85" y="637" type="line"/>
      <point x="179" y="637"/>
      <point x="232" y="647"/>
    </contour>
  </outline>
</glyph>
<glyph name="c" format="2">
  <advance width="620"/>
  <unicode hex="0063"/>
  <anchor x="278" y="0" name="bottom"/>
  <anchor x="342" y="550" name="top"/>
  <outline>
    <contour>
      <point x="303" y="-16" type="curve" smooth="yes"/>
      <point x="377" y="-16"/>
      <point x="454" y="10"/>
      <point x="521" y="56" type="curve"/>
      <point x="478" y="129" type="line"/>
      <point x="428" y="98"/>
      <point x="368" y="71"/>
      <point x="306" y="71" type="curve" smooth="yes"/>
      <point x="194" y="71"/>
      <point x="133" y="151"/>
      <point x="151" y="281" type="curve" smooth="yes"/>
      <point x="166" y="389"/>
      <point x="217" y="475"/>
      <point x="318" y="475" type="curve" smooth="yes"/>
      <point x="378" y="475"/>
      <point x="420" y="435"/>
      <point x="442" y="388" type="curve"/>
      <point x="521" y="422" type="line"/>
      <point x="489" y="501"/>
      <point x="420" y="564"/>
      <point x="327" y="564" type="curve" smooth="yes"/>
      <point x="164" y="564"/>
      <point x="80" y="451"/>
      <point x="57" y="290" type="curve" smooth="yes"/>
      <point x="29" y="96"/>
      <point x="132" y="-16"/>
    </contour>
  </outline>
</glyph>
<glyph name="d" format="2">
  <advance width="620"/>
  <unicode hex="0064"/>
  <anchor x="270" y="0" name="bottom"/>
  <anchor x="390" y="750" name="top"/>
  <outline>
    <contour>
      <point x="357" y="72" type="line"/>
      <point x="368" y="63" type="line"/>
      <point x="384" y="22"/>
      <point x="417" y="-13"/>
      <point x="524" y="-9" type="curve"/>
      <point x="540" y="75" type="line"/>
      <point x="465" y="80"/>
      <point x="450" y="96"/>
      <point x="462" y="169" type="curve" smooth="yes"/>
      <point x="555" y="750" type="line"/>
      <point x="458" y="750" type="line"/>
    </contour>
    <contour>
      <point x="445" y="25" type="curve"/>
      <point x="404" y="94" type="line"/>
      <point x="363" y="76"/>
      <point x="318" y="67"/>
      <point x="278" y="69" type="curve" smooth="yes"/>
      <point x="180" y="74"/>
      <point x="115" y="174"/>
      <point x="134" y="303" type="curve" smooth="yes"/>
      <point x="151" y="417"/>
      <point x="221" y="471"/>
      <point x="293" y="471" type="curve" smooth="yes"/>
      <point x="353" y="471"/>
      <point x="416" y="425"/>
      <point x="419" y="378" type="curve"/>
      <point x="461" y="378" type="line"/>
      <point x="474" y="460"/>
      <point x="415" y="557"/>
      <point x="293" y="559" type="curve" smooth="yes"/>
      <point x="186" y="561"/>
      <point x="69" y="492"/>
      <point x="41" y="321" type="curve" smooth="yes"/>
      <point x="11" y="135"/>
      <point x="118" y="-14"/>
      <point x="273" y="-16" type="curve" smooth="yes"/>
      <point x="339" y="-17"/>
      <point x="393" y="-1"/>
    </contour>
  </outline>
</glyph>
<glyph name="e" format="2">
  <advance width="620"/>
  <unicode hex="0065"/>
  <anchor x="308" y="0" name="bottom"/>
  <anchor x="468" y="5" name="ogonek"/>
  <anchor x="332" y="550" name="top"/>
  <outline>
    <contour>
      <point x="560" y="35" type="curve"/>
      <point x="527" y="112" type="line"/>
      <point x="470" y="88"/>
      <point x="421" y="71"/>
      <point x="352" y="71" type="curve" smooth="yes"/>
      <point x="251" y="71"/>
      <point x="178" y="128"/>
      <point x="170" y="262" type="curve" smooth="yes"/>
      <point x="163" y="384"/>
      <point x="239" y="478"/>
      <point x="336" y="478" type="curve" smooth="yes"/>
      <point x="417" y="478"/>
      <point x="465" y="417"/>
      <point x="471" y="355" type="curve"/>
      <point x="385" y="308"/>
      <point x="235" y="270"/>
      <point x="23" y="267" type="curve"/>
      <point x="25" y="181" type="line"/>
      <point x="252" y="183"/>
      <point x="419" y="228"/>
      <point x="558" y="299" type="curve"/>
      <point x="574" y="436"/>
      <point x="489" y="566"/>
      <point x="338" y="566" type="curve" smooth="yes"/>
      <point x="177" y="566"/>
      <point x="68" y="428"/>
      <point x="75" y="264" type="curve" smooth="yes"/>
      <point x="83" y="83"/>
      <point x="190" y="-15"/>
      <point x="354" y="-15" type="curve" smooth="yes"/>
      <point x="430" y="-15"/>
      <point x="502" y="8"/>
    </contour>
  </outline>
</glyph>
<glyph name="f" format="2">
  <advance width="620"/>
  <unicode hex="0066"/>
  <outline>
    <contour>
      <point x="97" y="489" type="line"/>
      <point x="85" y="401" type="line"/>
      <point x="558" y="401" type="line"/>
      <point x="570" y="489" type="line"/>
    </contour>
    <contour>
      <point x="294" y="571" type="curve" smooth="yes"/>
      <point x="266" y="376"/>
      <point x="238" y="172"/>
      <point x="210" y="-23" type="curve" smooth="yes"/>
      <point x="204" y="-65"/>
      <point x="193" y="-110"/>
      <point x="122" y="-110" type="curve" smooth="yes"/>
      <point x="15" y="-110" type="line"/>
      <point x="2" y="-200" type="line"/>
      <point x="157" y="-200" type="line" smooth="yes"/>
      <point x="275" y="-200"/>
      <point x="291" y="-124"/>
      <point x="305" y="-23" type="curve" smooth="yes"/>
      <point x="387" y="561" type="line" smooth="yes"/>
      <point x="396" y="628"/>
      <point x="424" y="678"/>
      <point x="506" y="678" type="curve" smooth="yes"/>
      <point x="540" y="678"/>
      <point x="587" y="661"/>
      <point x="622" y="639" type="curve"/>
      <point x="677" y="710" type="line"/>
      <point x="627" y="744"/>
      <point x="559" y="766"/>
      <point x="502" y="766" type="curve" smooth="yes"/>
      <point x="453" y="766"/>
      <point x="324" y="753"/>
      <point x="299" y="604" type="curve" smooth="yes"/>
      <point x="296" y="587"/>
      <point x="296" y="588"/>
    </contour>
  </outline>
</glyph>
<glyph name="g" format="2">
  <advance width="620"/>
  <unicode hex="0067"/>
  <anchor x="219" y="-200" name="bottom"/>
  <anchor x="355" y="550" name="top"/>
  <outline>
    <contour>
      <point x="489" y="199" type="curve"/>
      <point x="425" y="199" type="line"/>
      <point x="411" y="154"/>
      <point x="359" y="110"/>
      <point x="293" y="112" type="curve" smooth="yes"/>
      <point x="212" y="115"/>
      <point x="170" y="199"/>
      <point x="185" y="298" type="curve" smooth="yes"/>
      <point x="200" y="394"/>
      <point x="258" y="474"/>
      <point x="347" y="476" type="curve" smooth="yes"/>
      <point x="400" y="477"/>
      <point x="439" y="445"/>
      <point x="450" y="409" type="curve"/>
      <point x="497" y="409" type="line"/>
      <point x="497" y="499"/>
      <point x="440" y="566"/>
      <point x="353" y="566" type="curve" smooth="yes"/>
      <point x="228" y="566"/>
      <point x="114" y="472"/>
      <point x="87" y="303" type="curve" smooth="yes"/>
      <point x="68" y="184"/>
      <point x="123" y="24"/>
      <point x="281" y="24" type="curve" smooth="yes"/>
      <point x="391" y="24"/>
      <point x="472" y="98"/>
    </contour>
    <contour>
      <point x="96" y="-65" type="curve"/>
      <point x="46" y="-139" type="line"/>
      <point x="95" y="-175"/>
      <point x="171" y="-216"/>
      <point x="251" y="-216" type="curve" smooth="yes"/>
      <point x="398" y="-216"/>
      <point x="457" y="-113"/>
      <point x="477" y="8" type="curve" smooth="yes"/>
      <point x="566" y="550" type="line"/>
      <point x="486" y="550" type="line"/>
      <point x="457" y="495" type="line"/>
      <point x="386" y="8" type="line" smooth="yes"/>
      <point x="378" y="-45"/>
      <point x="352" y="-129"/>
      <point x="249" y="-129" type="curve" smooth="yes"/>
      <point x="191" y="-129"/>
      <point x="139" y="-95"/>
    </contour>
  </outline>
</glyph>
<glyph name="h" format="2">
  <advance width="620"/>
  <unicode hex="0068"/>
  <anchor x="293" y="0" name="bottom"/>
  <anchor x="379" y="750" name="top"/>
  <outline>
    <contour>
      <point x="179" y="694" type="line"/>
      <point x="71" y="0" type="line"/>
      <point x="170" y="0" type="line"/>
      <point x="278" y="727" type="line"/>
    </contour>
    <contour>
      <point x="184" y="443" type="curve"/>
      <point x="184" y="366" type="line"/>
      <point x="250" y="419"/>
      <point x="312" y="454"/>
      <point x="369" y="454" type="curve" smooth="yes"/>
      <point x="423" y="454"/>
      <point x="442" y="415"/>
      <point x="431" y="339" type="curve" smooth="yes"/>
      <point x="399" y="124" type="line" smooth="yes"/>
      <point x="383" y="17"/>
      <point x="462" y="-16"/>
      <point x="530" y="-16" type="curve"/>
      <point x="544" y="66" type="line"/>
      <point x="504" y="69"/>
      <point x="486" y="91"/>
      <point x="493" y="129" type="curve" smooth="yes"/>
      <point x="531" y="344" type="line" smooth="yes"/>
      <point x="554" y="473"/>
      <point x="502" y="543"/>
      <point x="411" y="544" type="curve" smooth="yes"/>
      <point x="337" y="545"/>
      <point x="245" y="493"/>
    </contour>
    <contour>
      <point x="277" y="727" type="curve"/>
      <point x="233" y="750" type="line"/>
      <point x="204" y="726"/>
      <point x="167" y="708"/>
      <point x="89" y="708" type="curve"/>
      <point x="78" y="637" type="line"/>
      <point x="172" y="637"/>
      <point x="225" y="647"/>
    </contour>
  </outline>
</glyph>
<glyph name="i" format="2">
  <advance width="620"/>
  <unicode hex="0069"/>
  <anchor x="273" y="0" name="bottom"/>
  <anchor x="444" y="5" name="ogonek"/>
  <anchor x="313" y="550" name="top"/>
  <outline>
    <contour>
      <point x="324" y="606" type="curve" smooth="yes"/>
      <point x="369" y="606"/>
      <point x="404" y="641"/>
      <point x="404" y="686" type="curve" smooth="yes"/>
      <point x="404" y="730"/>
      <point x="369" y="766"/>
      <point x="324" y="766" type="curve" smooth="yes"/>
      <point x="281" y="766"/>
      <point x="244" y="730"/>
      <point x="244" y="686" type="curve" smooth="yes"/>
      <point x="244" y="641"/>
      <point x="281" y="606"/>
    </contour>
    <component base="idotless"/>
  </outline>
</glyph>
<glyph name="j" format="2">
  <advance width="620"/>
  <unicode hex="006A"/>
  <anchor x="228" y="-200" name="bottom"/>
  <anchor x="374" y="550" name="top"/>
  <outline>
    <contour>
      <point x="406" y="598" type="curve" smooth="yes"/>
      <point x="451" y="598"/>
      <point x="486" y="633"/>
      <point x="486" y="678" type="curve" smooth="yes"/>
      <point x="486" y="722"/>
      <point x="451" y="758"/>
      <point x="406" y="758" type="curve" smooth="yes"/>
      <point x="363" y="758"/>
      <point x="326" y="722"/>
      <point x="326" y="678" type="curve" smooth="yes"/>
      <point x="326" y="633"/>
      <point x="363" y="598"/>
    </contour>
    <component base="jdotless"/>
  </outline>
</glyph>
<glyph name="k" format="2">
  <advance width="620"/>
  <unicode hex="006B"/>
  <anchor x="269" y="0" name="bottom"/>
  <anchor x="389" y="750" name="top"/>
  <outline>
    <contour>
      <point x="145" y="0" type="line"/>
      <point x="263" y="750" type="line"/>
      <point x="164" y="750" type="line"/>
      <point x="46" y="0" type="line"/>
    </contour>
    <contour>
      <point x="305" y="327" type="line"/>
      <point x="234" y="262" type="line"/>
      <point x="414" y="0" type="line"/>
      <point x="527" y="0" type="line"/>
      <point x="528" y="10" type="line"/>
    </contour>
    <contour>
      <point x="161" y="167" type="line"/>
      <point x="571" y="540" type="line"/>
      <point x="573" y="550" type="line"/>
      <point x="451" y="550" type="line"/>
      <point x="182" y="304" type="line"/>
    </contour>
  </outline>
</glyph>
<glyph name="l" format="2">
  <advance width="620"/>
  <unicode hex="006C"/>
  <anchor x="264" y="0" name="bottom"/>
  <anchor x="331" y="355" name="center"/>
  <anchor x="358" y="750" name="top"/>
  <anchor x="392" y="750" name="topright"/>
  <outline>
    <contour>
      <point x="286" y="700" type="line"/>
      <point x="204" y="177" type="line" smooth="yes"/>
      <point x="187" y="71"/>
      <point x="230" y="0"/>
      <point x="337" y="0" type="curve" smooth="yes"/>
      <point x="473" y="0" type="line"/>
      <point x="487" y="92" type="line"/>
      <point x="371" y="92" type="line" smooth="yes"/>
      <point x="320" y="92"/>
      <point x="294" y="114"/>
      <point x="304" y="177" type="curve" smooth="yes"/>
      <point x="394" y="750" type="line"/>
    </contour>
    <contour>
      <point x="175" y="750" type="line"/>
      <point x="166" y="693" type="line"/>
      <point x="379" y="655" type="line"/>
      <point x="392" y="750" type="line"/>
    </contour>
  </outline>
</glyph>
<glyph name="m" format="2">
  <advance width="620"/>
  <unicode hex="006D"/>
  <anchor x="250" y="0" name="bottom"/>
  <anchor x="360" y="550" name="top"/>
  <outline>
    <contour>
      <point x="89" y="554" type="line"/>
      <point x="53" y="365"/>
      <point x="21" y="164"/>
      <point x="-1" y="0" type="curve"/>
      <point x="93" y="0" type="line"/>
      <point x="111" y="145"/>
      <point x="131" y="290"/>
      <point x="159" y="425" type="curve"/>
      <point x="181" y="453"/>
      <point x="224" y="486"/>
      <point x="252" y="486" type="curve" smooth="yes"/>
      <point x="280" y="486"/>
      <point x="290" y="465"/>
      <point x="284" y="422" type="curve" smooth="yes"/>
      <point x="238" y="77" type="line"/>
      <point x="318" y="77" type="line"/>
      <point x="376" y="448" type="line" smooth="yes"/>
      <point x="386" y="515"/>
      <point x="361" y="566"/>
      <point x="303" y="566" type="curve" smooth="yes"/>
      <point x="261" y="566"/>
      <point x="202" y="536"/>
      <point x="168" y="499" type="curve"/>
      <point x="169" y="554" type="line"/>
    </contour>
    <contour>
      <point x="552" y="-16" type="curve"/>
      <point x="566" y="60" type="line"/>
      <point x="542" y="66"/>
      <point x="532" y="76"/>
      <point x="541" y="124" type="curve" smooth="yes"/>
      <point x="561" y="233"/>
      <point x="581" y="332"/>
      <point x="594" y="441" type="curve" smooth="yes"/>
      <point x="603" y="517"/>
      <point x="574" y="566"/>
      <point x="510" y="566" type="curve" smooth="yes"/>
      <point x="448" y="566"/>
      <point x="388" y="515"/>
      <point x="353" y="472" type="curve"/>
      <point x="353" y="399" type="line"/>
      <point x="378" y="442"/>
      <point x="430" y="486"/>
      <point x="463" y="486" type="curve" smooth="yes"/>
      <point x="496" y="486"/>
      <point x="502" y="459"/>
      <point x="497" y="418" type="curve" smooth="yes"/>
      <point x="483" y="307"/>
      <point x="462" y="219"/>
      <point x="448" y="108" type="curve" smooth="yes"/>
      <point x="438" y="32"/>
      <point x="472" y="-12"/>
    </contour>
  </outline>
</glyph>
<glyph name="n" format="2">
  <advance width="620"/>
  <unicode hex="006E"/>
  <anchor x="270" y="0" name="bottom"/>
  <anchor x="350" y="550" name="top"/>
  <outline>
    <contour>
      <point x="177" y="464" type="curve"/>
      <point x="168" y="379" type="line"/>
      <point x="246" y="444"/>
      <point x="306" y="470"/>
      <point x="357" y="470" type="curve" smooth="yes"/>
      <point x="410" y="470"/>
      <point x="441" y="429"/>
      <point x="430" y="361" type="curve" smooth="yes"/>
      <point x="389" y="108" type="line" smooth="yes"/>
      <point x="378" y="26"/>
      <point x="419" y="-13"/>
      <point x="503" y="-16" type="curve"/>
      <point x="517" y="59" type="line"/>
      <point x="482" y="65"/>
      <point x="476" y="74"/>
      <point x="485" y="124" type="curve" smooth="yes"/>
      <point x="528" y="377" type="line" smooth="yes"/>
      <point x="549" y="503"/>
      <point x="464" y="565"/>
      <point x="396" y="566" type="curve" smooth="yes"/>
      <point x="320" y="567"/>
      <point x="238" y="514"/>
    </contour>
    <contour>
      <point x="135" y="0" type="line"/>
      <point x="213" y="458" type="line"/>
      <point x="198" y="554" type="line"/>
      <point x="128" y="554" type="line"/>
      <point x="38" y="0" type="line"/>
    </contour>
  </outline>
</glyph>
<glyph name="o" format="2">
  <advance width="620"/>
  <unicode hex="006F"/>
  <anchor x="252" y="0" name="bottom"/>
  <anchor x="355" y="-3" name="ogonek"/>
  <anchor x="365" y="550" name="top"/>
  <anchor x="476" y="523" name="topright"/>
  <outline>
    <contour>
      <point x="266" y="-16" type="curve" smooth="yes"/>
      <point x="438" y="-16"/>
      <point x="531" y="109"/>
      <point x="557" y="277" type="curve" smooth="yes"/>
      <point x="583" y="443"/>
      <point x="498" y="566"/>
      <point x="354" y="566" type="curve" smooth="yes"/>
      <point x="182" y="566"/>
      <point x="91" y="441"/>
      <point x="63" y="273" type="curve" smooth="yes"/>
      <point x="35" y="107"/>
      <point x="122" y="-16"/>
    </contour>
    <contour>
      <point x="278" y="71" type="curve" smooth="yes"/>
      <point x="175" y="71"/>
      <point x="140" y="156"/>
      <point x="159" y="273" type="curve" smooth="yes"/>
      <point x="178" y="390"/>
      <point x="231" y="478"/>
      <point x="342" y="478" type="curve" smooth="yes"/>
      <point x="445" y="478"/>
      <point x="480" y="394"/>
      <point x="461" y="277" type="curve" smooth="yes"/>
      <point x="442" y="160"/>
      <point x="389" y="71"/>
    </contour>
  </outline>
</glyph>
<glyph name="p" format="2">
  <advance width="620"/>
  <unicode hex="0070"/>
  <anchor x="270" y="0" name="bottom"/>
  <anchor x="350" y="550" name="top"/>
  <outline>
    <contour>
      <point x="120" y="189" type="line"/>
      <point x="120" y="101"/>
      <point x="159" y="-6"/>
      <point x="274" y="-6" type="curve" smooth="yes"/>
      <point x="407" y="-6"/>
      <point x="525" y="104"/>
      <point x="556" y="294" type="curve" smooth="yes"/>
      <point x="584" y="464"/>
      <point x="484" y="560"/>
      <point x="373" y="560" type="curve" smooth="yes"/>
      <point x="264" y="560"/>
      <point x="152" y="450"/>
      <point x="152" y="337" type="curve"/>
      <point x="200" y="337" type="line"/>
      <point x="200" y="400"/>
      <point x="280" y="479"/>
      <point x="353" y="479" type="curve" smooth="yes"/>
      <point x="456" y="479"/>
      <point x="479" y="396"/>
      <point x="463" y="295" type="curve" smooth="yes"/>
      <point x="444" y="175"/>
      <point x="368" y="78"/>
      <point x="276" y="78" type="curve" smooth="yes"/>
      <point x="209" y="78"/>
      <point x="170" y="135"/>
      <point x="170" y="189" type="curve"/>
    </contour>
    <contour>
      <point x="146" y="499" type="line"/>
      <point x="35" y="-200" type="line"/>
      <point x="131" y="-200" type="line"/>
      <point x="247" y="543" type="line"/>
    </contour>
    <contour>
      <point x="247" y="543" type="curve"/>
      <point x="203" y="566" type="line"/>
      <point x="174" y="542"/>
      <point x="137" y="524"/>
      <point x="59" y="524" type="curve"/>
      <point x="46" y="453" type="line"/>
      <point x="140" y="453"/>
      <point x="195" y="463"/>
    </contour>
  </outline>
</glyph>
<glyph name="q" format="2">
  <advance width="620"/>
  <unicode hex="0071"/>
  <anchor x="270" y="0" name="bottom"/>
  <anchor x="350" y="550" name="top"/>
  <outline>
    <contour>
      <point x="303" y="566" type="curve" smooth="yes"/>
      <point x="208" y="566"/>
      <point x="76" y="495"/>
      <point x="45" y="305" type="curve" smooth="yes"/>
      <point x="20" y="150"/>
      <point x="82" y="-7"/>
      <point x="229" y="-7" type="curve" smooth="yes"/>
      <point x="367" y="-7"/>
      <point x="450" y="154"/>
      <point x="469" y="279" type="curve" smooth="yes"/>
      <point x="489" y="413"/>
      <point x="433" y="566"/>
    </contour>
    <contour>
      <point x="292" y="480" type="curve" smooth="yes"/>
      <point x="388" y="480"/>
      <point x="428" y="368"/>
      <point x="415" y="275" type="curve" smooth="yes"/>
      <point x="400" y="168"/>
      <point x="329" y="78"/>
      <point x="240" y="78" type="curve" smooth="yes"/>
      <point x="151" y="78"/>
      <point x="115" y="179"/>
      <point x="137" y="303" type="curve" smooth="yes"/>
      <point x="158" y="423"/>
      <point x="231" y="480"/>
    </contour>
    <contour>
      <point x="340" y="-38" type="line" smooth="yes"/>
      <point x="322" y="-158"/>
      <point x="374" y="-220"/>
      <point x="509" y="-216" type="curve"/>
      <point x="524" y="-131" type="line"/>
      <point x="433" y="-126"/>
      <point x="426" y="-96"/>
      <point x="438" y="-22" type="curve" smooth="yes"/>
      <point x="532" y="555" type="line"/>
      <point x="447" y="555" type="line"/>
      <point x="421" y="489" type="line"/>
    </contour>
  </outline>
</glyph>
<glyph name="r" format="2">
  <advance width="620"/>
  <unicode hex="0072"/>
  <anchor x="235" y="0" name="bottom"/>
  <anchor x="347" y="550" name="top"/>
  <outline>
    <contour>
      <point x="310" y="558" type="line"/>
      <point x="133" y="558" type="line"/>
      <point x="124" y="498" type="line"/>
      <point x="211" y="482" type="line"/>
      <point x="134" y="0" type="line"/>
      <point x="235" y="0" type="line"/>
      <point x="297" y="388" type="line"/>
      <point x="309" y="484" type="line"/>
    </contour>
    <contour>
      <point x="40" y="90" type="line"/>
      <point x="25" y="0" type="line"/>
      <point x="446" y="0" type="line"/>
      <point x="461" y="90" type="line"/>
    </contour>
    <contour>
      <point x="532" y="432" type="curve"/>
      <point x="607" y="491" type="line"/>
      <point x="581" y="525"/>
      <point x="533" y="565"/>
      <point x="474" y="566" type="curve" smooth="yes"/>
      <point x="403" y="567"/>
      <point x="329" y="528"/>
      <point x="263" y="450" type="curve"/>
      <point x="247" y="345" type="line"/>
      <point x="324" y="434"/>
      <point x="388" y="475"/>
      <point x="443" y="475" type="curve" smooth="yes"/>
      <point x="480" y="475"/>
      <point x="512" y="455"/>
    </contour>
  </outline>
</glyph>
<glyph name="s" format="2">
  <advance width="620"/>
  <unicode hex="0073"/>
  <anchor x="288" y="0" name="bottom"/>
  <anchor x="329" y="550" name="top"/>
  <outline>
    <contour>
      <point x="128" y="156" type="curve"/>
      <point x="57" y="94" type="line"/>
      <point x="117" y="24"/>
      <point x="210" y="-16"/>
      <point x="296" y="-16" type="curve" smooth="yes"/>
      <point x="415" y="-16"/>
      <point x="503" y="28"/>
      <point x="518" y="117" type="curve" smooth="yes"/>
      <point x="548" y="300"/>
      <point x="208" y="314"/>
      <point x="219" y="416" type="curve" smooth="yes"/>
      <point x="223" y="452"/>
      <point x="260" y="478"/>
      <point x="326" y="478" type="curve" smooth="yes"/>
      <point x="381" y="478"/>
      <point x="442" y="445"/>
      <point x="474" y="418" type="curve"/>
      <point x="536" y="481" type="line"/>
      <point x="500" y="522"/>
      <point x="413" y="566"/>
      <point x="333" y="566" type="curve" smooth="yes"/>
      <point x="217" y="566"/>
      <point x="133" y="521"/>
      <point x="120" y="436" type="curve" smooth="yes"/>
      <point x="90" y="237"/>
      <point x="439" y="234"/>
      <point x="422" y="133" type="curve" smooth="yes"/>
      <point x="415" y="94"/>
      <point x="365" y="72"/>
      <point x="300" y="72" type="curve" smooth="yes"/>
      <point x="230" y="72"/>
      <point x="168" y="109"/>
    </contour>
  </outline>
</glyph>
<glyph name="t" format="2">
  <advance width="620"/>
  <unicode hex="0074"/>
  <anchor x="300" y="0" name="bottom"/>
  <anchor x="310" y="285" name="center"/>
  <anchor x="355" y="750" name="top"/>
  <anchor x="360" y="750" name="topright"/>
  <outline>
    <contour>
      <point x="119" y="550" type="line"/>
      <point x="105" y="462" type="line"/>
      <point x="527" y="462" type="line"/>
      <point x="541" y="550" type="line"/>
    </contour>
    <contour>
      <point x="501" y="49" type="curve"/>
      <point x="453" y="123" type="line"/>
      <point x="425" y="106"/>
      <point x="382" y="80"/>
      <point x="349" y="80" type="curve" smooth="yes"/>
      <point x="296" y="80"/>
      <point x="282" y="125"/>
      <point x="297" y="217" type="curve" smooth="yes"/>
      <point x="373" y="679" type="line"/>
      <point x="273" y="679" type="line"/>
      <point x="196" y="181" type="line" smooth="yes"/>
      <point x="177" y="58"/>
      <point x="233" y="-16"/>
      <point x="322" y="-16" type="curve" smooth="yes"/>
      <point x="391" y="-16"/>
      <point x="458" y="17"/>
    </contour>
  </outline>
</glyph>
<glyph name="u" format="2">
  <advance width="620"/>
  <unicode hex="0075"/>
  <anchor x="240" y="0" name="bottom"/>
  <anchor x="549" y="-9" name="ogonek"/>
  <anchor x="330" y="550" name="top"/>
  <anchor x="504" y="550" name="topright"/>
  <outline>
    <contour>
      <point x="111" y="550" type="line"/>
      <point x="57" y="206" type="line" smooth="yes"/>
      <point x="32" y="42"/>
      <point x="120" y="-15"/>
      <point x="210" y="-16" type="curve" smooth="yes"/>
      <point x="282" y="-17"/>
      <point x="341" y="14"/>
      <point x="409" y="63" type="curve"/>
      <point x="419" y="163" type="line"/>
      <point x="345" y="102"/>
      <point x="280" y="81"/>
      <point x="232" y="81" type="curve" smooth="yes"/>
      <point x="147" y="81"/>
      <point x="152" y="164"/>
      <point x="161" y="225" type="curve" smooth="yes"/>
      <point x="210" y="550" type="line"/>
    </contour>
    <contour>
      <point x="382" y="72" type="line"/>
      <point x="393" y="63" type="line"/>
      <point x="409" y="22"/>
      <point x="442" y="-13"/>
      <point x="549" y="-9" type="curve"/>
      <point x="565" y="75" type="line"/>
      <point x="490" y="80"/>
      <point x="479" y="96"/>
      <point x="491" y="169" type="curve" smooth="yes"/>
      <point x="556" y="550" type="line"/>
      <point x="455" y="550" type="line"/>
    </contour>
  </outline>
</glyph>
<glyph name="v" format="2">
  <advance width="620"/>
  <unicode hex="0076"/>
  <anchor x="272" y="0" name="bottom"/>
  <anchor x="340" y="550" name="top"/>
  <outline>
    <contour>
      <point x="91" y="550" type="line"/>
      <point x="118" y="276"/>
      <point x="164" y="132"/>
      <point x="217" y="0" type="curve"/>
      <point x="321" y="0" type="line"/>
      <point x="268" y="132"/>
      <point x="219" y="282"/>
      <point x="195" y="550" type="curve"/>
    </contour>
    <contour>
      <point x="602" y="550" type="curve"/>
      <point x="499" y="550" type="line"/>
      <point x="404" y="288"/>
      <point x="321" y="132"/>
      <point x="225" y="0" type="curve"/>
      <point x="330" y="0" type="line"/>
      <point x="430" y="132"/>
      <point x="508" y="287"/>
    </contour>
  </outline>
</glyph>
<glyph name="w" format="2">
  <advance width="620"/>
  <unicode hex="0077"/>
  <anchor x="287" y="0" name="bottom"/>
  <anchor x="350" y="550" name="top"/>
  <outline>
    <contour>
      <point x="79" y="550" type="line"/>
      <point x="50" y="318"/>
      <point x="57" y="134"/>
      <point x="89" y="0" type="curve"/>
      <point x="176" y="0" type="line"/>
      <point x="146" y="134"/>
      <point x="153" y="320"/>
      <point x="177" y="550" type="curve"/>
    </contour>
    <contour>
      <point x="362" y="377" type="line"/>
      <point x="281" y="377" type="line"/>
      <point x="124" y="0" type="line"/>
      <point x="211" y="0" type="line"/>
    </contour>
    <contour>
      <point x="296" y="377" type="line"/>
      <point x="359" y="0" type="line"/>
      <point x="446" y="0" type="line"/>
      <point x="371" y="377" type="line"/>
    </contour>
    <contour>
      <point x="623" y="550" type="curve"/>
      <point x="526" y="550" type="line"/>
      <point x="491" y="304"/>
      <point x="449" y="139"/>
      <point x="391" y="0" type="curve"/>
      <point x="480" y="0" type="line"/>
      <point x="541" y="139"/>
      <point x="592" y="304"/>
    </contour>
  </outline>
</glyph>
<glyph name="x" format="2">
  <advance width="620"/>
  <unicode hex="0078"/>
  <anchor x="260" y="0" name="bottom"/>
  <anchor x="350" y="550" name="top"/>
  <outline>
    <contour>
      <point x="33" y="-1" type="line"/>
      <point x="142" y="-1" type="line"/>
      <point x="381" y="309" type="line"/>
      <point x="268" y="309" type="line"/>
      <point x="33" y="9" type="line"/>
    </contour>
    <contour>
      <point x="223" y="240" type="line"/>
      <point x="337" y="240" type="line"/>
      <point x="571" y="540" type="line"/>
      <point x="571" y="550" type="line"/>
      <point x="465" y="550" type="line"/>
    </contour>
    <contour>
      <point x="543" y="19" type="curve"/>
      <point x="511" y="92" type="line"/>
      <point x="455" y="69"/>
      <point x="439" y="66"/>
      <point x="420" y="111" type="curve" smooth="yes"/>
      <point x="349" y="279" type="line"/>
      <point x="255" y="279" type="line"/>
      <point x="341" y="62" type="line" smooth="yes"/>
      <point x="378" y="-30"/>
      <point x="451" y="-23"/>
    </contour>
    <contour>
      <point x="86" y="530" type="curve"/>
      <point x="115" y="455" type="line"/>
      <point x="167" y="478"/>
      <point x="184" y="475"/>
      <point x="201" y="429" type="curve" smooth="yes"/>
      <point x="258" y="279" type="line"/>
      <point x="355" y="279" type="line"/>
      <point x="277" y="483" type="line" smooth="yes"/>
      <point x="241" y="578"/>
      <point x="178" y="569"/>
    </contour>
  </outline>
</glyph>
<glyph name="y" format="2">
  <advance width="620"/>
  <unicode hex="0079"/>
  <anchor x="230" y="-214" name="bottom"/>
  <anchor x="363" y="550" name="top"/>
  <outline>
    <contour>
      <point x="259" y="543" type="line"/>
      <point x="161" y="515" type="line"/>
      <point x="117" y="224" type="line" smooth="yes"/>
      <point x="98" y="96"/>
      <point x="161" y="20"/>
      <point x="259" y="20" type="curve" smooth="yes"/>
      <point x="329" y="20"/>
      <point x="407" y="56"/>
      <point x="450" y="130" type="curve"/>
      <point x="450" y="217" type="line"/>
      <point x="400" y="148"/>
      <point x="336" y="116"/>
      <point x="285" y="116" type="curve" smooth="yes"/>
      <point x="224" y="116"/>
      <point x="200" y="168"/>
      <point x="215" y="264" type="curve" smooth="yes"/>
    </contour>
    <contour>
      <point x="259" y="543" type="curve"/>
      <point x="218" y="566" type="line"/>
      <point x="189" y="542"/>
      <point x="152" y="524"/>
      <point x="74" y="524" type="curve"/>
      <point x="63" y="453" type="line"/>
      <point x="157" y="449"/>
      <point x="210" y="463"/>
    </contour>
    <contour>
      <point x="108" y="-65" type="curve"/>
      <point x="58" y="-139" type="line"/>
      <point x="107" y="-175"/>
      <point x="183" y="-216"/>
      <point x="263" y="-216" type="curve" smooth="yes"/>
      <point x="410" y="-216"/>
      <point x="469" y="-113"/>
      <point x="489" y="8" type="curve" smooth="yes"/>
      <point x="579" y="550" type="line"/>
      <point x="482" y="550" type="line"/>
      <point x="397" y="8" type="line" smooth="yes"/>
      <point x="389" y="-45"/>
      <point x="361" y="-129"/>
      <point x="261" y="-129" type="curve" smooth="yes"/>
      <point x="203" y="-129"/>
      <point x="151" y="-95"/>
    </contour>
  </outline>
</glyph>
<glyph name="z" format="2">
  <advance width="620"/>
  <unicode hex="007A"/>
  <anchor x="270" y="0" name="bottom"/>
  <anchor x="335" y="550" name="top"/>
  <outline>
    <contour>
      <point x="121" y="550" type="line"/>
      <point x="107" y="462" type="line"/>
      <point x="526" y="462" type="line"/>
      <point x="540" y="550" type="line"/>
    </contour>
    <contour>
      <point x="52" y="100" type="curve"/>
      <point x="39" y="16" type="line"/>
      <point x="45" y="16" type="line"/>
      <point x="185" y="33"/>
      <point x="255" y="-16"/>
      <point x="341" y="-16" type="curve" smooth="yes"/>
      <point x="415" y="-16"/>
      <point x="477" y="6"/>
      <point x="547" y="50" type="curve"/>
      <point x="507" y="123" type="line"/>
      <point x="448" y="89"/>
      <point x="393" y="72"/>
      <point x="340" y="72" type="curve" smooth="yes"/>
      <point x="247" y="72"/>
      <point x="203" y="122"/>
    </contour>
    <contour>
      <point x="52" y="100" type="line"/>
      <point x="180" y="100" type="line"/>
      <point x="526" y="462" type="line"/>
      <point x="396" y="462" type="line"/>
    </contour>
  </outline>
</glyph>
<glyph name="braceleft" format="2">
  <advance width="620"/>
  <unicode hex="007B"/>
  <outline>
    <contour>
      <point x="104" y="360" type="line"/>
      <point x="90" y="272" type="line"/>
      <point x="139" y="272" type="line" smooth="yes"/>
      <point x="204" y="272"/>
      <point x="249" y="214"/>
      <point x="242" y="167" type="curve" smooth="yes"/>
      <point x="232" y="109"/>
      <point x="182" y="76"/>
      <point x="171" y="5" type="curve" smooth="yes"/>
      <point x="162" y="-54"/>
      <point x="186" y="-100"/>
      <point x="253" y="-115" type="curve" smooth="yes"/>
      <point x="290" y="-123"/>
      <point x="355" y="-132"/>
      <point x="392" y="-134" type="curve"/>
      <point x="410" y="-38" type="line"/>
      <point x="361" y="-34"/>
      <point x="265" y="-39"/>
      <point x="269" y="19" type="curve" smooth="yes"/>
      <point x="272" y="65"/>
      <point x="326" y="104"/>
      <point x="336" y="170" type="curve" smooth="yes"/>
      <point x="346" y="232"/>
      <point x="303" y="283"/>
      <point x="262" y="311" type="curve"/>
      <point x="328" y="343"/>
      <point x="374" y="393"/>
      <point x="384" y="455" type="curve" smooth="yes"/>
      <point x="394" y="521"/>
      <point x="353" y="561"/>
      <point x="359" y="607" type="curve" smooth="yes"/>
      <point x="366" y="659"/>
      <point x="471" y="662"/>
      <point x="520" y="665" type="curve"/>
      <point x="538" y="766" type="line"/>
      <point x="499" y="764"/>
      <point x="424" y="755"/>
      <point x="385" y="747" type="curve" smooth="yes"/>
      <point x="309" y="732"/>
      <point x="273" y="689"/>
      <point x="265" y="627" type="curve" smooth="yes"/>
      <point x="256" y="556"/>
      <point x="298" y="523"/>
      <point x="288" y="465" type="curve" smooth="yes"/>
      <point x="281" y="418"/>
      <point x="223" y="360"/>
      <point x="151" y="360" type="curve" smooth="yes"/>
    </contour>
  </outline>
</glyph>
<glyph name="bar" format="2">
  <advance width="620"/>
  <unicode hex="007C"/>
  <outline>
    <contour>
      <point x="437" y="766" type="line"/>
      <point x="338" y="766" type="line"/>
      <point x="192" y="-160" type="line"/>
      <point x="291" y="-160" type="line"/>
    </contour>
  </outline>
</glyph>
<glyph name="braceright" format="2">
  <advance width="620"/>
  <unicode hex="007D"/>
  <outline>
    <contour>
      <point x="529" y="272" type="line"/>
      <point x="543" y="360" type="line"/>
      <point x="494" y="360" type="line" smooth="yes"/>
      <point x="429" y="360"/>
      <point x="384" y="418"/>
      <point x="391" y="465" type="curve" smooth="yes"/>
      <point x="401" y="523"/>
      <point x="451" y="556"/>
      <point x="462" y="627" type="curve" smooth="yes"/>
      <point x="471" y="686"/>
      <point x="447" y="732"/>
      <point x="380" y="747" type="curve" smooth="yes"/>
      <point x="343" y="755"/>
      <point x="278" y="764"/>
      <point x="241" y="766" type="curve"/>
      <point x="223" y="670" type="line"/>
      <point x="272" y="666"/>
      <point x="368" y="671"/>
      <point x="364" y="613" type="curve" smooth="yes"/>
      <point x="361" y="567"/>
      <point x="307" y="528"/>
      <point x="297" y="462" type="curve" smooth="yes"/>
      <point x="287" y="400"/>
      <point x="330" y="349"/>
      <point x="371" y="321" type="curve"/>
      <point x="305" y="289"/>
      <point x="259" y="239"/>
      <point x="249" y="177" type="curve" smooth="yes"/>
      <point x="239" y="111"/>
      <point x="280" y="71"/>
      <point x="274" y="25" type="curve" smooth="yes"/>
      <point x="267" y="-27"/>
      <point x="162" y="-30"/>
      <point x="113" y="-33" type="curve"/>
      <point x="95" y="-134" type="line"/>
      <point x="134" y="-132"/>
      <point x="209" y="-123"/>
      <point x="248" y="-115" type="curve" smooth="yes"/>
      <point x="324" y="-100"/>
      <point x="360" y="-57"/>
      <point x="368" y="5" type="curve" smooth="yes"/>
      <point x="377" y="76"/>
      <point x="335" y="109"/>
      <point x="345" y="167" type="curve" smooth="yes"/>
      <point x="352" y="214"/>
      <point x="410" y="272"/>
      <point x="482" y="272" type="curve" smooth="yes"/>
    </contour>
  </outline>
</glyph>
<glyph name="asciitilde" format="2">
  <advance width="620"/>
  <unicode hex="007E"/>
  <outline>
    <contour>
      <point x="299" y="274" type="curve" smooth="yes"/>
      <point x="409" y="172"/>
      <point x="430" y="185"/>
      <point x="584" y="333" type="curve"/>
      <point x="530" y="387" type="line"/>
      <point x="411" y="277"/>
      <point x="416" y="269"/>
      <point x="339" y="344" type="curve" smooth="yes"/>
      <point x="229" y="450"/>
      <point x="203" y="435"/>
      <point x="39" y="296" type="curve"/>
      <point x="92" y="239" type="line"/>
      <point x="224" y="350"/>
      <point x="224" y="343"/>
    </contour>
  </outline>
</glyph>
<glyph name="exclamdown" format="2">
  <advance width="620"/>
  <unicode hex="00A1"/>
  <outline>
    <contour>
      <point x="320" y="552" type="curve" smooth="yes"/>
      <point x="279" y="552"/>
      <point x="244" y="517"/>
      <point x="244" y="476" type="curve" smooth="yes"/>
      <point x="244" y="435"/>
      <point x="279" y="400"/>
      <point x="320" y="400" type="curve" smooth="yes"/>
      <point x="361" y="400"/>
      <point x="396" y="435"/>
      <point x="396" y="476" type="curve" smooth="yes"/>
      <point x="396" y="517"/>
      <point x="361" y="552"/>
    </contour>
    <contour>
      <point x="302" y="-200" type="line"/>
      <point x="320" y="-35"/>
      <point x="330" y="150"/>
      <point x="347" y="315" type="curve"/>
      <point x="253" y="315" type="line"/>
      <point x="220" y="150"/>
      <point x="170" y="-35"/>
      <point x="138" y="-200" type="curve"/>
    </contour>
  </outline>
</glyph>
<glyph name="cent" format="2">
  <advance width="620"/>
  <unicode hex="00A2"/>
  <outline>
    <contour>
      <point x="522" y="468" type="line"/>
      <point x="500" y="491"/>
      <point x="440" y="521"/>
      <point x="379" y="521" type="curve" smooth="yes"/>
      <point x="235" y="521"/>
      <point x="126" y="437"/>
      <point x="104" y="289" type="curve" smooth="yes"/>
      <point x="82" y="138"/>
      <point x="178" y="23"/>
      <point x="309" y="23" type="curve" smooth="yes"/>
      <point x="379" y="23"/>
      <point x="435" y="43"/>
      <point x="463" y="66" type="curve"/>
      <point x="477" y="152" type="line"/>
      <point x="471" y="152" type="line"/>
      <point x="428" y="122"/>
      <point x="382" y="104"/>
      <point x="322" y="104" type="curve" smooth="yes"/>
      <point x="243" y="104"/>
      <point x="169" y="170"/>
      <point x="185" y="280" type="curve" smooth="yes"/>
      <point x="201" y="387"/>
      <point x="286" y="438"/>
      <point x="367" y="438" type="curve" smooth="yes"/>
      <point x="427" y="438"/>
      <point x="474" y="414"/>
      <point x="502" y="386" type="curve"/>
      <point x="508" y="386" type="line"/>
    </contour>
    <contour>
      <point x="426" y="609" type="line"/>
      <point x="352" y="609" type="line"/>
      <point x="246" y="-61" type="line"/>
      <point x="320" y="-61" type="line"/>
    </contour>
  </outline>
</glyph>
<glyph name="sterling" format="2">
  <advance width="620"/>
  <unicode hex="00A3"/>
  <outline>
    <contour>
      <point x="41" y="82" type="curve"/>
      <point x="85" y="7" type="line"/>
      <point x="124" y="65" type="line"/>
      <point x="171" y="103"/>
      <point x="238" y="168"/>
      <point x="252" y="247" type="curve" smooth="yes"/>
      <point x="267" y="336"/>
      <point x="191" y="400"/>
      <point x="205" y="501" type="curve" smooth="yes"/>
      <point x="215" y="571"/>
      <point x="275" y="628"/>
      <point x="363" y="628" type="curve" smooth="yes"/>
      <point x="422" y="628"/>
      <point x="476" y="597"/>
      <point x="505" y="560" type="curve"/>
      <point x="567" y="619" type="line"/>
      <point x="531" y="669"/>
      <point x="462" y="710"/>
      <point x="368" y="710" type="curve" smooth="yes"/>
      <point x="222" y="710"/>
      <point x="134" y="622"/>
      <point x="118" y="517" type="curve" smooth="yes"/>
      <point x="99" y="390"/>
      <point x="174" y="337"/>
      <point x="161" y="253" type="curve" smooth="yes"/>
      <point x="150" y="188"/>
      <point x="111" y="144"/>
    </contour>
    <contour>
      <point x="519" y="111" type="line"/>
      <point x="479" y="93"/>
      <point x="460" y="89"/>
      <point x="420" y="89" type="curve" smooth="yes"/>
      <point x="361" y="89"/>
      <point x="337" y="129"/>
      <point x="265" y="133" type="curve" smooth="yes"/>
      <point x="208" y="136"/>
      <point x="145" y="103"/>
      <point x="98" y="85" type="curve"/>
      <point x="85" y="8" type="line"/>
      <point x="146" y="35"/>
      <point x="195" y="52"/>
      <point x="249" y="47" type="curve" smooth="yes"/>
      <point x="302" y="42"/>
      <point x="343" y="5"/>
      <point x="408" y="5" type="curve" smooth="yes"/>
      <point x="460" y="5"/>
      <point x="503" y="18"/>
      <point x="548" y="43" type="curve"/>
    </contour>
    <contour>
      <point x="435" y="313" type="line"/>
      <point x="447" y="389" type="line"/>
      <point x="58" y="389" type="line"/>
      <point x="46" y="313" type="line"/>
    </contour>
  </outline>
</glyph>
<glyph name="yen" format="2">
  <advance width="620"/>
  <unicode hex="00A5"/>
  <outline>
    <contour>
      <point x="622" y="700" type="line"/>
      <point x="519" y="700" type="line"/>
      <point x="316" y="393" type="line"/>
      <point x="413" y="393" type="line"/>
      <point x="621" y="691" type="line"/>
    </contour>
    <contour>
      <point x="278" y="384" type="line"/>
      <point x="222" y="10" type="line"/>
      <point x="313" y="10" type="line"/>
      <point x="375" y="384" type="line"/>
    </contour>
    <contour>
      <point x="522" y="321" type="line"/>
      <point x="533" y="392" type="line"/>
      <point x="533" y="395" type="line"/>
      <point x="119" y="395" type="line"/>
      <point x="108" y="321" type="line"/>
    </contour>
    <contour>
      <point x="500" y="182" type="line"/>
      <point x="511" y="253" type="line"/>
      <point x="511" y="256" type="line"/>
      <point x="97" y="256" type="line"/>
      <point x="86" y="182" type="line"/>
    </contour>
    <contour>
      <point x="132" y="700" type="line"/>
      <point x="131" y="691" type="line"/>
      <point x="253" y="393" type="line"/>
      <point x="339" y="393" type="line"/>
      <point x="234" y="700" type="line"/>
    </contour>
  </outline>
</glyph>
<glyph name="section" format="2">
  <advance width="620"/>
  <unicode hex="00A7"/>
  <outline>
    <contour>
      <point x="358" y="247" type="curve"/>
      <point x="418" y="195" type="line"/>
      <point x="460" y="231"/>
      <point x="513" y="274"/>
      <point x="523" y="335" type="curve" smooth="yes"/>
      <point x="547" y="492"/>
      <point x="223" y="515"/>
      <point x="240" y="610" type="curve" smooth="yes"/>
      <point x="247" y="650"/>
      <point x="313" y="680"/>
      <point x="372" y="680" type="curve" smooth="yes"/>
      <point x="429" y="680"/>
      <point x="473" y="661"/>
      <point x="513" y="625" type="curve"/>
      <point x="578" y="687" type="line"/>
      <point x="529" y="738"/>
      <point x="451" y="766"/>
      <point x="383" y="766" type="curve" smooth="yes"/>
      <point x="284" y="766"/>
      <point x="158" y="722"/>
      <point x="141" y="615" type="curve" smooth="yes"/>
      <point x="115" y="451"/>
      <point x="447" y="443"/>
      <point x="429" y="333" type="curve" smooth="yes"/>
      <point x="426" y="309"/>
      <point x="406" y="286"/>
    </contour>
    <contour>
      <point x="325" y="478" type="curve"/>
      <point x="259" y="529" type="line"/>
      <point x="220" y="517"/>
      <point x="120" y="466"/>
      <point x="109" y="396" type="curve" smooth="yes"/>
      <point x="84" y="236"/>
      <point x="408" y="217"/>
      <point x="393" y="131" type="curve" smooth="yes"/>
      <point x="385" y="91"/>
      <point x="336" y="67"/>
      <point x="277" y="67" type="curve" smooth="yes"/>
      <point x="216" y="67"/>
      <point x="157" y="98"/>
      <point x="112" y="140" type="curve"/>
      <point x="55" y="77" type="line"/>
      <point x="112" y="24"/>
      <point x="190" y="-16"/>
      <point x="268" y="-16" type="curve" smooth="yes"/>
      <point x="378" y="-16"/>
      <point x="475" y="27"/>
      <point x="491" y="134" type="curve" smooth="yes"/>
      <point x="514" y="285"/>
      <point x="189" y="295"/>
      <point x="206" y="398" type="curve" smooth="yes"/>
      <point x="211" y="435"/>
      <point x="277" y="467"/>
    </contour>
  </outline>
</glyph>
<glyph name="copyright" format="2">
  <advance width="620"/>
  <unicode hex="00A9"/>
  <outline>
    <contour>
      <point x="275" y="42" type="curve" smooth="yes"/>
      <point x="474" y="42"/>
      <point x="569" y="172"/>
      <point x="598" y="360" type="curve" smooth="yes"/>
      <point x="627" y="546"/>
      <point x="532" y="678"/>
      <point x="372" y="678" type="curve" smooth="yes"/>
      <point x="180" y="678"/>
      <point x="78" y="548"/>
      <point x="48" y="360" type="curve" smooth="yes"/>
      <point x="18" y="174"/>
      <point x="115" y="42"/>
    </contour>
    <contour>
      <point x="280" y="86" type="curve" smooth="yes"/>
      <point x="142" y="88"/>
      <point x="74" y="197"/>
      <point x="97" y="360" type="curve" smooth="yes"/>
      <point x="120" y="523"/>
      <point x="218" y="636"/>
      <point x="366" y="636" type="curve" smooth="yes"/>
      <point x="504" y="636"/>
      <point x="572" y="523"/>
      <point x="549" y="360" type="curve" smooth="yes"/>
      <point x="526" y="197"/>
      <point x="429" y="84"/>
    </contour>
    <contour>
      <point x="302" y="157" type="curve" smooth="yes"/>
      <point x="355" y="157"/>
      <point x="399" y="176"/>
      <point x="445" y="212" type="curve"/>
      <point x="408" y="266" type="line"/>
      <point x="374" y="243"/>
      <point x="346" y="229"/>
      <point x="311" y="229" type="curve" smooth="yes"/>
      <point x="255" y="229"/>
      <point x="218" y="272"/>
      <point x="232" y="363" type="curve" smooth="yes"/>
      <point x="245" y="445"/>
      <point x="286" y="499"/>
      <point x="345" y="499" type="curve" smooth="yes"/>
      <point x="375" y="499"/>
      <point x="398" y="479"/>
      <point x="411" y="456" type="curve"/>
      <point x="470" y="489" type="line"/>
      <point x="454" y="529"/>
      <point x="411" y="571"/>
      <point x="353" y="571" type="curve" smooth="yes"/>
      <point x="263" y="571"/>
      <point x="182" y="501"/>
      <point x="160" y="365" type="curve" smooth="yes"/>
      <point x="139" y="229"/>
      <point x="202" y="157"/>
    </contour>
  </outline>
</glyph>
<glyph name="ordfeminine" format="2">
  <advance width="620"/>
  <unicode hex="00AA"/>
  <outline>
    <contour>
      <point x="379" y="477" type="curve" smooth="yes"/>
      <point x="409" y="656" type="line"/>
      <point x="398" y="687"/>
      <point x="358" y="726"/>
      <point x="301" y="726" type="curve" smooth="yes"/>
      <point x="218" y="726"/>
      <point x="141" y="663"/>
      <point x="125" y="560" type="curve" smooth="yes"/>
      <point x="112" y="488"/>
      <point x="134" y="381"/>
      <point x="245" y="381" type="curve" smooth="yes"/>
      <point x="273" y="381"/>
      <point x="308" y="394"/>
      <point x="328" y="417" type="curve"/>
      <point x="342" y="392"/>
      <point x="384" y="384"/>
      <point x="419" y="386" type="curve"/>
      <point x="428" y="442" type="line"/>
      <point x="384" y="442"/>
      <point x="375" y="456"/>
    </contour>
    <contour>
      <point x="195" y="548" type="curve" smooth="yes"/>
      <point x="208" y="612"/>
      <point x="245" y="654"/>
      <point x="291" y="658" type="curve" smooth="yes"/>
      <point x="311" y="660"/>
      <point x="331" y="650"/>
      <point x="338" y="634" type="curve"/>
      <point x="314" y="486" type="line"/>
      <point x="303" y="464"/>
      <point x="278" y="447"/>
      <point x="251" y="447" type="curve" smooth="yes"/>
      <point x="200" y="447"/>
      <point x="188" y="506"/>
    </contour>
  </outline>
</glyph>
<glyph name="guillemetleft" format="2">
  <advance width="620"/>
  <unicode hex="00AB"/>
  <outline>
    <contour>
      <point x="259" y="275" type="line"/>
      <point x="464" y="32" type="line"/>
      <point x="522" y="83" type="line"/>
      <point x="317" y="326" type="line"/>
    </contour>
    <contour>
      <point x="259" y="275" type="line"/>
      <point x="308" y="217" type="line"/>
      <point x="589" y="460" type="line"/>
      <point x="540" y="518" type="line"/>
    </contour>
    <contour>
      <point x="59" y="275" type="line"/>
      <point x="108" y="217" type="line"/>
      <point x="389" y="460" type="line"/>
      <point x="340" y="518" type="line"/>
    </contour>
    <contour>
      <point x="59" y="275" type="line"/>
      <point x="264" y="32" type="line"/>
      <point x="322" y="83" type="line"/>
      <point x="117" y="326" type="line"/>
    </contour>
  </outline>
</glyph>
<glyph name="registered" format="2">
  <advance width="620"/>
  <unicode hex="00AE"/>
  <outline>
    <contour>
      <point x="224" y="550" type="line"/>
      <point x="166" y="180" type="line"/>
      <point x="230" y="180" type="line"/>
      <point x="288" y="550" type="line"/>
    </contour>
    <contour>
      <point x="257" y="377" type="curve"/>
      <point x="247" y="318" type="line"/>
      <point x="271" y="318"/>
      <point x="296" y="318"/>
      <point x="323" y="318" type="curve" smooth="yes"/>
      <point x="403" y="318"/>
      <point x="461" y="360"/>
      <point x="472" y="434" type="curve" smooth="yes"/>
      <point x="482" y="504"/>
      <point x="437" y="550"/>
      <point x="348" y="550" type="curve" smooth="yes"/>
      <point x="328" y="550"/>
      <point x="312" y="550"/>
      <point x="284" y="550" type="curve"/>
      <point x="275" y="491" type="line"/>
      <point x="303" y="491"/>
      <point x="329" y="491"/>
      <point x="350" y="491" type="curve" smooth="yes"/>
      <point x="406" y="491"/>
      <point x="413" y="459"/>
      <point x="409" y="434" type="curve" smooth="yes"/>
      <point x="403" y="396"/>
      <point x="378" y="377"/>
      <point x="332" y="377" type="curve" smooth="yes"/>
      <point x="305" y="377"/>
      <point x="282" y="377"/>
    </contour>
    <contour>
      <point x="352" y="342" type="curve"/>
      <point x="288" y="342" type="line"/>
      <point x="316" y="281"/>
      <point x="342" y="232"/>
      <point x="376" y="180" type="curve"/>
      <point x="448" y="180" type="line"/>
      <point x="449" y="185" type="line"/>
      <point x="414" y="235"/>
      <point x="377" y="287"/>
    </contour>
    <contour>
      <point x="275" y="42" type="curve" smooth="yes"/>
      <point x="474" y="42"/>
      <point x="569" y="172"/>
      <point x="598" y="360" type="curve" smooth="yes"/>
      <point x="627" y="546"/>
      <point x="532" y="678"/>
      <point x="372" y="678" type="curve" smooth="yes"/>
      <point x="180" y="678"/>
      <point x="78" y="548"/>
      <point x="48" y="360" type="curve" smooth="yes"/>
      <point x="18" y="174"/>
      <point x="115" y="42"/>
    </contour>
    <contour>
      <point x="280" y="86" type="curve" smooth="yes"/>
      <point x="142" y="88"/>
      <point x="74" y="197"/>
      <point x="97" y="360" type="curve" smooth="yes"/>
      <point x="120" y="523"/>
      <point x="218" y="636"/>
      <point x="366" y="636" type="curve" smooth="yes"/>
      <point x="504" y="636"/>
      <point x="572" y="523"/>
      <point x="549" y="360" type="curve" smooth="yes"/>
      <point x="526" y="197"/>
      <point x="429" y="84"/>
    </contour>
  </outline>
</glyph>
<glyph name="degree" format="2">
  <advance width="620"/>
  <unicode hex="00B0"/>
  <outline>
    <contour>
      <point x="268" y="434" type="curve" smooth="yes"/>
      <point x="354" y="434"/>
      <point x="412" y="489"/>
      <point x="421" y="579" type="curve" smooth="yes"/>
      <point x="430" y="669"/>
      <point x="370" y="726"/>
      <point x="283" y="726" type="curve" smooth="yes"/>
      <point x="197" y="726"/>
      <point x="138" y="671"/>
      <point x="129" y="581" type="curve" smooth="yes"/>
      <point x="120" y="491"/>
      <point x="186" y="434"/>
    </contour>
    <contour>
      <point x="272" y="496" type="curve" smooth="yes"/>
      <point x="225" y="496"/>
      <point x="192" y="531"/>
      <point x="197" y="579" type="curve" smooth="yes"/>
      <point x="202" y="629"/>
      <point x="231" y="664"/>
      <point x="277" y="664" type="curve" smooth="yes"/>
      <point x="327" y="664"/>
      <point x="358" y="629"/>
      <point x="353" y="579" type="curve" smooth="yes"/>
      <point x="348" y="531"/>
      <point x="321" y="496"/>
    </contour>
  </outline>
</glyph>
<glyph name="plusminus" format="2">
  <advance width="620"/>
  <unicode hex="00B1"/>
  <outline>
    <contour>
      <point x="539" y="439" type="line"/>
      <point x="119" y="439" type="line"/>
      <point x="106" y="353" type="line"/>
      <point x="526" y="353" type="line"/>
    </contour>
    <contour>
      <point x="332" y="170" type="line"/>
      <point x="403" y="622" type="line"/>
      <point x="313" y="622" type="line"/>
      <point x="242" y="170" type="line"/>
    </contour>
    <contour>
      <point x="66" y="99" type="line"/>
      <point x="52" y="13" type="line"/>
      <point x="472" y="13" type="line"/>
      <point x="486" y="99" type="line"/>
    </contour>
  </outline>
</glyph>
<glyph name="paragraph" format="2">
  <advance width="620"/>
  <unicode hex="00B6"/>
  <outline>
    <contour>
      <point x="431" y="750" type="line"/>
      <point x="345" y="750" type="line"/>
      <point x="217" y="-60" type="line"/>
      <point x="303" y="-60" type="line"/>
    </contour>
    <contour>
      <point x="287" y="318" type="curve"/>
      <point x="355" y="750" type="line"/>
      <point x="236" y="750"/>
      <point x="134" y="667"/>
      <point x="115" y="544" type="curve" smooth="yes"/>
      <point x="95" y="421"/>
      <point x="172" y="318"/>
    </contour>
    <contour>
      <point x="589" y="750" type="line"/>
      <point x="505" y="750" type="line"/>
      <point x="377" y="-60" type="line"/>
      <point x="461" y="-60" type="line"/>
    </contour>
    <contour>
      <point x="391" y="750" type="line"/>
      <point x="382" y="693" type="line"/>
      <point x="532" y="693" type="line"/>
      <point x="541" y="750" type="line"/>
    </contour>
  </outline>
</glyph>
<glyph name="periodcentered" format="2">
  <advance width="620"/>
  <unicode hex="00B7"/>
  <outline>
    <contour>
      <point x="322" y="267" type="curve" smooth="yes"/>
      <point x="368" y="267"/>
      <point x="405" y="304"/>
      <point x="405" y="350" type="curve" smooth="yes"/>
      <point x="405" y="396"/>
      <point x="368" y="433"/>
      <point x="322" y="433" type="curve" smooth="yes"/>
      <point x="276" y="433"/>
      <point x="239" y="396"/>
      <point x="239" y="350" type="curve" smooth="yes"/>
      <point x="239" y="304"/>
      <point x="276" y="267"/>
    </contour>
  </outline>
</glyph>
<glyph name="ordmasculine" format="2">
  <advance width="620"/>
  <unicode hex="00BA"/>
  <outline>
    <contour>
      <point x="453" y="580" type="curve"/>
      <point x="428" y="624" type="line"/>
      <point x="391" y="603"/>
      <point x="354" y="589"/>
      <point x="329" y="589" type="curve" smooth="yes"/>
      <point x="296" y="589"/>
      <point x="267" y="616"/>
      <point x="269" y="645" type="curve" smooth="yes"/>
      <point x="271" y="662"/>
      <point x="282" y="673"/>
      <point x="300" y="673" type="curve" smooth="yes"/>
      <point x="338" y="673"/>
      <point x="361" y="610"/>
      <point x="350" y="545" type="curve" smooth="yes"/>
      <point x="340" y="484"/>
      <point x="306" y="440"/>
      <point x="258" y="440" type="curve" smooth="yes"/>
      <point x="201" y="440"/>
      <point x="180" y="487"/>
      <point x="189" y="554" type="curve" smooth="yes"/>
      <point x="197" y="621"/>
      <point x="227" y="673"/>
      <point x="276" y="675" type="curve"/>
      <point x="284" y="726" type="line"/>
      <point x="211" y="726"/>
      <point x="144" y="678"/>
      <point x="126" y="566" type="curve" smooth="yes"/>
      <point x="110" y="456"/>
      <point x="159" y="381"/>
      <point x="255" y="381" type="curve" smooth="yes"/>
      <point x="335" y="381"/>
      <point x="392" y="432"/>
      <point x="411" y="542" type="curve" smooth="yes"/>
      <point x="427" y="636"/>
      <point x="381" y="731"/>
      <point x="306" y="731" type="curve" smooth="yes"/>
      <point x="250" y="731"/>
      <point x="220" y="685"/>
      <point x="216" y="648" type="curve" smooth="yes"/>
      <point x="208" y="569"/>
      <point x="278" y="538"/>
      <point x="319" y="538" type="curve" smooth="yes"/>
      <point x="363" y="538"/>
      <point x="407" y="551"/>
    </contour>
  </outline>
</glyph>
<glyph name="guillemetright" format="2">
  <advance width="620"/>
  <unicode hex="00BB"/>
  <outline>
    <contour>
      <point x="361" y="275" type="line"/>
      <point x="156" y="518" type="line"/>
      <point x="98" y="467" type="line"/>
      <point x="303" y="224" type="line"/>
    </contour>
    <contour>
      <point x="361" y="275" type="line"/>
      <point x="312" y="333" type="line"/>
      <point x="31" y="90" type="line"/>
      <point x="80" y="32" type="line"/>
    </contour>
    <contour>
      <point x="561" y="275" type="line"/>
      <point x="512" y="333" type="line"/>
      <point x="231" y="90" type="line"/>
      <point x="280" y="32" type="line"/>
    </contour>
    <contour>
      <point x="561" y="275" type="line"/>
      <point x="356" y="518" type="line"/>
      <point x="298" y="467" type="line"/>
      <point x="503" y="224" type="line"/>
    </contour>
  </outline>
</glyph>
<glyph name="questiondown" format="2">
  <advance width="620"/>
  <unicode hex="00BF"/>
  <outline>
    <contour>
      <point x="376" y="300" type="line"/>
      <point x="277" y="300" type="line"/>
      <point x="273" y="275" type="line" smooth="yes"/>
      <point x="253" y="151"/>
      <point x="37" y="162"/>
      <point x="9" y="-13" type="curve" smooth="yes"/>
      <point x="-7" y="-119"/>
      <point x="77" y="-216"/>
      <point x="243" y="-216" type="curve" smooth="yes"/>
      <point x="349" y="-216"/>
      <point x="456" y="-172"/>
      <point x="530" y="-97" type="curve"/>
      <point x="464" y="-25" type="line"/>
      <point x="418" y="-65"/>
      <point x="343" y="-118"/>
      <point x="259" y="-118" type="curve" smooth="yes"/>
      <point x="145" y="-118"/>
      <point x="102" y="-62"/>
      <point x="110" y="-11" type="curve" smooth="yes"/>
      <point x="126" y="95"/>
      <point x="341" y="80"/>
      <point x="373" y="281" type="curve" smooth="yes"/>
    </contour>
    <contour>
      <point x="339" y="537" type="curve" smooth="yes"/>
      <point x="298" y="537"/>
      <point x="263" y="502"/>
      <point x="263" y="461" type="curve" smooth="yes"/>
      <point x="263" y="420"/>
      <point x="298" y="385"/>
      <point x="339" y="385" type="curve" smooth="yes"/>
      <point x="380" y="385"/>
      <point x="415" y="420"/>
      <point x="415" y="461" type="curve" smooth="yes"/>
      <point x="415" y="502"/>
      <point x="380" y="537"/>
    </contour>
  </outline>
</glyph>
<glyph name="AE" format="2">
  <advance width="620"/>
  <unicode hex="00C6"/>
  <outline>
    <contour>
      <point x="-29" y="0" type="curve"/>
      <point x="70" y="0" type="line"/>
      <point x="140" y="211"/>
      <point x="281" y="544"/>
      <point x="387" y="710" type="curve"/>
      <point x="293" y="710" type="line"/>
      <point x="186" y="545"/>
      <point x="52" y="226"/>
    </contour>
    <contour>
      <point x="78" y="255" type="line"/>
      <point x="48" y="170" type="line"/>
      <point x="296" y="170" type="line"/>
      <point x="326" y="255" type="line"/>
    </contour>
    <contour>
      <point x="373" y="709" type="line"/>
      <point x="255" y="0" type="line"/>
      <point x="343" y="0" type="line"/>
      <point x="457" y="710" type="line"/>
    </contour>
    <contour>
      <point x="579" y="393" type="line"/>
      <point x="343" y="393" type="line"/>
      <point x="329" y="307" type="line"/>
      <point x="565" y="307" type="line"/>
    </contour>
    <contour>
      <point x="652" y="710" type="line"/>
      <point x="317" y="710" type="line"/>
      <point x="303" y="624" type="line"/>
      <point x="638" y="624" type="line"/>
    </contour>
    <contour>
      <point x="568" y="86" type="line"/>
      <point x="289" y="86" type="line"/>
      <point x="275" y="0" type="line"/>
      <point x="554" y="0" type="line"/>
    </contour>
  </outline>
</glyph>
<glyph name="multiply" format="2">
  <advance width="620"/>
  <unicode hex="00D7"/>
  <outline>
    <contour>
      <point x="140" y="93" type="line"/>
      <point x="546" y="446" type="line"/>
      <point x="488" y="511" type="line"/>
      <point x="82" y="158" type="line"/>
    </contour>
    <contour>
      <point x="428" y="91" type="line"/>
      <point x="498" y="151" type="line"/>
      <point x="201" y="510" type="line"/>
      <point x="131" y="450" type="line"/>
    </contour>
  </outline>
</glyph>
<glyph name="Oslash" format="2">
  <advance width="620"/>
  <unicode hex="00D8"/>
  <anchor x="251" y="0" name="bottom"/>
  <anchor x="357" y="0" name="ogonek"/>
  <anchor x="384" y="710" name="top"/>
  <anchor x="527" y="679" name="topright"/>
  <outline>
    <contour>
      <point x="-6" y="-86" type="line"/>
      <point x="89" y="-86" type="line"/>
      <point x="649" y="790" type="line"/>
      <point x="649" y="796" type="line"/>
      <point x="554" y="796" type="line"/>
      <point x="-6" y="-80" type="line"/>
    </contour>
    <component base="O"/>
  </outline>
</glyph>
<glyph name="Thorn" format="2">
  <advance width="620"/>
  <unicode hex="00DE"/>
  <anchor x="295" y="0" name="bottom"/>
  <anchor x="295" y="710" name="top"/>
  <outline>
    <contour>
      <point x="105" y="710" type="line"/>
      <point x="-6" y="0" type="line"/>
      <point x="95" y="0" type="line"/>
      <point x="206" y="710" type="line"/>
    </contour>
    <contour>
      <point x="110" y="231" type="curve"/>
      <point x="110" y="140" type="line"/>
      <point x="177" y="140"/>
      <point x="246" y="140"/>
      <point x="299" y="140" type="curve" smooth="yes"/>
      <point x="482" y="140"/>
      <point x="548" y="223"/>
      <point x="570" y="367" type="curve" smooth="yes"/>
      <point x="589" y="492"/>
      <point x="507" y="594"/>
      <point x="347" y="594" type="curve" smooth="yes"/>
      <point x="307" y="594"/>
      <point x="204" y="594"/>
      <point x="130" y="594" type="curve"/>
      <point x="130" y="503" type="line"/>
      <point x="205" y="503"/>
      <point x="291" y="503"/>
      <point x="333" y="503" type="curve" smooth="yes"/>
      <point x="435" y="503"/>
      <point x="485" y="448"/>
      <point x="474" y="367" type="curve" smooth="yes"/>
      <point x="466" y="305"/>
      <point x="433" y="231"/>
      <point x="310" y="231" type="curve" smooth="yes"/>
      <point x="257" y="231"/>
      <point x="178" y="231"/>
    </contour>
  </outline>
</glyph>
<glyph name="germandbls" format="2">
  <advance width="620"/>
  <unicode hex="00DF"/>
  <outline>
    <contour>
      <point x="529" y="22"/>
      <point x="554" y="169" type="curve" smooth="yes"/>
      <point x="588" y="366"/>
      <point x="371" y="365"/>
      <point x="377" y="422" type="curve" smooth="yes"/>
      <point x="381" y="457"/>
      <point x="481" y="474"/>
      <point x="518" y="566" type="curve" smooth="yes"/>
      <point x="553" y="652"/>
      <point x="475" y="766"/>
      <point x="318" y="766" type="curve" smooth="yes"/>
      <point x="227" y="766"/>
      <point x="122" y="733"/>
      <point x="91" y="535" type="curve" smooth="yes"/>
      <point x="8" y="0" type="line"/>
      <point x="108" y="0" type="line"/>
      <point x="191" y="515" type="line" smooth="yes"/>
      <point x="210" y="636"/>
      <point x="250" y="669"/>
      <point x="323" y="669" type="curve" smooth="yes"/>
      <point x="420" y="669"/>
      <point x="441" y="595"/>
      <point x="398" y="546" type="curve" smooth="yes"/>
      <point x="371" y="516"/>
      <point x="281" y="474"/>
      <point x="272" y="411" type="curve" smooth="yes"/>
      <point x="257" y="307"/>
      <point x="478" y="313"/>
      <point x="456" y="193" type="curve" smooth="yes"/>
      <point x="439" y="102"/>
      <point x="325" y="68"/>
      <point x="200" y="121" type="curve"/>
      <point x="175" y="25" type="line"/>
      <point x="341" y="-48"/>
    </contour>
  </outline>
</glyph>
<glyph name="ae" format="2">
  <advance width="620"/>
  <unicode hex="00E6"/>
  <anchor x="310" y="0" name="bottom"/>
  <anchor x="310" y="550" name="top"/>
  <outline>
    <contour>
      <point x="311" y="152" type="line"/>
      <point x="345" y="405" type="line" smooth="yes"/>
      <point x="363" y="536"/>
      <point x="294" y="566"/>
      <point x="242" y="566" type="curve" smooth="yes"/>
      <point x="181" y="566"/>
      <point x="126" y="543"/>
      <point x="67" y="508" type="curve"/>
      <point x="111" y="441" type="line"/>
      <point x="150" y="464"/>
      <point x="189" y="481"/>
      <point x="224" y="481" type="curve" smooth="yes"/>
      <point x="287" y="481"/>
      <point x="274" y="405"/>
      <point x="261" y="334" type="curve"/>
      <point x="159" y="334"/>
      <point x="32" y="280"/>
      <point x="11" y="158" type="curve" smooth="yes"/>
      <point x="-8" y="48"/>
      <point x="57" y="-16"/>
      <point x="136" y="-16" type="curve" smooth="yes"/>
      <point x="216" y="-16"/>
      <point x="269" y="45"/>
      <point x="290" y="112" type="curve"/>
    </contour>
    <contour>
      <point x="84" y="146" type="curve" smooth="yes"/>
      <point x="95" y="211"/>
      <point x="163" y="258"/>
      <point x="252" y="258" type="curve"/>
      <point x="238" y="156" type="line"/>
      <point x="230" y="104"/>
      <point x="184" y="64"/>
      <point x="147" y="64" type="curve" smooth="yes"/>
      <point x="102" y="64"/>
      <point x="76" y="98"/>
    </contour>
    <contour>
      <point x="406" y="-16" type="curve" smooth="yes"/>
      <point x="457" y="-16"/>
      <point x="507" y="0"/>
      <point x="554" y="35" type="curve"/>
      <point x="515" y="102" type="line"/>
      <point x="487" y="78"/>
      <point x="445" y="64"/>
      <point x="411" y="64" type="curve" smooth="yes"/>
      <point x="340" y="64"/>
      <point x="312" y="143"/>
      <point x="326" y="239" type="curve"/>
      <point x="566" y="239" type="line"/>
      <point x="610" y="390"/>
      <point x="587" y="566"/>
      <point x="461" y="566" type="curve" smooth="yes"/>
      <point x="369" y="566"/>
      <point x="287" y="470"/>
      <point x="264" y="273" type="curve" smooth="yes"/>
      <point x="246" y="119"/>
      <point x="272" y="-16"/>
    </contour>
    <contour>
      <point x="339" y="312" type="line"/>
      <point x="355" y="413"/>
      <point x="393" y="485"/>
      <point x="451" y="485" type="curve" smooth="yes"/>
      <point x="510" y="485"/>
      <point x="525" y="401"/>
      <point x="506" y="312" type="curve"/>
    </contour>
  </outline>
</glyph>
<glyph name="eth" format="2">
  <advance width="620"/>
  <unicode hex="00F0"/>
  <anchor x="310" y="0" name="bottom"/>
  <anchor x="310" y="750" name="top"/>
  <outline>
    <contour>
      <point x="194" y="558" type="line"/>
      <point x="234" y="496" type="line"/>
      <point x="542" y="692" type="line"/>
      <point x="501" y="755" type="line"/>
    </contour>
    <contour>
      <point x="424" y="197" type="curve" smooth="yes"/>
      <point x="411" y="119"/>
      <point x="362" y="66"/>
      <point x="280" y="66" type="curve" smooth="yes"/>
      <point x="186" y="66"/>
      <point x="144" y="149"/>
      <point x="156" y="231" type="curve" smooth="yes"/>
      <point x="170" y="326"/>
      <point x="227" y="369"/>
      <point x="302" y="369" type="curve" smooth="yes"/>
      <point x="375" y="369"/>
      <point x="439" y="289"/>
    </contour>
    <contour>
      <point x="67" y="241" type="curve" smooth="yes"/>
      <point x="47" y="113"/>
      <point x="130" y="-16"/>
      <point x="274" y="-16" type="curve" smooth="yes"/>
      <point x="464" y="-16"/>
      <point x="532" y="136"/>
      <point x="542" y="283" type="curve" smooth="yes"/>
      <point x="552" y="432"/>
      <point x="520" y="616"/>
      <point x="278" y="766" type="curve"/>
      <point x="223" y="693" type="line"/>
      <point x="372" y="606"/>
      <point x="448" y="474"/>
      <point x="452" y="379" type="curve"/>
      <point x="432" y="414"/>
      <point x="369" y="455"/>
      <point x="308" y="455" type="curve" smooth="yes"/>
      <point x="191" y="455"/>
      <point x="89" y="383"/>
    </contour>
  </outline>
</glyph>
<glyph name="divide" format="2">
  <advance width="620"/>
  <unicode hex="00F7"/>
  <outline>
    <contour>
      <point x="557" y="347" type="line"/>
      <point x="77" y="347" type="line"/>
      <point x="63" y="258" type="line"/>
      <point x="543" y="258" type="line"/>
    </contour>
    <contour>
      <point x="274" y="77" type="curve" smooth="yes"/>
      <point x="304" y="77"/>
      <point x="334" y="102"/>
      <point x="338" y="132" type="curve" smooth="yes"/>
      <point x="343" y="162"/>
      <point x="321" y="187"/>
      <point x="291" y="187" type="curve" smooth="yes"/>
      <point x="262" y="187"/>
      <point x="233" y="162"/>
      <point x="228" y="132" type="curve" smooth="yes"/>
      <point x="224" y="102"/>
      <point x="244" y="77"/>
    </contour>
    <contour>
      <point x="327" y="418" type="curve" smooth="yes"/>
      <point x="357" y="418"/>
      <point x="387" y="443"/>
      <point x="392" y="473" type="curve" smooth="yes"/>
      <point x="396" y="503"/>
      <point x="374" y="528"/>
      <point x="344" y="528" type="curve" smooth="yes"/>
      <point x="315" y="528"/>
      <point x="286" y="503"/>
      <point x="282" y="473" type="curve" smooth="yes"/>
      <point x="277" y="443"/>
      <point x="297" y="418"/>
    </contour>
  </outline>
</glyph>
<glyph name="oslash" format="2">
  <advance width="620"/>
  <unicode hex="00F8"/>
  <anchor x="252" y="0" name="bottom"/>
  <anchor x="355" y="-3" name="ogonek"/>
  <anchor x="365" y="550" name="top"/>
  <anchor x="476" y="523" name="topright"/>
  <outline>
    <contour>
      <point x="-3" y="-86" type="line"/>
      <point x="89" y="-86" type="line"/>
      <point x="615" y="631" type="line"/>
      <point x="615" y="637" type="line"/>
      <point x="523" y="637" type="line"/>
      <point x="-3" y="-80" type="line"/>
    </contour>
    <component base="o"/>
  </outline>
</glyph>
<glyph name="thorn" format="2">
  <advance width="620"/>
  <unicode hex="00FE"/>
  <outline>
    <contour>
      <point x="297" y="-16" type="curve" smooth="yes"/>
      <point x="434" y="-16"/>
      <point x="527" y="109"/>
      <point x="551" y="254" type="curve" smooth="yes"/>
      <point x="575" y="402"/>
      <point x="516" y="557"/>
      <point x="378" y="557" type="curve" smooth="yes"/>
      <point x="247" y="557"/>
      <point x="154" y="424"/>
      <point x="135" y="296" type="curve" smooth="yes"/>
      <point x="113" y="150"/>
      <point x="163" y="-16"/>
    </contour>
    <contour>
      <point x="300" y="71" type="curve" smooth="yes"/>
      <point x="210" y="71"/>
      <point x="162" y="196"/>
      <point x="180" y="292" type="curve" smooth="yes"/>
      <point x="196" y="377"/>
      <point x="266" y="470"/>
      <point x="360" y="470" type="curve" smooth="yes"/>
      <point x="456" y="470"/>
      <point x="472" y="348"/>
      <point x="458" y="256" type="curve" smooth="yes"/>
      <point x="445" y="169"/>
      <point x="385" y="71"/>
    </contour>
    <contour>
      <point x="172" y="750" type="line"/>
      <point x="23" y="-200" type="line"/>
      <point x="117" y="-200" type="line"/>
      <point x="266" y="750" type="line"/>
    </contour>
  </outline>
</glyph>
<glyph name="dcaron" format="2">
  <advance width="620"/>
  <unicode hex="010F"/>
  <outline>
    <contour>
      <point x="327" y="72" type="line"/>
      <point x="338" y="63" type="line"/>
      <point x="354" y="22"/>
      <point x="387" y="-13"/>
      <point x="494" y="-9" type="curve"/>
      <point x="510" y="75" type="line"/>
      <point x="435" y="80"/>
      <point x="420" y="96"/>
      <point x="432" y="169" type="curve" smooth="yes"/>
      <point x="526" y="750" type="line"/>
      <point x="429" y="750" type="line"/>
    </contour>
    <contour>
      <point x="421" y="25" type="curve"/>
      <point x="380" y="94" type="line"/>
      <point x="339" y="76"/>
      <point x="294" y="67"/>
      <point x="254" y="69" type="curve" smooth="yes"/>
      <point x="160" y="74"/>
      <point x="96" y="172"/>
      <point x="115" y="303" type="curve" smooth="yes"/>
      <point x="132" y="419"/>
      <point x="190" y="471"/>
      <point x="270" y="471" type="curve" smooth="yes"/>
      <point x="332" y="471"/>
      <point x="385" y="425"/>
      <point x="388" y="378" type="curve"/>
      <point x="429" y="378" type="line"/>
      <point x="442" y="460"/>
      <point x="390" y="557"/>
      <point x="267" y="559" type="curve" smooth="yes"/>
      <point x="155" y="561"/>
      <point x="47" y="490"/>
      <point x="22" y="321" type="curve" smooth="yes"/>
      <point x="-5" y="138"/>
      <point x="98" y="-14"/>
      <point x="249" y="-16" type="curve" smooth="yes"/>
      <point x="315" y="-17"/>
      <point x="369" y="-1"/>
    </contour>
    <component base="caroncomb.alt" xOffset="66"/>
  </outline>
</glyph>
<glyph name="Dcroat" format="2">
  <advance width="620"/>
  <unicode hex="0110"/>
  <outline>
    <contour>
      <point x="30" y="391" type="line"/>
      <point x="16" y="305" type="line"/>
      <point x="347" y="305" type="line"/>
      <point x="361" y="391" type="line"/>
    </contour>
    <contour>
      <point x="154" y="710" type="line"/>
      <point x="39" y="0" type="line"/>
      <point x="137" y="0" type="line"/>
      <point x="252" y="710" type="line"/>
    </contour>
    <contour>
      <point x="127" y="89" type="curve"/>
      <point x="112" y="0" type="line"/>
      <point x="136" y="0"/>
      <point x="195" y="0"/>
      <point x="219" y="0" type="curve" smooth="yes"/>
      <point x="441" y="0"/>
      <point x="560" y="118"/>
      <point x="599" y="357" type="curve" smooth="yes"/>
      <point x="634" y="569"/>
      <point x="499" y="709"/>
      <point x="327" y="710" type="curve" smooth="yes"/>
      <point x="292" y="710"/>
      <point x="266" y="710"/>
      <point x="227" y="710" type="curve"/>
      <point x="213" y="621" type="line"/>
      <point x="254" y="621"/>
      <point x="283" y="621"/>
      <point x="315" y="621" type="curve" smooth="yes"/>
      <point x="463" y="621"/>
      <point x="523" y="499"/>
      <point x="501" y="354" type="curve" smooth="yes"/>
      <point x="480" y="213"/>
      <point x="412" y="89"/>
      <point x="219" y="89" type="curve" smooth="yes"/>
      <point x="199" y="89"/>
      <point x="153" y="89"/>
    </contour>
  </outline>
</glyph>
<glyph name="dcroat" format="2">
  <advance width="620"/>
  <unicode hex="0111"/>
  <anchor x="270" y="0" name="bottom"/>
  <anchor x="390" y="750" name="top"/>
  <outline>
    <contour>
      <point x="306" y="677" type="line"/>
      <point x="292" y="603" type="line"/>
      <point x="618" y="603" type="line"/>
      <point x="632" y="677" type="line"/>
    </contour>
    <contour>
      <point x="355" y="72" type="line"/>
      <point x="366" y="63" type="line"/>
      <point x="382" y="22"/>
      <point x="415" y="-13"/>
      <point x="522" y="-9" type="curve"/>
      <point x="538" y="75" type="line"/>
      <point x="463" y="80"/>
      <point x="448" y="96"/>
      <point x="460" y="169" type="curve" smooth="yes"/>
      <point x="554" y="750" type="line"/>
      <point x="457" y="750" type="line"/>
    </contour>
    <contour>
      <point x="443" y="25" type="curve"/>
      <point x="402" y="94" type="line"/>
      <point x="361" y="76"/>
      <point x="316" y="67"/>
      <point x="276" y="69" type="curve" smooth="yes"/>
      <point x="176" y="74"/>
      <point x="117" y="170"/>
      <point x="135" y="298" type="curve" smooth="yes"/>
      <point x="151" y="414"/>
      <point x="213" y="457"/>
      <point x="284" y="457" type="curve" smooth="yes"/>
      <point x="343" y="457"/>
      <point x="408" y="411"/>
      <point x="411" y="364" type="curve"/>
      <point x="452" y="364" type="line"/>
      <point x="466" y="445"/>
      <point x="402" y="542"/>
      <point x="282" y="545" type="curve" smooth="yes"/>
      <point x="190" y="547"/>
      <point x="71" y="490"/>
      <point x="42" y="316" type="curve" smooth="yes"/>
      <point x="11" y="131"/>
      <point x="114" y="-14"/>
      <point x="271" y="-16" type="curve" smooth="yes"/>
      <point x="337" y="-17"/>
      <point x="391" y="-1"/>
    </contour>
  </outline>
</glyph>
<glyph name="Hbar" format="2">
  <advance width="620"/>
  <unicode hex="0126"/>
  <anchor x="265" y="0" name="bottom"/>
  <anchor x="372" y="710" name="top"/>
  <outline>
    <contour>
      <point x="66" y="604" type="line"/>
      <point x="54" y="530" type="line"/>
      <point x="646" y="530" type="line"/>
      <point x="658" y="604" type="line"/>
    </contour>
    <component base="H"/>
  </outline>
</glyph>
<glyph name="hbar" format="2">
  <advance width="620"/>
  <unicode hex="0127"/>
  <anchor x="310" y="0" name="bottom"/>
  <anchor x="310" y="750" name="top"/>
  <outline>
    <contour>
      <point x="199" y="750" type="line"/>
      <point x="83" y="0" type="line"/>
      <point x="181" y="0" type="line"/>
      <point x="294" y="750" type="line"/>
    </contour>
    <contour>
      <point x="109" y="677" type="line"/>
      <point x="95" y="603" type="line"/>
      <point x="422" y="603" type="line"/>
      <point x="436" y="677" type="line"/>
    </contour>
    <contour>
      <point x="196" y="443" type="curve"/>
      <point x="196" y="366" type="line"/>
      <point x="262" y="419"/>
      <point x="324" y="454"/>
      <point x="381" y="454" type="curve" smooth="yes"/>
      <point x="435" y="454"/>
      <point x="454" y="415"/>
      <point x="443" y="339" type="curve" smooth="yes"/>
      <point x="411" y="124" type="line" smooth="yes"/>
      <point x="395" y="17"/>
      <point x="474" y="-16"/>
      <point x="542" y="-16" type="curve"/>
      <point x="556" y="66" type="line"/>
      <point x="516" y="69"/>
      <point x="498" y="91"/>
      <point x="505" y="129" type="curve" smooth="yes"/>
      <point x="543" y="344" type="line" smooth="yes"/>
      <point x="566" y="473"/>
      <point x="514" y="543"/>
      <point x="423" y="544" type="curve" smooth="yes"/>
      <point x="349" y="545"/>
      <point x="257" y="493"/>
    </contour>
  </outline>
</glyph>
<glyph name="idotless" format="2">
  <advance width="620"/>
  <unicode hex="0131"/>
  <anchor x="273" y="0" name="bottom"/>
  <anchor x="444" y="5" name="ogonek"/>
  <anchor x="325" y="550" name="top"/>
  <outline>
    <contour>
      <point x="106" y="477" type="curve"/>
      <point x="93" y="397" type="line"/>
      <point x="200" y="387"/>
      <point x="298" y="403"/>
      <point x="366" y="489" type="curve"/>
      <point x="322" y="512" type="line"/>
      <point x="275" y="485"/>
      <point x="191" y="469"/>
    </contour>
    <contour>
      <point x="532" y="53" type="curve"/>
      <point x="484" y="125" type="line"/>
      <point x="455" y="105"/>
      <point x="413" y="80"/>
      <point x="373" y="80" type="curve" smooth="yes"/>
      <point x="328" y="80"/>
      <point x="303" y="116"/>
      <point x="320" y="217" type="curve" smooth="yes"/>
      <point x="366" y="489" type="line"/>
      <point x="269" y="478" type="line"/>
      <point x="221" y="187" type="line" smooth="yes"/>
      <point x="200" y="60"/>
      <point x="254" y="-16"/>
      <point x="350" y="-16" type="curve" smooth="yes"/>
      <point x="421" y="-16"/>
      <point x="478" y="15"/>
    </contour>
  </outline>
</glyph>
<glyph name="Lslash" format="2">
  <advance width="620"/>
  <unicode hex="0141"/>
  <anchor x="260" y="0" name="bottom"/>
  <anchor x="207" y="355" name="center"/>
  <anchor x="208" y="710" name="top"/>
  <anchor x="264" y="710" name="topright"/>
  <outline>
    <contour>
      <point x="406" y="540" type="line"/>
      <point x="400" y="540" type="line"/>
      <point x="22" y="317" type="line"/>
      <point x="7" y="216" type="line"/>
      <point x="13" y="216" type="line"/>
      <point x="391" y="439" type="line"/>
    </contour>
    <component base="L"/>
  </outline>
</glyph>
<glyph name="lslash" format="2">
  <advance width="620"/>
  <unicode hex="0142"/>
  <anchor x="264" y="0" name="bottom"/>
  <anchor x="331" y="355" name="center"/>
  <anchor x="358" y="750" name="top"/>
  <anchor x="392" y="750" name="topright"/>
  <outline>
    <contour>
      <point x="514" y="565" type="line"/>
      <point x="508" y="565" type="line"/>
      <point x="83" y="315" type="line"/>
      <point x="67" y="214" type="line"/>
      <point x="73" y="214" type="line"/>
      <point x="498" y="464" type="line"/>
    </contour>
    <component base="l"/>
  </outline>
</glyph>
<glyph name="Eng" format="2">
  <advance width="620"/>
  <unicode hex="014A"/>
  <anchor x="310" y="0" name="bottom"/>
  <anchor x="310" y="710" name="top"/>
  <outline>
    <contour>
      <point x="512" y="7" type="line"/>
      <point x="233" y="710" type="line"/>
      <point x="120" y="710" type="line"/>
      <point x="429" y="-29" type="line"/>
    </contour>
    <contour>
      <point x="116" y="710" type="line"/>
      <point x="5" y="0" type="line"/>
      <point x="105" y="0" type="line"/>
      <point x="216" y="710" type="line"/>
    </contour>
    <contour>
      <point x="530" y="710" type="line"/>
      <point x="416" y="0" type="line"/>
      <point x="516" y="0" type="line"/>
      <point x="630" y="710" type="line"/>
    </contour>
    <contour>
      <point x="297" y="-113" type="line"/>
      <point x="283" y="-200" type="line"/>
      <point x="376" y="-200" type="line" smooth="yes"/>
      <point x="465" y="-200"/>
      <point x="489" y="-160"/>
      <point x="517" y="7" type="curve"/>
      <point x="419" y="7" type="line"/>
      <point x="401" y="-98"/>
      <point x="392" y="-113"/>
      <point x="338" y="-113" type="curve" smooth="yes"/>
    </contour>
  </outline>
</glyph>
<glyph name="eng" format="2">
  <advance width="620"/>
  <unicode hex="014B"/>
  <anchor x="310" y="0" name="bottom"/>
  <anchor x="310" y="550" name="top"/>
  <outline>
    <contour>
      <point x="271" y="-112" type="line"/>
      <point x="258" y="-200" type="line"/>
      <point x="322" y="-200" type="line" smooth="yes"/>
      <point x="447" y="-200"/>
      <point x="474" y="-119"/>
      <point x="494" y="7" type="curve" smooth="yes"/>
      <point x="553" y="377" type="line" smooth="yes"/>
      <point x="573" y="503"/>
      <point x="489" y="565"/>
      <point x="411" y="566" type="curve" smooth="yes"/>
      <point x="335" y="567"/>
      <point x="245" y="514"/>
      <point x="184" y="464" type="curve"/>
      <point x="175" y="379" type="line"/>
      <point x="253" y="444"/>
      <point x="321" y="470"/>
      <point x="372" y="470" type="curve" smooth="yes"/>
      <point x="435" y="470"/>
      <point x="466" y="429"/>
      <point x="455" y="361" type="curve" smooth="yes"/>
      <point x="399" y="7" type="line" smooth="yes"/>
      <point x="382" y="-99"/>
      <point x="370" y="-112"/>
      <point x="312" y="-112" type="curve" smooth="yes"/>
    </contour>
    <contour>
      <point x="142" y="0" type="line"/>
      <point x="220" y="458" type="line"/>
      <point x="205" y="554" type="line"/>
      <point x="135" y="554" type="line"/>
      <point x="45" y="0" type="line"/>
    </contour>
  </outline>
</glyph>
<glyph name="OE" format="2">
  <advance width="620"/>
  <unicode hex="0152"/>
  <anchor x="310" y="0" name="bottom"/>
  <anchor x="310" y="710" name="top"/>
  <outline>
    <contour>
      <point x="358" y="572" type="curve"/>
      <point x="413" y="638" type="line"/>
      <point x="405" y="674"/>
      <point x="358" y="726"/>
      <point x="295" y="726" type="curve" smooth="yes"/>
      <point x="186" y="726"/>
      <point x="78" y="646"/>
      <point x="34" y="373" type="curve" smooth="yes"/>
      <point x="7" y="208"/>
      <point x="34" y="-16"/>
      <point x="183" y="-16" type="curve" smooth="yes"/>
      <point x="255" y="-16"/>
      <point x="293" y="16"/>
      <point x="327" y="62" type="curve"/>
      <point x="291" y="147" type="line"/>
      <point x="280" y="102"/>
      <point x="244" y="76"/>
      <point x="198" y="76" type="curve" smooth="yes"/>
      <point x="123" y="76"/>
      <point x="99" y="193"/>
      <point x="126" y="363" type="curve" smooth="yes"/>
      <point x="148" y="502"/>
      <point x="197" y="632"/>
      <point x="285" y="632" type="curve" smooth="yes"/>
      <point x="328" y="632"/>
      <point x="354" y="589"/>
    </contour>
    <contour>
      <point x="407" y="710" type="line"/>
      <point x="363" y="660" type="line"/>
      <point x="262" y="50" type="line"/>
      <point x="302" y="0" type="line"/>
      <point x="343" y="0" type="line"/>
      <point x="455" y="710" type="line"/>
    </contour>
    <contour>
      <point x="646" y="710" type="line"/>
      <point x="426" y="710" type="line"/>
      <point x="425" y="624" type="line"/>
      <point x="632" y="624" type="line"/>
    </contour>
    <contour>
      <point x="574" y="86" type="line"/>
      <point x="328" y="86" type="line"/>
      <point x="314" y="0" type="line"/>
      <point x="560" y="0" type="line"/>
    </contour>
    <contour>
      <point x="582" y="393" type="line"/>
      <point x="343" y="393" type="line"/>
      <point x="329" y="307" type="line"/>
      <point x="568" y="307" type="line"/>
    </contour>
  </outline>
</glyph>
<glyph name="oe" format="2">
  <advance width="620"/>
  <unicode hex="0153"/>
  <anchor x="310" y="0" name="bottom"/>
  <anchor x="310" y="550" name="top"/>
  <outline>
    <contour>
      <point x="154" y="-16" type="curve" smooth="yes"/>
      <point x="296" y="-16"/>
      <point x="328" y="116"/>
      <point x="344" y="272" type="curve" smooth="yes"/>
      <point x="362" y="451"/>
      <point x="325" y="566"/>
      <point x="220" y="566" type="curve" smooth="yes"/>
      <point x="101" y="566"/>
      <point x="44" y="451"/>
      <point x="21" y="292" type="curve" smooth="yes"/>
      <point x="-3" y="124"/>
      <point x="40" y="-16"/>
    </contour>
    <contour>
      <point x="159" y="66" type="curve" smooth="yes"/>
      <point x="88" y="66"/>
      <point x="83" y="190"/>
      <point x="98" y="292" type="curve" smooth="yes"/>
      <point x="111" y="379"/>
      <point x="142" y="485"/>
      <point x="209" y="485" type="curve" smooth="yes"/>
      <point x="280" y="485"/>
      <point x="277" y="379"/>
      <point x="265" y="272" type="curve" smooth="yes"/>
      <point x="256" y="190"/>
      <point x="237" y="66"/>
    </contour>
    <contour>
      <point x="419" y="-16" type="curve" smooth="yes"/>
      <point x="470" y="-16"/>
      <point x="520" y="0"/>
      <point x="567" y="35" type="curve"/>
      <point x="528" y="102" type="line"/>
      <point x="500" y="78"/>
      <point x="458" y="64"/>
      <point x="424" y="64" type="curve" smooth="yes"/>
      <point x="353" y="64"/>
      <point x="326" y="143"/>
      <point x="340" y="239" type="curve"/>
      <point x="579" y="239" type="line"/>
      <point x="623" y="390"/>
      <point x="600" y="566"/>
      <point x="474" y="566" type="curve" smooth="yes"/>
      <point x="382" y="566"/>
      <point x="293" y="465"/>
      <point x="272" y="273" type="curve" smooth="yes"/>
      <point x="256" y="124"/>
      <point x="285" y="-16"/>
    </contour>
    <contour>
      <point x="352" y="312" type="line"/>
      <point x="368" y="413"/>
      <point x="406" y="485"/>
      <point x="464" y="485" type="curve" smooth="yes"/>
      <point x="523" y="485"/>
      <point x="538" y="401"/>
      <point x="519" y="312" type="curve"/>
    </contour>
  </outline>
</glyph>
<glyph name="Tcedilla" format="2">
  <advance width="620"/>
  <unicode hex="0162"/>
  <anchor x="263" y="0" name="bottom"/>
  <anchor x="377" y="710" name="top"/>
  <outline>
    <contour>
      <point x="307" y="15" type="line"/>
      <point x="244" y="15" type="line"/>
      <point x="188" y="-71" type="line"/>
      <point x="208" y="-106" type="line"/>
      <point x="284" y="-82"/>
      <point x="316" y="-102"/>
      <point x="311" y="-131" type="curve" smooth="yes"/>
      <point x="305" y="-164"/>
      <point x="260" y="-178"/>
      <point x="230" y="-178" type="curve" smooth="yes"/>
      <point x="204" y="-178"/>
      <point x="168" y="-170"/>
      <point x="137" y="-149" type="curve"/>
      <point x="104" y="-202" type="line"/>
      <point x="132" y="-223"/>
      <point x="178" y="-238"/>
      <point x="224" y="-238" type="curve" smooth="yes"/>
      <point x="302" y="-238"/>
      <point x="367" y="-198"/>
      <point x="378" y="-136" type="curve" smooth="yes"/>
      <point x="388" y="-82"/>
      <point x="341" y="-35"/>
      <point x="264" y="-46" type="curve"/>
    </contour>
    <component base="T"/>
  </outline>
</glyph>
<glyph name="Tbar" format="2">
  <advance width="620"/>
  <unicode hex="0166"/>
  <anchor x="263" y="0" name="bottom"/>
  <anchor x="377" y="710" name="top"/>
  <outline>
    <contour>
      <point x="127" y="404" type="line"/>
      <point x="115" y="330" type="line"/>
      <point x="527" y="330" type="line"/>
      <point x="539" y="404" type="line"/>
    </contour>
    <component base="T"/>
  </outline>
</glyph>
<glyph name="tbar" format="2">
  <advance width="620"/>
  <unicode hex="0167"/>
  <anchor x="300" y="0" name="bottom"/>
  <anchor x="310" y="285" name="center"/>
  <anchor x="355" y="750" name="top"/>
  <anchor x="360" y="750" name="topright"/>
  <outline>
    <contour>
      <point x="104" y="354" type="line"/>
      <point x="104" y="280" type="line"/>
      <point x="454" y="280" type="line"/>
      <point x="454" y="354" type="line"/>
    </contour>
    <component base="t"/>
  </outline>
</glyph>
<glyph name="Schwa" format="2">
  <advance width="620"/>
  <unicode hex="018F"/>
  <outline>
    <contour>
      <point x="136" y="670" type="curve"/>
      <point x="179" y="586" type="line"/>
      <point x="242" y="615"/>
      <point x="285" y="629"/>
      <point x="338" y="629" type="curve" smooth="yes"/>
      <point x="459" y="629"/>
      <point x="501" y="537"/>
      <point x="486" y="397" type="curve"/>
      <point x="76" y="397" type="line"/>
      <point x="-1" y="183"/>
      <point x="72" y="-16"/>
      <point x="269" y="-16" type="curve" smooth="yes"/>
      <point x="439" y="-16"/>
      <point x="544" y="83"/>
      <point x="586" y="356" type="curve" smooth="yes"/>
      <point x="614" y="541"/>
      <point x="552" y="726"/>
      <point x="357" y="726" type="curve" smooth="yes"/>
      <point x="288" y="726"/>
      <point x="222" y="711"/>
    </contour>
    <contour>
      <point x="473" y="304" type="line"/>
      <point x="454" y="182"/>
      <point x="402" y="78"/>
      <point x="270" y="78" type="curve" smooth="yes"/>
      <point x="181" y="78"/>
      <point x="117" y="160"/>
      <point x="152" y="304" type="curve"/>
    </contour>
  </outline>
</glyph>
<glyph name="Uhorn" format="2">
  <advance width="620"/>
  <unicode hex="01AF"/>
  <anchor x="241" y="0" name="bottom"/>
  <anchor x="352" y="710" name="top"/>
  <outline>
    <contour>
      <point x="496" y="710" type="line"/>
      <point x="426" y="277" type="line" smooth="yes"/>
      <point x="404" y="142"/>
      <point x="346" y="83"/>
      <point x="265" y="83" type="curve" smooth="yes"/>
      <point x="183" y="83"/>
      <point x="134" y="157"/>
      <point x="155" y="287" type="curve" smooth="yes"/>
      <point x="222" y="710" type="line"/>
      <point x="120" y="710" type="line"/>
      <point x="52" y="287" type="line" smooth="yes"/>
      <point x="19" y="82"/>
      <point x="142" y="-15"/>
      <point x="255" y="-15" type="curve" smooth="yes"/>
      <point x="384" y="-15"/>
      <point x="493" y="63"/>
      <point x="528" y="277" type="curve" smooth="yes"/>
      <point x="598" y="710" type="line"/>
    </contour>
    <component base="horncomb.case" xOffset="273"/>
  </outline>
</glyph>
<glyph name="jdotless" format="2">
  <advance width="620"/>
  <unicode hex="0237"/>
  <anchor x="228" y="-200" name="bottom"/>
  <anchor x="374" y="550" name="top"/>
  <outline>
    <contour>
      <point x="181" y="459" type="curve"/>
      <point x="167" y="372" type="line"/>
      <point x="294" y="358"/>
      <point x="444" y="368"/>
      <point x="516" y="490" type="curve"/>
      <point x="469" y="514" type="line"/>
      <point x="400" y="472"/>
      <point x="292" y="447"/>
    </contour>
    <contour>
      <point x="57" y="-57" type="curve"/>
      <point x="3" y="-136" type="line"/>
      <point x="64" y="-175"/>
      <point x="135" y="-216"/>
      <point x="213" y="-216" type="curve" smooth="yes"/>
      <point x="379" y="-216"/>
      <point x="420" y="-98"/>
      <point x="442" y="36" type="curve" smooth="yes"/>
      <point x="516" y="490" type="line"/>
      <point x="413" y="465" type="line"/>
      <point x="347" y="36" type="line" smooth="yes"/>
      <point x="333" y="-54"/>
      <point x="302" y="-123"/>
      <point x="216" y="-123" type="curve" smooth="yes"/>
      <point x="163" y="-123"/>
      <point x="97" y="-83"/>
    </contour>
  </outline>
</glyph>
<glyph name="schwa" format="2">
  <advance width="620"/>
  <unicode hex="0259"/>
  <outline>
    <contour>
      <point x="147" y="531" type="curve"/>
      <point x="168" y="449" type="line"/>
      <point x="218" y="462"/>
      <point x="271" y="476"/>
      <point x="335" y="476" type="curve" smooth="yes"/>
      <point x="433" y="476"/>
      <point x="479" y="401"/>
      <point x="469" y="322" type="curve"/>
      <point x="94" y="322" type="line"/>
      <point x="36" y="177"/>
      <point x="91" y="-16"/>
      <point x="287" y="-16" type="curve" smooth="yes"/>
      <point x="441" y="-16"/>
      <point x="532" y="69"/>
      <point x="559" y="245" type="curve" smooth="yes"/>
      <point x="587" y="431"/>
      <point x="517" y="566"/>
      <point x="352" y="566" type="curve" smooth="yes"/>
      <point x="271" y="566"/>
      <point x="217" y="553"/>
    </contour>
    <contour>
      <point x="456" y="237" type="line"/>
      <point x="440" y="137"/>
      <point x="384" y="73"/>
      <point x="286" y="73" type="curve" smooth="yes"/>
      <point x="192" y="73"/>
      <point x="143" y="155"/>
      <point x="164" y="237" type="curve"/>
    </contour>
  </outline>
</glyph>
<glyph name="ringhalfright" format="2">
  <advance width="620"/>
  <unicode hex="02BE"/>
  <outline>
    <contour>
      <point x="283" y="507" type="curve"/>
      <point x="272" y="442" type="line"/>
      <point x="382" y="442"/>
      <point x="455" y="492"/>
      <point x="469" y="583" type="curve" smooth="yes"/>
      <point x="483" y="671"/>
      <point x="423" y="750"/>
      <point x="322" y="750" type="curve"/>
      <point x="312" y="688" type="line"/>
      <point x="376" y="688"/>
      <point x="409" y="643"/>
      <point x="403" y="594" type="curve" smooth="yes"/>
      <point x="397" y="544"/>
      <point x="353" y="507"/>
    </contour>
  </outline>
</glyph>
<glyph name="ringhalfleft" format="2">
  <advance width="620"/>
  <unicode hex="02BF"/>
  <outline>
    <contour>
  </contour>
    <contour>
      <point x="439" y="685" type="curve"/>
      <point x="450" y="750" type="line"/>
      <point x="340" y="750"/>
      <point x="267" y="700"/>
      <point x="253" y="609" type="curve" smooth="yes"/>
      <point x="239" y="521"/>
      <point x="299" y="442"/>
      <point x="400" y="442" type="curve"/>
      <point x="410" y="504" type="line"/>
      <point x="346" y="504"/>
      <point x="313" y="549"/>
      <point x="319" y="598" type="curve" smooth="yes"/>
      <point x="325" y="648"/>
      <point x="369" y="685"/>
    </contour>
  </outline>
</glyph>
<glyph name="verticallinemod" format="2">
  <advance width="620"/>
  <unicode hex="02C8"/>
  <outline>
    <contour>
      <point x="436" y="750" type="line"/>
      <point x="334" y="750" type="line"/>
      <point x="278" y="390" type="line"/>
      <point x="380" y="390" type="line"/>
    </contour>
  </outline>
</glyph>
<glyph name="verticallinelowmod" format="2">
  <advance width="620"/>
  <unicode hex="02CC"/>
  <outline>
    <contour>
      <point x="342" y="160" type="line"/>
      <point x="240" y="160" type="line"/>
      <point x="184" y="-200" type="line"/>
      <point x="286" y="-200" type="line"/>
    </contour>
  </outline>
</glyph>
<glyph name="gravecomb" format="2">
  <unicode hex="0300"/>
  <anchor x="350" y="550" name="_top"/>
  <outline>
    <contour>
      <point x="340" y="786" type="line"/>
      <point x="234" y="786" type="line"/>
      <point x="234" y="780" type="line"/>
      <point x="313" y="628" type="line"/>
      <point x="382" y="628" type="line"/>
    </contour>
  </outline>
</glyph>
<glyph name="acutecomb" format="2">
  <unicode hex="0301"/>
  <anchor x="350" y="550" name="_top"/>
  <outline>
    <contour>
      <point x="395" y="786" type="line"/>
      <point x="324" y="628" type="line"/>
      <point x="396" y="628" type="line"/>
      <point x="510" y="780" type="line"/>
      <point x="510" y="786" type="line"/>
    </contour>
  </outline>
</glyph>
<glyph name="circumflexcomb" format="2">
  <unicode hex="0302"/>
  <anchor x="350" y="550" name="_top"/>
  <outline>
    <contour>
      <point x="423" y="786" type="line"/>
      <point x="335" y="786" type="line"/>
      <point x="335" y="771" type="line"/>
      <point x="444" y="628" type="line"/>
      <point x="522" y="628" type="line"/>
    </contour>
    <contour>
      <point x="329" y="786" type="line"/>
      <point x="189" y="634" type="line"/>
      <point x="189" y="628" type="line"/>
      <point x="274" y="628" type="line"/>
      <point x="419" y="771" type="line"/>
      <point x="419" y="786" type="line"/>
    </contour>
  </outline>
</glyph>
<glyph name="tildecomb" format="2">
  <unicode hex="0303"/>
  <anchor x="350" y="550" name="_top"/>
  <outline>
    <contour>
      <point x="544" y="706" type="curve"/>
      <point x="500" y="759" type="line"/>
      <point x="423" y="696"/>
      <point x="422" y="694"/>
      <point x="377" y="730" type="curve" smooth="yes"/>
      <point x="302" y="789"/>
      <point x="295" y="791"/>
      <point x="171" y="695" type="curve"/>
      <point x="218" y="641" type="line"/>
      <point x="301" y="704"/>
      <point x="302" y="707"/>
      <point x="357" y="665" type="curve" smooth="yes"/>
      <point x="424" y="613"/>
      <point x="435" y="609"/>
    </contour>
  </outline>
</glyph>
<glyph name="macroncomb" format="2">
  <unicode hex="0304"/>
  <anchor x="350" y="550" name="_top"/>
  <outline>
    <contour>
      <point x="212" y="723" type="line"/>
      <point x="200" y="642" type="line"/>
      <point x="510" y="642" type="line"/>
      <point x="522" y="723" type="line"/>
    </contour>
  </outline>
</glyph>
<glyph name="brevecomb" format="2">
  <unicode hex="0306"/>
  <anchor x="350" y="550" name="_top"/>
  <outline>
    <contour>
      <point x="540" y="787" type="curve"/>
      <point x="464" y="787" type="line"/>
      <point x="454" y="726"/>
      <point x="415" y="691"/>
      <point x="364" y="691" type="curve" smooth="yes"/>
      <point x="314" y="691"/>
      <point x="286" y="732"/>
      <point x="294" y="787" type="curve"/>
      <point x="218" y="787" type="line"/>
      <point x="205" y="701"/>
      <point x="263" y="624"/>
      <point x="357" y="624" type="curve" smooth="yes"/>
      <point x="460" y="624"/>
      <point x="523" y="692"/>
    </contour>
  </outline>
</glyph>
<glyph name="dotaccentcomb" format="2">
  <unicode hex="0307"/>
  <anchor x="350" y="550" name="_top"/>
  <outline>
    <contour>
      <point x="362" y="628" type="curve" smooth="yes"/>
      <point x="401" y="628"/>
      <point x="431" y="658"/>
      <point x="431" y="697" type="curve" smooth="yes"/>
      <point x="431" y="735"/>
      <point x="401" y="766"/>
      <point x="362" y="766" type="curve" smooth="yes"/>
      <point x="325" y="766"/>
      <point x="293" y="735"/>
      <point x="293" y="697" type="curve" smooth="yes"/>
      <point x="293" y="658"/>
      <point x="325" y="628"/>
    </contour>
  </outline>
</glyph>
<glyph name="dieresiscomb" format="2">
  <unicode hex="0308"/>
  <anchor x="350" y="555" name="_top"/>
  <outline>
    <contour>
      <point x="221" y="750" type="line"/>
      <point x="203" y="637" type="line"/>
      <point x="316" y="637" type="line"/>
      <point x="334" y="750" type="line"/>
    </contour>
    <contour>
      <point x="422" y="750" type="line"/>
      <point x="404" y="637" type="line"/>
      <point x="517" y="637" type="line"/>
      <point x="535" y="750" type="line"/>
    </contour>
  </outline>
</glyph>
<glyph name="hookabovecomb" format="2">
  <unicode hex="0309"/>
  <anchor x="350" y="550" name="_top"/>
  <outline>
    <contour>
      <point x="321" y="644" type="curve" smooth="yes"/>
      <point x="318" y="627" type="line"/>
      <point x="390" y="627" type="line"/>
      <point x="393" y="638" type="line" smooth="yes"/>
      <point x="395" y="647"/>
      <point x="405" y="653"/>
      <point x="412" y="657" type="curve" smooth="yes"/>
      <point x="428" y="667"/>
      <point x="443" y="671"/>
      <point x="464" y="689" type="curve" smooth="yes"/>
      <point x="488" y="709"/>
      <point x="484" y="743"/>
      <point x="470" y="762" type="curve" smooth="yes"/>
      <point x="445" y="796"/>
      <point x="368" y="816"/>
      <point x="256" y="813" type="curve"/>
      <point x="245" y="752" type="line"/>
      <point x="296" y="753"/>
      <point x="383" y="750"/>
      <point x="408" y="735" type="curve" smooth="yes"/>
      <point x="415" y="731"/>
      <point x="414" y="720"/>
      <point x="409" y="716" type="curve" smooth="yes"/>
      <point x="390" y="702"/>
      <point x="372" y="695"/>
      <point x="341" y="675" type="curve" smooth="yes"/>
      <point x="332" y="669"/>
      <point x="323" y="657"/>
    </contour>
    <contour>
  </contour>
  </outline>
</glyph>
<glyph name="ringcomb" format="2">
  <unicode hex="030A"/>
  <anchor x="350" y="550" name="_top"/>
  <outline>
    <contour>
      <point x="360" y="612" type="curve" smooth="yes"/>
      <point x="427" y="612"/>
      <point x="465" y="659"/>
      <point x="470" y="711" type="curve" smooth="yes"/>
      <point x="475" y="766"/>
      <point x="438" y="814"/>
      <point x="370" y="814" type="curve" smooth="yes"/>
      <point x="301" y="814"/>
      <point x="265" y="768"/>
      <point x="260" y="714" type="curve" smooth="yes"/>
      <point x="255" y="661"/>
      <point x="292" y="612"/>
    </contour>
    <contour>
      <point x="364" y="667" type="curve" smooth="yes"/>
      <point x="335" y="667"/>
      <point x="317" y="688"/>
      <point x="319" y="713" type="curve" smooth="yes"/>
      <point x="321" y="738"/>
      <point x="340" y="759"/>
      <point x="367" y="759" type="curve" smooth="yes"/>
      <point x="396" y="759"/>
      <point x="413" y="738"/>
      <point x="411" y="713" type="curve" smooth="yes"/>
      <point x="409" y="688"/>
      <point x="391" y="667"/>
    </contour>
  </outline>
</glyph>
<glyph name="hungarumlautcomb" format="2">
  <unicode hex="030B"/>
  <anchor x="350" y="550" name="_top"/>
  <outline>
    <contour>
      <point x="460" y="786" type="line"/>
      <point x="387" y="628" type="line"/>
      <point x="458" y="628" type="line"/>
      <point x="564" y="780" type="line"/>
      <point x="564" y="786" type="line"/>
    </contour>
    <contour>
      <point x="322" y="786" type="line"/>
      <point x="249" y="628" type="line"/>
      <point x="320" y="628" type="line"/>
      <point x="426" y="780" type="line"/>
      <point x="426" y="786" type="line"/>
    </contour>
  </outline>
</glyph>
<glyph name="caroncomb" format="2">
  <unicode hex="030C"/>
  <anchor x="350" y="550" name="_top"/>
  <outline>
    <contour>
      <point x="300" y="628" type="line"/>
      <point x="390" y="628" type="line"/>
      <point x="390" y="643" type="line"/>
      <point x="276" y="786" type="line"/>
      <point x="197" y="786" type="line"/>
    </contour>
    <contour>
      <point x="394" y="628" type="line"/>
      <point x="530" y="780" type="line"/>
      <point x="530" y="786" type="line"/>
      <point x="445" y="786" type="line"/>
      <point x="300" y="643" type="line"/>
      <point x="300" y="628" type="line"/>
    </contour>
  </outline>
</glyph>
<glyph name="commaturnedabovecomb" format="2">
  <unicode hex="0312"/>
  <anchor x="350" y="550" name="_top"/>
  <outline>
    <contour>
      <point x="411" y="730" type="line"/>
      <point x="467" y="862" type="line"/>
      <point x="420" y="862" type="line"/>
      <point x="306" y="735" type="line"/>
    </contour>
    <contour>
      <point x="360" y="760" type="curve" smooth="yes"/>
      <point x="321" y="760"/>
      <point x="291" y="730"/>
      <point x="291" y="691" type="curve" smooth="yes"/>
      <point x="291" y="653"/>
      <point x="321" y="622"/>
      <point x="360" y="622" type="curve" smooth="yes"/>
      <point x="397" y="622"/>
      <point x="429" y="653"/>
      <point x="429" y="691" type="curve" smooth="yes"/>
      <point x="429" y="730"/>
      <point x="397" y="760"/>
    </contour>
  </outline>
</glyph>
<glyph name="horncomb" format="2">
  <unicode hex="031B"/>
  <anchor x="243" y="550" name="_topright"/>
  <outline>
    <contour>
      <point x="242" y="550" type="curve"/>
      <point x="242" y="501" type="line"/>
      <point x="306" y="500"/>
      <point x="343" y="512"/>
      <point x="364" y="536" type="curve" smooth="yes"/>
      <point x="388" y="563"/>
      <point x="396" y="602"/>
      <point x="392" y="662" type="curve"/>
      <point x="307" y="652" type="line"/>
      <point x="306" y="646" type="line"/>
      <point x="317" y="618"/>
      <point x="320" y="586"/>
      <point x="306" y="569" type="curve" smooth="yes"/>
      <point x="292" y="552"/>
      <point x="264" y="550"/>
    </contour>
  </outline>
</glyph>
<glyph name="dotbelowcomb" format="2">
  <unicode hex="0323"/>
  <anchor x="250" y="0" name="_bottom"/>
  <outline>
    <contour>
      <point x="246" y="-206" type="curve" smooth="yes"/>
      <point x="285" y="-206"/>
      <point x="315" y="-176"/>
      <point x="315" y="-137" type="curve" smooth="yes"/>
      <point x="315" y="-99"/>
      <point x="285" y="-68"/>
      <point x="246" y="-68" type="curve" smooth="yes"/>
      <point x="209" y="-68"/>
      <point x="177" y="-99"/>
      <point x="177" y="-137" type="curve" smooth="yes"/>
      <point x="177" y="-176"/>
      <point x="209" y="-206"/>
    </contour>
  </outline>
</glyph>
<glyph name="dieresisbelowcomb" format="2">
  <unicode hex="0324"/>
  <anchor x="250" y="0" name="_bottom"/>
  <outline>
    <contour>
      <point x="105" y="-58" type="line"/>
      <point x="88" y="-164" type="line"/>
      <point x="194" y="-164" type="line"/>
      <point x="211" y="-58" type="line"/>
    </contour>
    <contour>
      <point x="303" y="-58" type="line"/>
      <point x="286" y="-164" type="line"/>
      <point x="392" y="-164" type="line"/>
      <point x="409" y="-58" type="line"/>
    </contour>
  </outline>
</glyph>
<glyph name="commaaccentcomb" format="2">
  <unicode hex="0326"/>
  <anchor x="250" y="0" name="_bottom"/>
  <outline>
    <contour>
      <point x="191" y="-164" type="line"/>
      <point x="135" y="-296" type="line"/>
      <point x="182" y="-296" type="line"/>
      <point x="296" y="-169" type="line"/>
    </contour>
    <contour>
      <point x="242" y="-194" type="curve" smooth="yes"/>
      <point x="281" y="-194"/>
      <point x="311" y="-164"/>
      <point x="311" y="-125" type="curve" smooth="yes"/>
      <point x="311" y="-87"/>
      <point x="281" y="-56"/>
      <point x="242" y="-56" type="curve" smooth="yes"/>
      <point x="205" y="-56"/>
      <point x="173" y="-87"/>
      <point x="173" y="-125" type="curve" smooth="yes"/>
      <point x="173" y="-164"/>
      <point x="205" y="-194"/>
    </contour>
  </outline>
</glyph>
<glyph name="cedillacomb" format="2">
  <unicode hex="0327"/>
  <anchor x="250" y="0" name="_bottom"/>
  <outline>
    <contour>
      <point x="189" y="-106" type="line"/>
      <point x="265" y="-82"/>
      <point x="297" y="-102"/>
      <point x="292" y="-131" type="curve" smooth="yes"/>
      <point x="286" y="-164"/>
      <point x="241" y="-178"/>
      <point x="211" y="-178" type="curve" smooth="yes"/>
      <point x="185" y="-178"/>
      <point x="149" y="-170"/>
      <point x="118" y="-149" type="curve"/>
      <point x="85" y="-202" type="line"/>
      <point x="113" y="-223"/>
      <point x="159" y="-238"/>
      <point x="205" y="-238" type="curve" smooth="yes"/>
      <point x="283" y="-238"/>
      <point x="348" y="-198"/>
      <point x="359" y="-136" type="curve" smooth="yes"/>
      <point x="369" y="-82"/>
      <point x="322" y="-35"/>
      <point x="245" y="-46" type="curve"/>
      <point x="307" y="41" type="line"/>
      <point x="242" y="41" type="line"/>
      <point x="169" y="-71" type="line"/>
    </contour>
  </outline>
</glyph>
<glyph name="ogonekcomb" format="2">
  <unicode hex="0328"/>
  <anchor x="412" y="3" name="_ogonek"/>
  <outline>
    <contour>
      <point x="412" y="3" type="curve"/>
      <point x="399" y="42" type="line"/>
      <point x="276" y="-5"/>
      <point x="205" y="-46"/>
      <point x="209" y="-119" type="curve" smooth="yes"/>
      <point x="212" y="-173"/>
      <point x="287" y="-209"/>
      <point x="363" y="-229" type="curve"/>
      <point x="391" y="-161" type="line"/>
      <point x="360" y="-153"/>
      <point x="286" y="-136"/>
      <point x="285" y="-102" type="curve" smooth="yes"/>
      <point x="282" y="-65"/>
      <point x="319" y="-36"/>
    </contour>
  </outline>
</glyph>
<glyph name="circumflexbelowcomb" format="2">
  <unicode hex="032D"/>
  <anchor x="250" y="0" name="_bottom"/>
  <outline>
    <contour>
      <point x="290" y="-68" type="line"/>
      <point x="202" y="-68" type="line"/>
      <point x="202" y="-83" type="line"/>
      <point x="311" y="-226" type="line"/>
      <point x="389" y="-226" type="line"/>
    </contour>
    <contour>
      <point x="196" y="-68" type="line"/>
      <point x="56" y="-220" type="line"/>
      <point x="56" y="-226" type="line"/>
      <point x="142" y="-226" type="line"/>
      <point x="286" y="-83" type="line"/>
      <point x="286" y="-68" type="line"/>
    </contour>
  </outline>
</glyph>
<glyph name="brevebelowcomb" format="2">
  <unicode hex="032E"/>
  <anchor x="250" y="0" name="_bottom"/>
  <outline>
    <contour>
      <point x="410" y="-67" type="curve"/>
      <point x="334" y="-67" type="line"/>
      <point x="324" y="-128"/>
      <point x="285" y="-163"/>
      <point x="234" y="-163" type="curve" smooth="yes"/>
      <point x="184" y="-163"/>
      <point x="156" y="-122"/>
      <point x="164" y="-67" type="curve"/>
      <point x="88" y="-67" type="line"/>
      <point x="75" y="-153"/>
      <point x="133" y="-230"/>
      <point x="227" y="-230" type="curve" smooth="yes"/>
      <point x="330" y="-230"/>
      <point x="393" y="-162"/>
    </contour>
  </outline>
</glyph>
<glyph name="macronbelowcomb" format="2">
  <unicode hex="0331"/>
  <anchor x="250" y="0" name="_bottom"/>
  <outline>
    <contour>
      <point x="88" y="-84" type="line"/>
      <point x="75" y="-162" type="line"/>
      <point x="385" y="-162" type="line"/>
      <point x="398" y="-84" type="line"/>
    </contour>
  </outline>
</glyph>
<glyph name="mu" format="2">
  <advance width="620"/>
  <unicode hex="03BC"/>
  <outline>
    <contour>
      <point x="392" y="0" type="line"/>
      <point x="490" y="0" type="line"/>
      <point x="576" y="550" type="line"/>
      <point x="478" y="550" type="line"/>
    </contour>
    <contour>
      <point x="191" y="550" type="line"/>
      <point x="146" y="266" type="line" smooth="yes"/>
      <point x="119" y="97"/>
      <point x="118" y="-16"/>
      <point x="237" y="-16" type="curve" smooth="yes"/>
      <point x="297" y="-16"/>
      <point x="358" y="18"/>
      <point x="422" y="69" type="curve"/>
      <point x="437" y="171" type="line"/>
      <point x="355" y="107"/>
      <point x="298" y="81"/>
      <point x="247" y="81" type="curve" smooth="yes"/>
      <point x="170" y="81"/>
      <point x="169" y="155"/>
      <point x="185" y="257" type="curve" smooth="yes"/>
      <point x="231" y="550" type="line"/>
    </contour>
    <contour>
      <point x="12" y="-200" type="line"/>
      <point x="110" y="-200" type="line"/>
      <point x="228" y="550" type="line"/>
      <point x="130" y="550" type="line"/>
    </contour>
  </outline>
</glyph>
<glyph name="baht" format="2">
  <advance width="620"/>
  <unicode hex="0E3F"/>
  <outline>
    <contour>
      <point x="142" y="681" type="line"/>
      <point x="39" y="29" type="line"/>
      <point x="123" y="29" type="line"/>
      <point x="226" y="681" type="line"/>
    </contour>
    <contour>
      <point x="181" y="402" type="curve"/>
      <point x="171" y="336" type="line"/>
      <point x="236" y="336"/>
      <point x="255" y="336"/>
      <point x="306" y="336" type="curve" smooth="yes"/>
      <point x="418" y="336"/>
      <point x="530" y="396"/>
      <point x="548" y="509" type="curve" smooth="yes"/>
      <point x="565" y="616"/>
      <point x="479" y="681"/>
      <point x="360" y="681" type="curve" smooth="yes"/>
      <point x="318" y="681"/>
      <point x="297" y="681"/>
      <point x="225" y="681" type="curve"/>
      <point x="213" y="602" type="line"/>
      <point x="285" y="602"/>
      <point x="307" y="602"/>
      <point x="348" y="602" type="curve" smooth="yes"/>
      <point x="412" y="602"/>
      <point x="474" y="572"/>
      <point x="463" y="501" type="curve" smooth="yes"/>
      <point x="451" y="423"/>
      <point x="371" y="402"/>
      <point x="316" y="402" type="curve" smooth="yes"/>
      <point x="265" y="402"/>
      <point x="247" y="402"/>
    </contour>
    <contour>
      <point x="135" y="108" type="curve"/>
      <point x="122" y="29" type="line"/>
      <point x="187" y="29"/>
      <point x="211" y="29"/>
      <point x="262" y="29" type="curve" smooth="yes"/>
      <point x="378" y="29"/>
      <point x="506" y="61"/>
      <point x="529" y="211" type="curve" smooth="yes"/>
      <point x="549" y="343"/>
      <point x="419" y="389"/>
      <point x="314" y="389" type="curve"/>
      <point x="275" y="389"/>
      <point x="251" y="389"/>
      <point x="179" y="389" type="curve"/>
      <point x="169" y="326" type="line"/>
      <point x="241" y="326"/>
      <point x="263" y="326"/>
      <point x="304" y="326" type="curve" smooth="yes"/>
      <point x="352" y="326"/>
      <point x="460" y="316"/>
      <point x="445" y="217" type="curve" smooth="yes"/>
      <point x="429" y="112"/>
      <point x="318" y="108"/>
      <point x="275" y="108" type="curve" smooth="yes"/>
      <point x="224" y="108"/>
      <point x="201" y="108"/>
    </contour>
    <contour>
      <point x="392" y="764" type="line"/>
      <point x="320" y="764" type="line"/>
      <point x="190" y="-61" type="line"/>
      <point x="262" y="-61" type="line"/>
    </contour>
  </outline>
</glyph>
<glyph name="Hcedilla" format="2">
  <advance width="620"/>
  <unicode hex="1E28"/>
  <anchor x="265" y="0" name="bottom"/>
  <anchor x="372" y="710" name="top"/>
  <outline>
    <contour>
      <point x="127" y="15" type="line"/>
      <point x="64" y="15" type="line"/>
      <point x="8" y="-71" type="line"/>
      <point x="28" y="-106" type="line"/>
      <point x="104" y="-82"/>
      <point x="136" y="-102"/>
      <point x="131" y="-131" type="curve" smooth="yes"/>
      <point x="125" y="-164"/>
      <point x="80" y="-178"/>
      <point x="50" y="-178" type="curve" smooth="yes"/>
      <point x="24" y="-178"/>
      <point x="-12" y="-170"/>
      <point x="-43" y="-149" type="curve"/>
      <point x="-76" y="-202" type="line"/>
      <point x="-48" y="-223"/>
      <point x="-2" y="-238"/>
      <point x="44" y="-238" type="curve" smooth="yes"/>
      <point x="122" y="-238"/>
      <point x="187" y="-198"/>
      <point x="198" y="-136" type="curve" smooth="yes"/>
      <point x="208" y="-82"/>
      <point x="161" y="-35"/>
      <point x="84" y="-46" type="curve"/>
    </contour>
    <component base="H"/>
  </outline>
</glyph>
<glyph name="hcedilla" format="2">
  <advance width="620"/>
  <unicode hex="1E29"/>
  <anchor x="293" y="0" name="bottom"/>
  <anchor x="379" y="750" name="top"/>
  <outline>
    <contour>
      <point x="173" y="15" type="line"/>
      <point x="110" y="15" type="line"/>
      <point x="54" y="-71" type="line"/>
      <point x="74" y="-106" type="line"/>
      <point x="150" y="-82"/>
      <point x="182" y="-102"/>
      <point x="177" y="-131" type="curve" smooth="yes"/>
      <point x="171" y="-164"/>
      <point x="126" y="-178"/>
      <point x="96" y="-178" type="curve" smooth="yes"/>
      <point x="70" y="-178"/>
      <point x="34" y="-170"/>
      <point x="3" y="-149" type="curve"/>
      <point x="-30" y="-202" type="line"/>
      <point x="-2" y="-223"/>
      <point x="44" y="-238"/>
      <point x="90" y="-238" type="curve" smooth="yes"/>
      <point x="168" y="-238"/>
      <point x="233" y="-198"/>
      <point x="244" y="-136" type="curve" smooth="yes"/>
      <point x="254" y="-82"/>
      <point x="207" y="-35"/>
      <point x="130" y="-46" type="curve"/>
    </contour>
    <component base="h"/>
  </outline>
</glyph>
<glyph name="Germandbls" format="2">
  <advance width="620"/>
  <unicode hex="1E9E"/>
  <outline>
    <contour>
      <point x="330" y="669" type="curve" smooth="yes"/>
      <point x="235" y="669"/>
      <point x="188" y="623"/>
      <point x="168" y="500" type="curve" smooth="yes"/>
      <point x="88" y="0" type="line"/>
      <point x="-11" y="0" type="line"/>
      <point x="69" y="520" type="line" smooth="yes"/>
      <point x="100" y="720"/>
      <point x="207" y="766"/>
      <point x="342" y="766" type="curve" smooth="yes"/>
      <point x="496" y="766"/>
      <point x="588" y="636"/>
      <point x="578" y="504" type="curve"/>
      <point x="428" y="392" type="line"/>
      <point x="548" y="324"/>
      <point x="582" y="245"/>
      <point x="564" y="147" type="curve" smooth="yes"/>
      <point x="537" y="-1"/>
      <point x="376" y="-64"/>
      <point x="195" y="31" type="curve"/>
      <point x="210" y="130" type="line"/>
      <point x="327" y="62"/>
      <point x="444" y="69"/>
      <point x="463" y="169" type="curve" smooth="yes"/>
      <point x="479" y="253"/>
      <point x="417" y="313"/>
      <point x="306" y="345" type="curve"/>
      <point x="320" y="427" type="line"/>
      <point x="471" y="548" type="line"/>
      <point x="468" y="601"/>
      <point x="416" y="669"/>
    </contour>
  </outline>
</glyph>
<glyph name="endash" format="2">
  <advance width="620"/>
  <unicode hex="2013"/>
  <outline>
    <contour>
      <point x="557" y="350" type="line"/>
      <point x="87" y="350" type="line"/>
      <point x="74" y="264" type="line"/>
      <point x="544" y="264" type="line"/>
    </contour>
  </outline>
</glyph>
<glyph name="emdash" format="2">
  <advance width="620"/>
  <unicode hex="2014"/>
  <outline>
    <contour>
      <point x="607" y="350" type="line"/>
      <point x="37" y="350" type="line"/>
      <point x="24" y="264" type="line"/>
      <point x="594" y="264" type="line"/>
    </contour>
  </outline>
</glyph>
<glyph name="quoteleft" format="2">
  <advance width="620"/>
  <unicode hex="2018"/>
  <outline>
    <contour>
      <point x="400" y="549" type="line"/>
      <point x="474" y="710" type="line"/>
      <point x="418" y="710" type="line"/>
      <point x="301" y="549" type="line"/>
    </contour>
    <contour>
      <point x="355" y="578" type="curve" smooth="yes"/>
      <point x="319" y="578"/>
      <point x="289" y="547"/>
      <point x="289" y="508" type="curve" smooth="yes"/>
      <point x="289" y="472"/>
      <point x="319" y="440"/>
      <point x="355" y="440" type="curve" smooth="yes"/>
      <point x="395" y="440"/>
      <point x="426" y="472"/>
      <point x="426" y="508" type="curve" smooth="yes"/>
      <point x="426" y="547"/>
      <point x="395" y="578"/>
    </contour>
  </outline>
</glyph>
<glyph name="quoteright" format="2">
  <advance width="620"/>
  <unicode hex="2019"/>
  <outline>
    <contour>
      <point x="318" y="617" type="line"/>
      <point x="244" y="456" type="line"/>
      <point x="300" y="456" type="line"/>
      <point x="417" y="617" type="line"/>
    </contour>
    <contour>
      <point x="363" y="588" type="curve" smooth="yes"/>
      <point x="399" y="588"/>
      <point x="429" y="619"/>
      <point x="429" y="658" type="curve" smooth="yes"/>
      <point x="429" y="694"/>
      <point x="399" y="726"/>
      <point x="363" y="726" type="curve" smooth="yes"/>
      <point x="323" y="726"/>
      <point x="292" y="694"/>
      <point x="292" y="658" type="curve" smooth="yes"/>
      <point x="292" y="619"/>
      <point x="323" y="588"/>
    </contour>
  </outline>
</glyph>
<glyph name="quotesinglbase" format="2">
  <advance width="620"/>
  <unicode hex="201A"/>
  <outline>
    <contour>
      <point x="225" y="29" type="line"/>
      <point x="151" y="-132" type="line"/>
      <point x="207" y="-132" type="line"/>
      <point x="324" y="29" type="line"/>
    </contour>
    <contour>
      <point x="270" y="0" type="curve" smooth="yes"/>
      <point x="306" y="0"/>
      <point x="336" y="31"/>
      <point x="336" y="70" type="curve" smooth="yes"/>
      <point x="336" y="106"/>
      <point x="306" y="138"/>
      <point x="270" y="138" type="curve" smooth="yes"/>
      <point x="230" y="138"/>
      <point x="199" y="106"/>
      <point x="199" y="70" type="curve" smooth="yes"/>
      <point x="199" y="31"/>
      <point x="230" y="0"/>
    </contour>
  </outline>
</glyph>
